M48
;DRILL file {KiCad 4.0.5} date 02/17/17 11:20:49
;FORMAT={-:-/ absolute / inch / decimal}
FMAT,2
INCH,TZ
T1C0.035
%
G90
G05
M72
T1
X4.15Y-3.245
X4.25Y-3.245
X4.25Y-3.595
X4.25Y-3.695
X4.25Y-3.795
X4.25Y-3.895
X4.25Y-3.995
X4.25Y-4.095
X4.35Y-3.245
X4.45Y-3.245
X4.51Y-5.145
X4.55Y-3.245
X4.61Y-5.145
X4.65Y-3.245
X4.7Y-3.695
X4.7Y-3.795
X4.7Y-3.895
X4.7Y-3.995
X4.71Y-5.145
X4.75Y-3.245
X4.81Y-5.145
X4.85Y-3.245
X4.91Y-5.145
X4.95Y-3.245
X5.01Y-5.145
X5.05Y-3.245
X5.1Y-3.695
X5.1Y-3.795
X5.1Y-3.895
X5.1Y-3.995
X5.11Y-5.145
X5.21Y-3.245
X5.21Y-5.145
X5.31Y-3.245
X5.41Y-3.245
X5.41Y-5.145
X5.5Y-3.695
X5.5Y-3.795
X5.5Y-3.895
X5.5Y-3.995
X5.51Y-3.245
X5.51Y-5.145
X5.61Y-3.245
X5.61Y-5.145
X5.71Y-3.245
X5.71Y-5.145
X5.81Y-3.245
X5.81Y-5.145
X5.85Y-3.745
X5.85Y-3.845
X5.85Y-3.945
X5.91Y-3.245
X5.91Y-5.145
T0
M30
