<?xml version="1.0" standalone="no"?>
 <!DOCTYPE svg PUBLIC "-//W3C//DTD SVG 1.1//EN" 
 "http://www.w3.org/Graphics/SVG/1.1/DTD/svg11.dtd"> 
<svg xmlns="http://www.w3.org/2000/svg" version="1.1" 
    width="29.7002cm" height="21.0007cm" viewBox="0 0 116930 82680 ">
<title>SVG Picture created as Kicad-F.SilkS.svg date 2017/02/13 17:44:37 </title>
  <desc>Picture generated by PCBNEW </desc>
<g style="fill:#000000; fill-opacity:1;stroke:#000000; stroke-opacity:1;
stroke-linecap:round; stroke-linejoin:round; "
 transform="translate(0 0) scale(1 1)">
</g>
<g style="fill:#000000; fill-opacity:0.0; 
stroke:#000000; stroke-width:-0.000393701; stroke-opacity:1; 
stroke-linecap:round; stroke-linejoin:round;">
</g>
<g style="fill:#000000; fill-opacity:0.0; 
stroke:#000000; stroke-width:39.3701; stroke-opacity:1; 
stroke-linecap:round; stroke-linejoin:round;">
</g>
<g style="fill:#000000; fill-opacity:0.0; 
stroke:#000000; stroke-width:59.0551; stroke-opacity:1; 
stroke-linecap:round; stroke-linejoin:round;">
<rect x="69685.9" y="65357.2" width="42519.7" height="12598.4" rx="0" />
</g>
<g style="fill:#000000; fill-opacity:0.0; 
stroke:#000000; stroke-width:39.3701; stroke-opacity:1; 
stroke-linecap:round; stroke-linejoin:round;">
</g>
<g style="fill:#000000; fill-opacity:0.0; 
stroke:#000000; stroke-width:59.0551; stroke-opacity:1; 
stroke-linecap:round; stroke-linejoin:round;">
<rect x="3937.01" y="3937.01" width="109056" height="74806" rx="0" />
</g>
<g style="fill:#000000; fill-opacity:0.0; 
stroke:#000000; stroke-width:39.3701; stroke-opacity:1; 
stroke-linecap:round; stroke-linejoin:round;">
</g>
<g style="fill:#000000; fill-opacity:0.0; 
stroke:#000000; stroke-width:59.0551; stroke-opacity:1; 
stroke-linecap:round; stroke-linejoin:round;">
<rect x="4724.41" y="4724.41" width="107481" height="73231.2" rx="0" />
</g>
<g style="fill:#000000; fill-opacity:0.0; 
stroke:#000000; stroke-width:39.3701; stroke-opacity:1; 
stroke-linecap:round; stroke-linejoin:round;">
</g>
<g style="fill:#000000; fill-opacity:0.0; 
stroke:#000000; stroke-width:59.0551; stroke-opacity:1; 
stroke-linecap:round; stroke-linejoin:round;">
<path d="M23622 4724
L23622 3937
" />
</g>
<g style="fill:#000000; fill-opacity:0.0; 
stroke:#000000; stroke-width:39.3701; stroke-opacity:1; 
stroke-linecap:round; stroke-linejoin:round;">
</g>
<g style="fill:#000000; fill-opacity:0.0; 
stroke:#000000; stroke-width:59.0551; stroke-opacity:1; 
stroke-linecap:round; stroke-linejoin:round;">
<path d="M43307 4724
L43307 3937
" />
</g>
<g style="fill:#000000; fill-opacity:0.0; 
stroke:#000000; stroke-width:39.3701; stroke-opacity:1; 
stroke-linecap:round; stroke-linejoin:round;">
</g>
<g style="fill:#000000; fill-opacity:0.0; 
stroke:#000000; stroke-width:59.0551; stroke-opacity:1; 
stroke-linecap:round; stroke-linejoin:round;">
<path d="M62992 4724
L62992 3937
" />
</g>
<g style="fill:#000000; fill-opacity:0.0; 
stroke:#000000; stroke-width:39.3701; stroke-opacity:1; 
stroke-linecap:round; stroke-linejoin:round;">
</g>
<g style="fill:#000000; fill-opacity:0.0; 
stroke:#000000; stroke-width:59.0551; stroke-opacity:1; 
stroke-linecap:round; stroke-linejoin:round;">
<path d="M82677 4724
L82677 3937
" />
</g>
<g style="fill:#000000; fill-opacity:0.0; 
stroke:#000000; stroke-width:39.3701; stroke-opacity:1; 
stroke-linecap:round; stroke-linejoin:round;">
</g>
<g style="fill:#000000; fill-opacity:0.0; 
stroke:#000000; stroke-width:59.0551; stroke-opacity:1; 
stroke-linecap:round; stroke-linejoin:round;">
<path d="M102362 4724
L102362 3937
" />
</g>
<g style="fill:#000000; fill-opacity:0.0; 
stroke:#000000; stroke-width:39.3701; stroke-opacity:1; 
stroke-linecap:round; stroke-linejoin:round;">
</g>
<g style="fill:#000000; fill-opacity:0.0; 
stroke:#000000; stroke-width:59.0551; stroke-opacity:1; 
stroke-linecap:round; stroke-linejoin:round;">
<path d="M14169 4562
L13877 4562
" />
<path d="M14023 4562
L14023 4050
L13974 4123
L13925 4172
L13877 4196
" />
</g>
<g style="fill:#000000; fill-opacity:0.0; 
stroke:#000000; stroke-width:39.3701; stroke-opacity:1; 
stroke-linecap:round; stroke-linejoin:round;">
</g>
<g style="fill:#000000; fill-opacity:0.0; 
stroke:#000000; stroke-width:59.0551; stroke-opacity:1; 
stroke-linecap:round; stroke-linejoin:round;">
<path d="M33562 4099
L33586 4074
L33635 4050
L33757 4050
L33805 4074
L33830 4099
L33854 4147
L33854 4196
L33830 4269
L33537 4562
L33854 4562
" />
</g>
<g style="fill:#000000; fill-opacity:0.0; 
stroke:#000000; stroke-width:39.3701; stroke-opacity:1; 
stroke-linecap:round; stroke-linejoin:round;">
</g>
<g style="fill:#000000; fill-opacity:0.0; 
stroke:#000000; stroke-width:59.0551; stroke-opacity:1; 
stroke-linecap:round; stroke-linejoin:round;">
<path d="M53222 4050
L53539 4050
L53368 4245
L53442 4245
L53490 4269
L53515 4294
L53539 4342
L53539 4464
L53515 4513
L53490 4537
L53442 4562
L53295 4562
L53247 4537
L53222 4513
" />
</g>
<g style="fill:#000000; fill-opacity:0.0; 
stroke:#000000; stroke-width:39.3701; stroke-opacity:1; 
stroke-linecap:round; stroke-linejoin:round;">
</g>
<g style="fill:#000000; fill-opacity:0.0; 
stroke:#000000; stroke-width:59.0551; stroke-opacity:1; 
stroke-linecap:round; stroke-linejoin:round;">
<path d="M73175 4221
L73175 4562
" />
<path d="M73053 4026
L72932 4391
L73248 4391
" />
</g>
<g style="fill:#000000; fill-opacity:0.0; 
stroke:#000000; stroke-width:39.3701; stroke-opacity:1; 
stroke-linecap:round; stroke-linejoin:round;">
</g>
<g style="fill:#000000; fill-opacity:0.0; 
stroke:#000000; stroke-width:59.0551; stroke-opacity:1; 
stroke-linecap:round; stroke-linejoin:round;">
<path d="M92885 4050
L92641 4050
L92617 4294
L92641 4269
L92690 4245
L92812 4245
L92860 4269
L92885 4294
L92909 4342
L92909 4464
L92885 4513
L92860 4537
L92812 4562
L92690 4562
L92641 4537
L92617 4513
" />
</g>
<g style="fill:#000000; fill-opacity:0.0; 
stroke:#000000; stroke-width:39.3701; stroke-opacity:1; 
stroke-linecap:round; stroke-linejoin:round;">
</g>
<g style="fill:#000000; fill-opacity:0.0; 
stroke:#000000; stroke-width:59.0551; stroke-opacity:1; 
stroke-linecap:round; stroke-linejoin:round;">
<path d="M112545 4050
L112448 4050
L112399 4074
L112375 4099
L112326 4172
L112302 4269
L112302 4464
L112326 4513
L112350 4537
L112399 4562
L112497 4562
L112545 4537
L112570 4513
L112594 4464
L112594 4342
L112570 4294
L112545 4269
L112497 4245
L112399 4245
L112350 4269
L112326 4294
L112302 4342
" />
</g>
<g style="fill:#000000; fill-opacity:0.0; 
stroke:#000000; stroke-width:39.3701; stroke-opacity:1; 
stroke-linecap:round; stroke-linejoin:round;">
</g>
<g style="fill:#000000; fill-opacity:0.0; 
stroke:#000000; stroke-width:59.0551; stroke-opacity:1; 
stroke-linecap:round; stroke-linejoin:round;">
<path d="M23622 77955
L23622 78742
" />
</g>
<g style="fill:#000000; fill-opacity:0.0; 
stroke:#000000; stroke-width:39.3701; stroke-opacity:1; 
stroke-linecap:round; stroke-linejoin:round;">
</g>
<g style="fill:#000000; fill-opacity:0.0; 
stroke:#000000; stroke-width:59.0551; stroke-opacity:1; 
stroke-linecap:round; stroke-linejoin:round;">
<path d="M43307 77955
L43307 78742
" />
</g>
<g style="fill:#000000; fill-opacity:0.0; 
stroke:#000000; stroke-width:39.3701; stroke-opacity:1; 
stroke-linecap:round; stroke-linejoin:round;">
</g>
<g style="fill:#000000; fill-opacity:0.0; 
stroke:#000000; stroke-width:59.0551; stroke-opacity:1; 
stroke-linecap:round; stroke-linejoin:round;">
<path d="M62992 77955
L62992 78742
" />
</g>
<g style="fill:#000000; fill-opacity:0.0; 
stroke:#000000; stroke-width:39.3701; stroke-opacity:1; 
stroke-linecap:round; stroke-linejoin:round;">
</g>
<g style="fill:#000000; fill-opacity:0.0; 
stroke:#000000; stroke-width:59.0551; stroke-opacity:1; 
stroke-linecap:round; stroke-linejoin:round;">
<path d="M82677 77955
L82677 78742
" />
</g>
<g style="fill:#000000; fill-opacity:0.0; 
stroke:#000000; stroke-width:39.3701; stroke-opacity:1; 
stroke-linecap:round; stroke-linejoin:round;">
</g>
<g style="fill:#000000; fill-opacity:0.0; 
stroke:#000000; stroke-width:59.0551; stroke-opacity:1; 
stroke-linecap:round; stroke-linejoin:round;">
<path d="M102362 77955
L102362 78742
" />
</g>
<g style="fill:#000000; fill-opacity:0.0; 
stroke:#000000; stroke-width:39.3701; stroke-opacity:1; 
stroke-linecap:round; stroke-linejoin:round;">
</g>
<g style="fill:#000000; fill-opacity:0.0; 
stroke:#000000; stroke-width:59.0551; stroke-opacity:1; 
stroke-linecap:round; stroke-linejoin:round;">
<path d="M14169 78580
L13877 78580
" />
<path d="M14023 78580
L14023 78069
L13974 78142
L13925 78190
L13877 78215
" />
</g>
<g style="fill:#000000; fill-opacity:0.0; 
stroke:#000000; stroke-width:39.3701; stroke-opacity:1; 
stroke-linecap:round; stroke-linejoin:round;">
</g>
<g style="fill:#000000; fill-opacity:0.0; 
stroke:#000000; stroke-width:59.0551; stroke-opacity:1; 
stroke-linecap:round; stroke-linejoin:round;">
<path d="M33562 78117
L33586 78093
L33635 78069
L33757 78069
L33805 78093
L33830 78117
L33854 78166
L33854 78215
L33830 78288
L33537 78580
L33854 78580
" />
</g>
<g style="fill:#000000; fill-opacity:0.0; 
stroke:#000000; stroke-width:39.3701; stroke-opacity:1; 
stroke-linecap:round; stroke-linejoin:round;">
</g>
<g style="fill:#000000; fill-opacity:0.0; 
stroke:#000000; stroke-width:59.0551; stroke-opacity:1; 
stroke-linecap:round; stroke-linejoin:round;">
<path d="M53222 78069
L53539 78069
L53368 78263
L53442 78263
L53490 78288
L53515 78312
L53539 78361
L53539 78483
L53515 78532
L53490 78556
L53442 78580
L53295 78580
L53247 78556
L53222 78532
" />
</g>
<g style="fill:#000000; fill-opacity:0.0; 
stroke:#000000; stroke-width:39.3701; stroke-opacity:1; 
stroke-linecap:round; stroke-linejoin:round;">
</g>
<g style="fill:#000000; fill-opacity:0.0; 
stroke:#000000; stroke-width:59.0551; stroke-opacity:1; 
stroke-linecap:round; stroke-linejoin:round;">
<path d="M73175 78239
L73175 78580
" />
<path d="M73053 78044
L72932 78410
L73248 78410
" />
</g>
<g style="fill:#000000; fill-opacity:0.0; 
stroke:#000000; stroke-width:39.3701; stroke-opacity:1; 
stroke-linecap:round; stroke-linejoin:round;">
</g>
<g style="fill:#000000; fill-opacity:0.0; 
stroke:#000000; stroke-width:59.0551; stroke-opacity:1; 
stroke-linecap:round; stroke-linejoin:round;">
<path d="M92885 78069
L92641 78069
L92617 78312
L92641 78288
L92690 78263
L92812 78263
L92860 78288
L92885 78312
L92909 78361
L92909 78483
L92885 78532
L92860 78556
L92812 78580
L92690 78580
L92641 78556
L92617 78532
" />
</g>
<g style="fill:#000000; fill-opacity:0.0; 
stroke:#000000; stroke-width:39.3701; stroke-opacity:1; 
stroke-linecap:round; stroke-linejoin:round;">
</g>
<g style="fill:#000000; fill-opacity:0.0; 
stroke:#000000; stroke-width:59.0551; stroke-opacity:1; 
stroke-linecap:round; stroke-linejoin:round;">
<path d="M112545 78069
L112448 78069
L112399 78093
L112375 78117
L112326 78190
L112302 78288
L112302 78483
L112326 78532
L112350 78556
L112399 78580
L112497 78580
L112545 78556
L112570 78532
L112594 78483
L112594 78361
L112570 78312
L112545 78288
L112497 78263
L112399 78263
L112350 78288
L112326 78312
L112302 78361
" />
</g>
<g style="fill:#000000; fill-opacity:0.0; 
stroke:#000000; stroke-width:39.3701; stroke-opacity:1; 
stroke-linecap:round; stroke-linejoin:round;">
</g>
<g style="fill:#000000; fill-opacity:0.0; 
stroke:#000000; stroke-width:59.0551; stroke-opacity:1; 
stroke-linecap:round; stroke-linejoin:round;">
<path d="M3937 23622
L4724 23622
" />
</g>
<g style="fill:#000000; fill-opacity:0.0; 
stroke:#000000; stroke-width:39.3701; stroke-opacity:1; 
stroke-linecap:round; stroke-linejoin:round;">
</g>
<g style="fill:#000000; fill-opacity:0.0; 
stroke:#000000; stroke-width:59.0551; stroke-opacity:1; 
stroke-linecap:round; stroke-linejoin:round;">
<path d="M3937 43307
L4724 43307
" />
</g>
<g style="fill:#000000; fill-opacity:0.0; 
stroke:#000000; stroke-width:39.3701; stroke-opacity:1; 
stroke-linecap:round; stroke-linejoin:round;">
</g>
<g style="fill:#000000; fill-opacity:0.0; 
stroke:#000000; stroke-width:59.0551; stroke-opacity:1; 
stroke-linecap:round; stroke-linejoin:round;">
<path d="M3937 62992
L4724 62992
" />
</g>
<g style="fill:#000000; fill-opacity:0.0; 
stroke:#000000; stroke-width:39.3701; stroke-opacity:1; 
stroke-linecap:round; stroke-linejoin:round;">
</g>
<g style="fill:#000000; fill-opacity:0.0; 
stroke:#000000; stroke-width:59.0551; stroke-opacity:1; 
stroke-linecap:round; stroke-linejoin:round;">
<path d="M4208 13864
L4452 13864
" />
<path d="M4160 14011
L4330 13499
L4501 14011
" />
</g>
<g style="fill:#000000; fill-opacity:0.0; 
stroke:#000000; stroke-width:39.3701; stroke-opacity:1; 
stroke-linecap:round; stroke-linejoin:round;">
</g>
<g style="fill:#000000; fill-opacity:0.0; 
stroke:#000000; stroke-width:59.0551; stroke-opacity:1; 
stroke-linecap:round; stroke-linejoin:round;">
<path d="M4367 33428
L4440 33452
L4464 33476
L4489 33525
L4489 33598
L4464 33647
L4440 33671
L4391 33696
L4196 33696
L4196 33184
L4367 33184
L4416 33208
L4440 33233
L4464 33281
L4464 33330
L4440 33379
L4416 33403
L4367 33428
L4196 33428
" />
</g>
<g style="fill:#000000; fill-opacity:0.0; 
stroke:#000000; stroke-width:39.3701; stroke-opacity:1; 
stroke-linecap:round; stroke-linejoin:round;">
</g>
<g style="fill:#000000; fill-opacity:0.0; 
stroke:#000000; stroke-width:59.0551; stroke-opacity:1; 
stroke-linecap:round; stroke-linejoin:round;">
<path d="M4489 53332
L4464 53356
L4391 53381
L4342 53381
L4269 53356
L4221 53308
L4196 53259
L4172 53161
L4172 53088
L4196 52991
L4221 52942
L4269 52893
L4342 52869
L4391 52869
L4464 52893
L4489 52918
" />
</g>
<g style="fill:#000000; fill-opacity:0.0; 
stroke:#000000; stroke-width:39.3701; stroke-opacity:1; 
stroke-linecap:round; stroke-linejoin:round;">
</g>
<g style="fill:#000000; fill-opacity:0.0; 
stroke:#000000; stroke-width:59.0551; stroke-opacity:1; 
stroke-linecap:round; stroke-linejoin:round;">
<path d="M4196 73066
L4196 72554
L4318 72554
L4391 72578
L4440 72627
L4464 72676
L4489 72773
L4489 72846
L4464 72944
L4440 72993
L4391 73041
L4318 73066
L4196 73066
" />
</g>
<g style="fill:#000000; fill-opacity:0.0; 
stroke:#000000; stroke-width:39.3701; stroke-opacity:1; 
stroke-linecap:round; stroke-linejoin:round;">
</g>
<g style="fill:#000000; fill-opacity:0.0; 
stroke:#000000; stroke-width:59.0551; stroke-opacity:1; 
stroke-linecap:round; stroke-linejoin:round;">
<path d="M112992 23622
L112205 23622
" />
</g>
<g style="fill:#000000; fill-opacity:0.0; 
stroke:#000000; stroke-width:39.3701; stroke-opacity:1; 
stroke-linecap:round; stroke-linejoin:round;">
</g>
<g style="fill:#000000; fill-opacity:0.0; 
stroke:#000000; stroke-width:59.0551; stroke-opacity:1; 
stroke-linecap:round; stroke-linejoin:round;">
<path d="M112992 43307
L112205 43307
" />
</g>
<g style="fill:#000000; fill-opacity:0.0; 
stroke:#000000; stroke-width:39.3701; stroke-opacity:1; 
stroke-linecap:round; stroke-linejoin:round;">
</g>
<g style="fill:#000000; fill-opacity:0.0; 
stroke:#000000; stroke-width:59.0551; stroke-opacity:1; 
stroke-linecap:round; stroke-linejoin:round;">
<path d="M112992 62992
L112205 62992
" />
</g>
<g style="fill:#000000; fill-opacity:0.0; 
stroke:#000000; stroke-width:39.3701; stroke-opacity:1; 
stroke-linecap:round; stroke-linejoin:round;">
</g>
<g style="fill:#000000; fill-opacity:0.0; 
stroke:#000000; stroke-width:59.0551; stroke-opacity:1; 
stroke-linecap:round; stroke-linejoin:round;">
<path d="M112477 13864
L112721 13864
" />
<path d="M112428 14011
L112599 13499
L112769 14011
" />
</g>
<g style="fill:#000000; fill-opacity:0.0; 
stroke:#000000; stroke-width:39.3701; stroke-opacity:1; 
stroke-linecap:round; stroke-linejoin:round;">
</g>
<g style="fill:#000000; fill-opacity:0.0; 
stroke:#000000; stroke-width:59.0551; stroke-opacity:1; 
stroke-linecap:round; stroke-linejoin:round;">
<path d="M112635 33428
L112708 33452
L112733 33476
L112757 33525
L112757 33598
L112733 33647
L112708 33671
L112660 33696
L112465 33696
L112465 33184
L112635 33184
L112684 33208
L112708 33233
L112733 33281
L112733 33330
L112708 33379
L112684 33403
L112635 33428
L112465 33428
" />
</g>
<g style="fill:#000000; fill-opacity:0.0; 
stroke:#000000; stroke-width:39.3701; stroke-opacity:1; 
stroke-linecap:round; stroke-linejoin:round;">
</g>
<g style="fill:#000000; fill-opacity:0.0; 
stroke:#000000; stroke-width:59.0551; stroke-opacity:1; 
stroke-linecap:round; stroke-linejoin:round;">
<path d="M112757 53332
L112733 53356
L112660 53381
L112611 53381
L112538 53356
L112489 53308
L112465 53259
L112440 53161
L112440 53088
L112465 52991
L112489 52942
L112538 52893
L112611 52869
L112660 52869
L112733 52893
L112757 52918
" />
</g>
<g style="fill:#000000; fill-opacity:0.0; 
stroke:#000000; stroke-width:39.3701; stroke-opacity:1; 
stroke-linecap:round; stroke-linejoin:round;">
</g>
<g style="fill:#000000; fill-opacity:0.0; 
stroke:#000000; stroke-width:59.0551; stroke-opacity:1; 
stroke-linecap:round; stroke-linejoin:round;">
<path d="M112465 73066
L112465 72554
L112587 72554
L112660 72578
L112708 72627
L112733 72676
L112757 72773
L112757 72846
L112733 72944
L112708 72993
L112660 73041
L112587 73066
L112465 73066
" />
</g>
<g style="fill:#000000; fill-opacity:0.0; 
stroke:#000000; stroke-width:39.3701; stroke-opacity:1; 
stroke-linecap:round; stroke-linejoin:round;">
</g>
<g style="fill:#000000; fill-opacity:0.0; 
stroke:#000000; stroke-width:59.0551; stroke-opacity:1; 
stroke-linecap:round; stroke-linejoin:round;">
<path d="M78881 76293
L78881 75703
L79022 75703
L79106 75731
L79162 75787
L79190 75843
L79219 75956
L79219 76040
L79190 76153
L79162 76209
L79106 76265
L79022 76293
L78881 76293
" />
<path d="M79725 76293
L79725 75984
L79697 75928
L79640 75899
L79528 75899
L79472 75928
" />
<path d="M79725 76265
L79669 76293
L79528 76293
L79472 76265
L79444 76209
L79444 76153
L79472 76096
L79528 76068
L79669 76068
L79725 76040
" />
<path d="M79922 75899
L80147 75899
" />
<path d="M80006 75703
L80006 76209
L80034 76265
L80090 76293
L80147 76293
" />
<path d="M80568 76265
L80512 76293
L80400 76293
L80343 76265
L80315 76209
L80315 75984
L80343 75928
L80400 75899
L80512 75899
L80568 75928
L80597 75984
L80597 76040
L80315 76096
" />
<path d="M80850 76237
L80878 76265
L80850 76293
L80822 76265
L80850 76237
L80850 76293
" />
<path d="M80850 75928
L80878 75956
L80850 75984
L80822 75956
L80850 75928
L80850 75984
" />
<path d="M81665 76293
L81609 76265
L81581 76209
L81581 75703
" />
<path d="M82143 75899
L82143 76293
" />
<path d="M81890 75899
L81890 76209
L81918 76265
L81974 76293
L82059 76293
L82115 76265
L82143 76237
" />
<path d="M82424 75899
L82424 76293
" />
<path d="M82424 75956
L82453 75928
L82509 75899
L82593 75899
L82649 75928
L82678 75984
L82678 76293
" />
<path d="M82959 76237
L82987 76265
L82959 76293
L82931 76265
L82959 76237
L82959 76293
" />
<path d="M83634 75703
L83999 75703
L83802 75928
L83887 75928
L83943 75956
L83971 75984
L83999 76040
L83999 76181
L83971 76237
L83943 76265
L83887 76293
L83718 76293
L83662 76265
L83634 76237
" />
<path d="M84365 75703
L84421 75703
L84477 75731
L84505 75759
L84534 75815
L84562 75928
L84562 76068
L84534 76181
L84505 76237
L84477 76265
L84421 76293
L84365 76293
L84309 76265
L84280 76237
L84252 76181
L84224 76068
L84224 75928
L84252 75815
L84280 75759
L84309 75731
L84365 75703
" />
<path d="M85265 76293
L85265 75899
" />
<path d="M85265 75956
L85293 75928
L85349 75899
L85433 75899
L85490 75928
L85518 75984
L85518 76293
" />
<path d="M85518 75984
L85546 75928
L85602 75899
L85687 75899
L85743 75928
L85771 75984
L85771 76293
" />
<path d="M86305 76293
L86305 75984
L86277 75928
L86221 75899
L86108 75899
L86052 75928
" />
<path d="M86305 76265
L86249 76293
L86108 76293
L86052 76265
L86024 76209
L86024 76153
L86052 76096
L86108 76068
L86249 76068
L86305 76040
" />
<path d="M86586 76293
L86586 75899
" />
<path d="M86586 76012
L86615 75956
L86643 75928
L86699 75899
L86755 75899
" />
<path d="M86924 76265
L86980 76293
L87093 76293
L87149 76265
L87177 76209
L87177 76181
L87149 76124
L87093 76096
L87008 76096
L86952 76068
L86924 76012
L86924 75984
L86952 75928
L87008 75899
L87093 75899
L87149 75928
" />
<path d="M87852 75759
L87880 75731
L87936 75703
L88077 75703
L88133 75731
L88161 75759
L88189 75815
L88189 75871
L88161 75956
L87824 76293
L88189 76293
" />
<path d="M88555 75703
L88611 75703
L88667 75731
L88696 75759
L88724 75815
L88752 75928
L88752 76068
L88724 76181
L88696 76237
L88667 76265
L88611 76293
L88555 76293
L88499 76265
L88471 76237
L88442 76181
L88414 76068
L88414 75928
L88442 75815
L88471 75759
L88499 75731
L88555 75703
" />
<path d="M89314 76293
L88977 76293
" />
<path d="M89145 76293
L89145 75703
L89089 75787
L89033 75843
L88977 75871
" />
<path d="M89849 75703
L89567 75703
L89539 75984
L89567 75956
L89624 75928
L89764 75928
L89820 75956
L89849 75984
L89877 76040
L89877 76181
L89849 76237
L89820 76265
L89764 76293
L89624 76293
L89567 76265
L89539 76237
" />
</g>
<g style="fill:#000000; fill-opacity:0.0; 
stroke:#000000; stroke-width:39.3701; stroke-opacity:1; 
stroke-linecap:round; stroke-linejoin:round;">
</g>
<g style="fill:#000000; fill-opacity:0.0; 
stroke:#000000; stroke-width:59.0551; stroke-opacity:1; 
stroke-linecap:round; stroke-linejoin:round;">
<path d="M69685 76577
L112205 76577
" />
</g>
<g style="fill:#000000; fill-opacity:0.0; 
stroke:#000000; stroke-width:39.3701; stroke-opacity:1; 
stroke-linecap:round; stroke-linejoin:round;">
</g>
<g style="fill:#000000; fill-opacity:0.0; 
stroke:#000000; stroke-width:59.0551; stroke-opacity:1; 
stroke-linecap:round; stroke-linejoin:round;">
<path d="M70220 77395
L70220 76805
" />
<path d="M70557 77395
L70304 77058
" />
<path d="M70557 76805
L70220 77142
" />
<path d="M70810 77395
L70810 77002
" />
<path d="M70810 76805
L70782 76833
L70810 76861
L70838 76833
L70810 76805
L70810 76861
" />
<path d="M71429 77339
L71401 77367
L71316 77395
L71260 77395
L71176 77367
L71120 77311
L71091 77255
L71063 77142
L71063 77058
L71091 76946
L71120 76889
L71176 76833
L71260 76805
L71316 76805
L71401 76833
L71429 76861
" />
<path d="M71935 77395
L71935 77086
L71907 77030
L71851 77002
L71738 77002
L71682 77030
" />
<path d="M71935 77367
L71879 77395
L71738 77395
L71682 77367
L71654 77311
L71654 77255
L71682 77199
L71738 77171
L71879 77171
L71935 77142
" />
<path d="M72469 77395
L72469 76805
" />
<path d="M72469 77367
L72413 77395
L72301 77395
L72244 77367
L72216 77339
L72188 77283
L72188 77114
L72216 77058
L72244 77030
L72301 77002
L72413 77002
L72469 77030
" />
<path d="M73201 77086
L73397 77086
" />
<path d="M73482 77395
L73201 77395
L73201 76805
L73482 76805
" />
<path d="M73735 77339
L73763 77367
L73735 77395
L73707 77367
L73735 77339
L73735 77395
" />
<path d="M74016 77395
L74016 76805
L74157 76805
L74241 76833
L74297 76889
L74325 76946
L74354 77058
L74354 77142
L74325 77255
L74297 77311
L74241 77367
L74157 77395
L74016 77395
" />
<path d="M74607 77339
L74635 77367
L74607 77395
L74579 77367
L74607 77339
L74607 77395
" />
<path d="M74860 77227
L75141 77227
" />
<path d="M74804 77395
L75000 76805
L75197 77395
" />
<path d="M75394 77339
L75422 77367
L75394 77395
L75366 77367
L75394 77339
L75394 77395
" />
<path d="M76575 77395
L76575 76805
" />
<path d="M76631 77171
L76800 77395
" />
<path d="M76800 77002
L76575 77227
" />
<path d="M77053 77395
L77053 77002
" />
<path d="M77053 76805
L77025 76833
L77053 76861
L77081 76833
L77053 76805
L77053 76861
" />
<path d="M77588 77367
L77531 77395
L77419 77395
L77363 77367
L77334 77339
L77306 77283
L77306 77114
L77334 77058
L77363 77030
L77419 77002
L77531 77002
L77588 77030
" />
<path d="M78094 77395
L78094 77086
L78066 77030
L78009 77002
L77897 77002
L77841 77030
" />
<path d="M78094 77367
L78037 77395
L77897 77395
L77841 77367
L77813 77311
L77813 77255
L77841 77199
L77897 77171
L78037 77171
L78094 77142
" />
<path d="M78628 77395
L78628 76805
" />
<path d="M78628 77367
L78572 77395
L78459 77395
L78403 77367
L78375 77339
L78347 77283
L78347 77114
L78375 77058
L78403 77030
L78459 77002
L78572 77002
L78628 77030
" />
<path d="M79612 77002
L79612 77395
" />
<path d="M79472 76777
L79331 77199
L79697 77199
" />
<path d="M79922 77339
L79950 77367
L79922 77395
L79894 77367
L79922 77339
L79922 77395
" />
<path d="M80315 76805
L80372 76805
L80428 76833
L80456 76861
L80484 76917
L80512 77030
L80512 77171
L80484 77283
L80456 77339
L80428 77367
L80372 77395
L80315 77395
L80259 77367
L80231 77339
L80203 77283
L80175 77171
L80175 77030
L80203 76917
L80231 76861
L80259 76833
L80315 76805
" />
<path d="M80765 77339
L80793 77367
L80765 77395
L80737 77367
L80765 77339
L80765 77395
" />
<path d="M81328 76805
L81046 76805
L81018 77086
L81046 77058
L81103 77030
L81243 77030
L81300 77058
L81328 77086
L81356 77142
L81356 77283
L81328 77339
L81300 77367
L81243 77395
L81103 77395
L81046 77367
L81018 77339
" />
</g>
<g style="fill:#000000; fill-opacity:0.0; 
stroke:#000000; stroke-width:39.3701; stroke-opacity:1; 
stroke-linecap:round; stroke-linejoin:round;">
</g>
<g style="fill:#000000; fill-opacity:0.0; 
stroke:#000000; stroke-width:59.0551; stroke-opacity:1; 
stroke-linecap:round; stroke-linejoin:round;">
<path d="M69685 75396
L112205 75396
" />
</g>
<g style="fill:#000000; fill-opacity:0.0; 
stroke:#000000; stroke-width:39.3701; stroke-opacity:1; 
stroke-linecap:round; stroke-linejoin:round;">
</g>
<g style="fill:#000000; fill-opacity:0.0; 
stroke:#000000; stroke-width:118.11; stroke-opacity:1; 
stroke-linecap:round; stroke-linejoin:round;">
<path d="M104022 76293
L103825 76012
" />
<path d="M103684 76293
L103684 75703
L103909 75703
L103965 75731
L103994 75759
L104022 75815
L104022 75899
L103994 75956
L103965 75984
L103909 76012
L103684 76012
" />
<path d="M104500 76265
L104444 76293
L104331 76293
L104275 76265
L104247 76209
L104247 75984
L104275 75928
L104331 75899
L104444 75899
L104500 75928
L104528 75984
L104528 76040
L104247 76096
" />
<path d="M104725 75899
L104865 76293
L105006 75899
" />
<path d="M105231 76237
L105259 76265
L105231 76293
L105203 76265
L105231 76237
L105231 76293
" />
<path d="M105231 75928
L105259 75956
L105231 75984
L105203 75956
L105231 75928
L105231 75984
" />
</g>
<g style="fill:#000000; fill-opacity:0.0; 
stroke:#000000; stroke-width:39.3701; stroke-opacity:1; 
stroke-linecap:round; stroke-linejoin:round;">
</g>
<g style="fill:#000000; fill-opacity:0.0; 
stroke:#000000; stroke-width:59.0551; stroke-opacity:1; 
stroke-linecap:round; stroke-linejoin:round;">
<path d="M70192 76265
L70276 76293
L70417 76293
L70473 76265
L70501 76237
L70529 76181
L70529 76124
L70501 76068
L70473 76040
L70417 76012
L70304 75984
L70248 75956
L70220 75928
L70192 75871
L70192 75815
L70220 75759
L70248 75731
L70304 75703
L70445 75703
L70529 75731
" />
<path d="M70782 76293
L70782 75899
" />
<path d="M70782 75703
L70754 75731
L70782 75759
L70810 75731
L70782 75703
L70782 75759
" />
<path d="M71007 75899
L71316 75899
L71007 76293
L71316 76293
" />
<path d="M71766 76265
L71710 76293
L71598 76293
L71541 76265
L71513 76209
L71513 75984
L71541 75928
L71598 75899
L71710 75899
L71766 75928
L71795 75984
L71795 76040
L71513 76096
" />
<path d="M72048 76237
L72076 76265
L72048 76293
L72019 76265
L72048 76237
L72048 76293
" />
<path d="M72048 75928
L72076 75956
L72048 75984
L72019 75956
L72048 75928
L72048 75984
" />
<path d="M72751 76124
L73032 76124
" />
<path d="M72694 76293
L72891 75703
L73088 76293
" />
<path d="M73538 75899
L73538 76293
" />
<path d="M73397 75674
L73257 76096
L73622 76096
" />
</g>
<g style="fill:#000000; fill-opacity:0.0; 
stroke:#000000; stroke-width:39.3701; stroke-opacity:1; 
stroke-linecap:round; stroke-linejoin:round;">
</g>
<g style="fill:#000000; fill-opacity:0.0; 
stroke:#000000; stroke-width:59.0551; stroke-opacity:1; 
stroke-linecap:round; stroke-linejoin:round;">
<path d="M103684 77395
L103684 76805
" />
<path d="M104219 77395
L104219 76805
" />
<path d="M104219 77367
L104162 77395
L104050 77395
L103994 77367
L103965 77339
L103937 77283
L103937 77114
L103965 77058
L103994 77030
L104050 77002
L104162 77002
L104219 77030
" />
<path d="M104500 77339
L104528 77367
L104500 77395
L104472 77367
L104500 77339
L104500 77395
" />
<path d="M104500 77030
L104528 77058
L104500 77086
L104472 77058
L104500 77030
L104500 77086
" />
<path d="M105540 77395
L105203 77395
" />
<path d="M105372 77395
L105372 76805
L105315 76889
L105259 76946
L105203 76974
" />
<path d="M106215 76777
L105709 77536
" />
<path d="M106721 77395
L106384 77395
" />
<path d="M106553 77395
L106553 76805
L106496 76889
L106440 76946
L106384 76974
" />
</g>
<g style="fill:#000000; fill-opacity:0.0; 
stroke:#000000; stroke-width:39.3701; stroke-opacity:1; 
stroke-linecap:round; stroke-linejoin:round;">
</g>
<g style="fill:#000000; fill-opacity:0.0; 
stroke:#000000; stroke-width:59.0551; stroke-opacity:1; 
stroke-linecap:round; stroke-linejoin:round;">
<path d="M69685 73821
L112205 73821
" />
</g>
<g style="fill:#000000; fill-opacity:0.0; 
stroke:#000000; stroke-width:39.3701; stroke-opacity:1; 
stroke-linecap:round; stroke-linejoin:round;">
</g>
<g style="fill:#000000; fill-opacity:0.0; 
stroke:#000000; stroke-width:157.48; stroke-opacity:1; 
stroke-linecap:round; stroke-linejoin:round;">
<path d="M70257 74099
L70707 74099
" />
<path d="M70384 74886
L70482 74099
" />
<path d="M70871 74886
L70937 74361
" />
<path d="M70970 74099
L70927 74136
L70960 74174
L71002 74136
L70970 74099
L70960 74174
" />
<path d="M71199 74361
L71499 74361
" />
<path d="M71345 74099
L71260 74774
L71288 74849
L71359 74886
L71434 74886
" />
<path d="M71809 74886
L71738 74849
L71710 74774
L71795 74099
" />
<path d="M72413 74849
L72334 74886
L72184 74886
L72113 74849
L72085 74774
L72123 74474
L72169 74399
L72249 74361
L72399 74361
L72469 74399
L72498 74474
L72488 74549
L72104 74624
" />
<path d="M72793 74811
L72826 74849
L72783 74886
L72751 74849
L72793 74811
L72783 74886
" />
<path d="M72844 74399
L72877 74436
L72835 74474
L72802 74436
L72844 74399
L72835 74474
" />
</g>
<g style="fill:#000000; fill-opacity:0.0; 
stroke:#000000; stroke-width:39.3701; stroke-opacity:1; 
stroke-linecap:round; stroke-linejoin:round;">
</g>
<g style="fill:#000000; fill-opacity:0.0; 
stroke:#000000; stroke-width:59.0551; stroke-opacity:1; 
stroke-linecap:round; stroke-linejoin:round;">
<path d="M70417 73070
L70220 73070
" />
<path d="M70220 73380
L70220 72789
L70501 72789
" />
<path d="M70726 73380
L70726 72986
" />
<path d="M70726 72789
L70698 72817
L70726 72845
L70754 72817
L70726 72789
L70726 72845
" />
<path d="M71091 73380
L71035 73352
L71007 73295
L71007 72789
" />
<path d="M71541 73352
L71485 73380
L71373 73380
L71316 73352
L71288 73295
L71288 73070
L71316 73014
L71373 72986
L71485 72986
L71541 73014
L71570 73070
L71570 73127
L71288 73183
" />
<path d="M71823 73323
L71851 73352
L71823 73380
L71795 73352
L71823 73323
L71823 73380
" />
<path d="M71823 73014
L71851 73042
L71823 73070
L71795 73042
L71823 73014
L71823 73070
" />
<path d="M72554 73380
L72554 72789
" />
<path d="M72891 73380
L72638 73042
" />
<path d="M72891 72789
L72554 73127
" />
<path d="M73144 73380
L73144 72986
" />
<path d="M73144 72789
L73116 72817
L73144 72845
L73172 72817
L73144 72789
L73144 72845
" />
<path d="M73679 73352
L73622 73380
L73510 73380
L73454 73352
L73426 73323
L73397 73267
L73397 73099
L73426 73042
L73454 73014
L73510 72986
L73622 72986
L73679 73014
" />
<path d="M74185 73380
L74185 73070
L74157 73014
L74100 72986
L73988 72986
L73932 73014
" />
<path d="M74185 73352
L74129 73380
L73988 73380
L73932 73352
L73904 73295
L73904 73239
L73932 73183
L73988 73155
L74129 73155
L74185 73127
" />
<path d="M74719 73380
L74719 72789
" />
<path d="M74719 73352
L74663 73380
L74550 73380
L74494 73352
L74466 73323
L74438 73267
L74438 73099
L74466 73042
L74494 73014
L74550 72986
L74663 72986
L74719 73014
" />
<path d="M75000 73323
L75028 73352
L75000 73380
L74972 73352
L75000 73323
L75000 73380
" />
<path d="M75282 73380
L75282 72789
" />
<path d="M75338 73155
L75507 73380
" />
<path d="M75507 72986
L75282 73211
" />
<path d="M75760 73380
L75760 72986
" />
<path d="M75760 72789
L75732 72817
L75760 72845
L75788 72817
L75760 72789
L75760 72845
" />
<path d="M76294 73352
L76238 73380
L76125 73380
L76069 73352
L76041 73323
L76013 73267
L76013 73099
L76041 73042
L76069 73014
L76125 72986
L76238 72986
L76294 73014
" />
<path d="M76800 73380
L76800 73070
L76772 73014
L76716 72986
L76603 72986
L76547 73014
" />
<path d="M76800 73352
L76744 73380
L76603 73380
L76547 73352
L76519 73295
L76519 73239
L76547 73183
L76603 73155
L76744 73155
L76800 73127
" />
<path d="M77334 73380
L77334 72789
" />
<path d="M77334 73352
L77278 73380
L77166 73380
L77109 73352
L77081 73323
L77053 73267
L77053 73099
L77081 73042
L77109 73014
L77166 72986
L77278 72986
L77334 73014
" />
<path d="M77475 73436
L77925 73436
" />
<path d="M78066 72986
L78066 73577
" />
<path d="M78066 73014
L78122 72986
L78234 72986
L78291 73014
L78319 73042
L78347 73099
L78347 73267
L78319 73323
L78291 73352
L78234 73380
L78122 73380
L78066 73352
" />
<path d="M78853 73352
L78797 73380
L78684 73380
L78628 73352
L78600 73323
L78572 73267
L78572 73099
L78600 73042
L78628 73014
L78684 72986
L78797 72986
L78853 73014
" />
<path d="M79106 73380
L79106 72789
" />
<path d="M79106 73014
L79162 72986
L79275 72986
L79331 73014
L79359 73042
L79387 73099
L79387 73267
L79359 73323
L79331 73352
L79275 73380
L79162 73380
L79106 73352
" />
</g>
<g style="fill:#000000; fill-opacity:0.0; 
stroke:#000000; stroke-width:39.3701; stroke-opacity:1; 
stroke-linecap:round; stroke-linejoin:round;">
</g>
<g style="fill:#000000; fill-opacity:0.0; 
stroke:#000000; stroke-width:59.0551; stroke-opacity:1; 
stroke-linecap:round; stroke-linejoin:round;">
<path d="M69685 71459
L112205 71459
" />
</g>
<g style="fill:#000000; fill-opacity:0.0; 
stroke:#000000; stroke-width:39.3701; stroke-opacity:1; 
stroke-linecap:round; stroke-linejoin:round;">
</g>
<g style="fill:#000000; fill-opacity:0.0; 
stroke:#000000; stroke-width:59.0551; stroke-opacity:1; 
stroke-linecap:round; stroke-linejoin:round;">
<path d="M70192 72289
L70276 72317
L70417 72317
L70473 72289
L70501 72260
L70529 72204
L70529 72148
L70501 72092
L70473 72064
L70417 72036
L70304 72007
L70248 71979
L70220 71951
L70192 71895
L70192 71839
L70220 71782
L70248 71754
L70304 71726
L70445 71726
L70529 71754
" />
<path d="M70782 72317
L70782 71726
" />
<path d="M71035 72317
L71035 72007
L71007 71951
L70951 71923
L70867 71923
L70810 71951
L70782 71979
" />
<path d="M71541 72289
L71485 72317
L71373 72317
L71316 72289
L71288 72232
L71288 72007
L71316 71951
L71373 71923
L71485 71923
L71541 71951
L71570 72007
L71570 72064
L71288 72120
" />
<path d="M72048 72289
L71991 72317
L71879 72317
L71823 72289
L71795 72232
L71795 72007
L71823 71951
L71879 71923
L71991 71923
L72048 71951
L72076 72007
L72076 72064
L71795 72120
" />
<path d="M72244 71923
L72469 71923
" />
<path d="M72329 71726
L72329 72232
L72357 72289
L72413 72317
L72469 72317
" />
<path d="M72666 72260
L72694 72289
L72666 72317
L72638 72289
L72666 72260
L72666 72317
" />
<path d="M72666 71951
L72694 71979
L72666 72007
L72638 71979
L72666 71951
L72666 72007
" />
</g>
<g style="fill:#000000; fill-opacity:0.0; 
stroke:#000000; stroke-width:39.3701; stroke-opacity:1; 
stroke-linecap:round; stroke-linejoin:round;">
</g>
<g style="fill:#000000; fill-opacity:0.0; 
stroke:#000000; stroke-width:59.0551; stroke-opacity:1; 
stroke-linecap:round; stroke-linejoin:round;">
<path d="M77559 75396
L77559 76577
" />
</g>
<g style="fill:#000000; fill-opacity:0.0; 
stroke:#000000; stroke-width:39.3701; stroke-opacity:1; 
stroke-linecap:round; stroke-linejoin:round;">
</g>
<g style="fill:#000000; fill-opacity:0.0; 
stroke:#000000; stroke-width:59.0551; stroke-opacity:1; 
stroke-linecap:round; stroke-linejoin:round;">
<path d="M102756 75396
L102756 77955
" />
</g>
<g style="fill:#008484; fill-opacity:0.0; 
stroke:#008484; stroke-width:59.0551; stroke-opacity:1; 
stroke-linecap:round; stroke-linejoin:round;">
<path d="M80378 31137
L80378 31362
" />
<path d="M80378 31250
L79984 31250
L80040 31287
L80078 31324
L80096 31362
" />
</g>
<g style="fill:#C2C200; fill-opacity:0.0; 
stroke:#C2C200; stroke-width:59.0551; stroke-opacity:1; 
stroke-linecap:round; stroke-linejoin:round;">
<path d="M95200 12850
L94600 12250
" />
<path d="M95200 17350
L95200 12850
" />
<path d="M96200 18350
L95200 17350
" />
<path d="M96200 31250
L96200 18350
" />
<path d="M95200 32250
L96200 31250
" />
<path d="M95200 33250
L95200 32250
" />
<path d="M69200 33250
L95200 33250
" />
<path d="M69200 12250
L69200 33250
" />
<path d="M94600 12250
L69200 12250
" />
<path d="M83409 31428
L83409 31034
L83559 31034
L83596 31053
L83615 31071
L83634 31109
L83634 31165
L83615 31203
L83596 31221
L83559 31240
L83409 31240
" />
<path d="M84009 31428
L83784 31428
" />
<path d="M83896 31428
L83896 31034
L83859 31090
L83821 31128
L83784 31146
" />
<path d="M91509 31428
L91509 31034
L91659 31034
L91696 31053
L91715 31071
L91734 31109
L91734 31165
L91715 31203
L91696 31221
L91659 31240
L91509 31240
" />
<path d="M91884 31071
L91903 31053
L91940 31034
L92034 31034
L92071 31053
L92090 31071
L92109 31109
L92109 31146
L92090 31203
L91865 31428
L92109 31428
" />
<path d="M80809 14528
L80809 14134
L80959 14134
L80996 14153
L81015 14171
L81034 14209
L81034 14265
L81015 14303
L80996 14321
L80959 14340
L80809 14340
" />
<path d="M81165 14134
L81409 14134
L81278 14284
L81334 14284
L81371 14303
L81390 14321
L81409 14359
L81409 14453
L81390 14490
L81371 14509
L81334 14528
L81221 14528
L81184 14509
L81165 14490
" />
<path d="M90409 14528
L90409 14134
L90559 14134
L90596 14153
L90615 14171
L90634 14209
L90634 14265
L90615 14303
L90596 14321
L90559 14340
L90409 14340
" />
<path d="M90971 14265
L90971 14528
" />
<path d="M90878 14115
L90784 14396
L91028 14396
" />
</g>
<g style="fill:#008484; fill-opacity:0.0; 
stroke:#008484; stroke-width:59.0551; stroke-opacity:1; 
stroke-linecap:round; stroke-linejoin:round;">
</g>
<g style="fill:#008484; fill-opacity:0.0; 
stroke:#008484; stroke-width:40; stroke-opacity:1; 
stroke-linecap:round; stroke-linejoin:round;">
<path d="M75083 18241
L75333 18241
L75383 18258
L75416 18291
L75433 18341
L75433 18375
" />
<path d="M75433 17891
L75433 18091
" />
<path d="M75433 17991
L75083 17991
L75133 18025
L75166 18058
L75183 18091
" />
<path d="M77183 24491
L76833 24491
L76833 24408
L76850 24358
L76883 24325
L76916 24308
L76983 24291
L77033 24291
L77100 24308
L77133 24325
L77166 24358
L77183 24408
L77183 24491
" />
<path d="M77183 24141
L76833 24141
" />
<path d="M77183 23975
L76833 23975
L76833 23841
L76850 23808
L76866 23791
L76900 23775
L76950 23775
L76983 23791
L77000 23808
L77016 23841
L77016 23975
" />
<path d="M77050 23625
L77050 23358
" />
<path d="M77000 23075
L77016 23025
L77033 23008
L77066 22991
L77116 22991
L77150 23008
L77166 23025
L77183 23058
L77183 23191
L76833 23191
L76833 23075
L76850 23041
L76866 23025
L76900 23008
L76933 23008
L76966 23025
L76983 23041
L77000 23075
L77000 23191
" />
<path d="M77183 22675
L77183 22841
L76833 22841
" />
<path d="M77083 22575
L77083 22408
" />
<path d="M77183 22608
L76833 22491
L77183 22375
" />
<path d="M77150 22058
L77166 22075
L77183 22125
L77183 22158
L77166 22208
L77133 22241
L77100 22258
L77033 22275
L76983 22275
L76916 22258
L76883 22241
L76850 22208
L76833 22158
L76833 22125
L76850 22075
L76866 22058
" />
<path d="M77183 21908
L76833 21908
" />
<path d="M77183 21708
L76983 21858
" />
<path d="M76833 21708
L77033 21908
" />
<path d="M77050 21558
L77050 21291
" />
<path d="M77000 21008
L77000 21124
" />
<path d="M77183 21124
L76833 21124
L76833 20958
" />
<path d="M77000 20824
L77000 20708
" />
<path d="M77183 20658
L77183 20824
L76833 20824
L76833 20658
" />
<path d="M77183 20508
L76833 20508
L77083 20391
L76833 20275
L77183 20275
" />
<path d="M77083 20125
L77083 19958
" />
<path d="M77183 20158
L76833 20041
L77183 19925
" />
<path d="M77183 19641
L77183 19808
L76833 19808
" />
<path d="M77000 19524
L77000 19408
" />
<path d="M77183 19358
L77183 19524
L76833 19524
L76833 19358
" />
<path d="M77050 19208
L77050 18941
" />
<path d="M77183 18774
L76833 18774
" />
<path d="M77000 18774
L77000 18574
" />
<path d="M77183 18574
L76833 18574
" />
<path d="M77000 18408
L77000 18291
" />
<path d="M77183 18241
L77183 18408
L76833 18408
L76833 18241
" />
<path d="M77083 18108
L77083 17941
" />
<path d="M77183 18141
L76833 18025
L77183 17908
" />
<path d="M77183 17791
L76833 17791
L76833 17708
L76850 17658
L76883 17625
L76916 17608
L76983 17591
L77033 17591
L77100 17608
L77133 17625
L77166 17658
L77183 17708
L77183 17791
" />
<path d="M77000 17441
L77000 17325
" />
<path d="M77183 17275
L77183 17441
L76833 17441
L76833 17275
" />
<path d="M77183 16925
L77016 17041
" />
<path d="M77183 17125
L76833 17125
L76833 16991
L76850 16958
L76866 16941
L76900 16925
L76950 16925
L76983 16941
L77000 16958
L77016 16991
L77016 17125
" />
<path d="M77050 16775
L77050 16508
" />
<path d="M76833 16391
L77183 16275
L76833 16158
" />
<path d="M77000 16041
L77000 15925
" />
<path d="M77183 15875
L77183 16041
L76833 16041
L76833 15875
" />
<path d="M77183 15525
L77016 15641
" />
<path d="M77183 15725
L76833 15725
L76833 15591
L76850 15558
L76866 15541
L76900 15525
L76950 15525
L76983 15541
L77000 15558
L77016 15591
L77016 15725
" />
<path d="M76833 15425
L76833 15225
" />
<path d="M77183 15325
L76833 15325
" />
<path d="M77216 15191
L77216 14925
" />
<path d="M76950 14691
L77183 14691
" />
<path d="M76816 14775
L77066 14858
L77066 14641
" />
<path d="M77183 14508
L76833 14508
L76833 14375
L76850 14341
L76866 14325
L76900 14308
L76950 14308
L76983 14325
L77000 14341
L77016 14375
L77016 14508
" />
<path d="M77050 14158
L77050 13891
" />
<path d="M76866 13741
L76850 13725
L76833 13691
L76833 13608
L76850 13575
L76866 13558
L76900 13541
L76933 13541
L76983 13558
L77183 13758
L77183 13541
" />
<path d="M77150 13391
L77166 13375
L77183 13391
L77166 13408
L77150 13391
L77183 13391
" />
<path d="M76833 13058
L76833 13225
L77000 13241
L76983 13225
L76966 13191
L76966 13108
L76983 13075
L77000 13058
L77033 13041
L77116 13041
L77150 13058
L77166 13075
L77183 13108
L77183 13191
L77166 13225
L77150 13241
" />
<path d="M76950 12741
L77183 12741
" />
<path d="M76816 12825
L77066 12908
L77066 12691
" />
<path d="M77216 12641
L77216 12375
" />
<path d="M77183 12091
L77016 12208
" />
<path d="M77183 12291
L76833 12291
L76833 12158
L76850 12125
L76866 12108
L76900 12091
L76950 12091
L76983 12108
L77000 12125
L77016 12158
L77016 12291
" />
<path d="M76850 11758
L76833 11791
L76833 11841
L76850 11891
L76883 11925
L76916 11941
L76983 11958
L77033 11958
L77100 11941
L77133 11925
L77166 11891
L77183 11841
L77183 11808
L77166 11758
L77150 11741
L77033 11741
L77033 11808
" />
<path d="M77000 11475
L77016 11425
L77033 11408
L77066 11391
L77116 11391
L77150 11408
L77166 11425
L77183 11458
L77183 11591
L76833 11591
L76833 11475
L76850 11441
L76866 11425
L76900 11408
L76933 11408
L76966 11425
L76983 11441
L77000 11475
L77000 11591
" />
<path d="M81083 18241
L81333 18241
L81383 18258
L81416 18291
L81433 18341
L81433 18375
" />
<path d="M81116 18091
L81100 18075
L81083 18041
L81083 17958
L81100 17925
L81116 17908
L81150 17891
L81183 17891
L81233 17908
L81433 18108
L81433 17891
" />
<path d="M83183 24583
L82833 24583
L82833 24500
L82850 24450
L82883 24416
L82916 24400
L82983 24383
L83033 24383
L83100 24400
L83133 24416
L83166 24450
L83183 24500
L83183 24583
" />
<path d="M83183 24233
L82833 24233
" />
<path d="M83183 24066
L82833 24066
L82833 23933
L82850 23900
L82866 23883
L82900 23866
L82950 23866
L82983 23883
L83000 23900
L83016 23933
L83016 24066
" />
<path d="M83050 23716
L83050 23450
" />
<path d="M83000 23166
L83016 23116
L83033 23100
L83066 23083
L83116 23083
L83150 23100
L83166 23116
L83183 23150
L83183 23283
L82833 23283
L82833 23166
L82850 23133
L82866 23116
L82900 23100
L82933 23100
L82966 23116
L82983 23133
L83000 23166
L83000 23283
" />
<path d="M83183 22766
L83183 22933
L82833 22933
" />
<path d="M83083 22666
L83083 22500
" />
<path d="M83183 22700
L82833 22583
L83183 22466
" />
<path d="M83150 22150
L83166 22166
L83183 22216
L83183 22250
L83166 22300
L83133 22333
L83100 22350
L83033 22366
L82983 22366
L82916 22350
L82883 22333
L82850 22300
L82833 22250
L82833 22216
L82850 22166
L82866 22150
" />
<path d="M83183 22000
L82833 22000
" />
<path d="M83183 21800
L82983 21950
" />
<path d="M82833 21800
L83033 22000
" />
<path d="M83050 21650
L83050 21383
" />
<path d="M83000 21100
L83000 21216
" />
<path d="M83183 21216
L82833 21216
L82833 21050
" />
<path d="M83000 20916
L83000 20800
" />
<path d="M83183 20750
L83183 20916
L82833 20916
L82833 20750
" />
<path d="M83183 20600
L82833 20600
L83083 20483
L82833 20366
L83183 20366
" />
<path d="M83083 20216
L83083 20050
" />
<path d="M83183 20250
L82833 20133
L83183 20016
" />
<path d="M83183 19733
L83183 19900
L82833 19900
" />
<path d="M83000 19616
L83000 19500
" />
<path d="M83183 19450
L83183 19616
L82833 19616
L82833 19450
" />
<path d="M83050 19300
L83050 19033
" />
<path d="M83183 18866
L82833 18866
" />
<path d="M83000 18866
L83000 18666
" />
<path d="M83183 18666
L82833 18666
" />
<path d="M83000 18500
L83000 18383
" />
<path d="M83183 18333
L83183 18500
L82833 18500
L82833 18333
" />
<path d="M83083 18200
L83083 18033
" />
<path d="M83183 18233
L82833 18116
L83183 18000
" />
<path d="M83183 17883
L82833 17883
L82833 17800
L82850 17750
L82883 17716
L82916 17700
L82983 17683
L83033 17683
L83100 17700
L83133 17716
L83166 17750
L83183 17800
L83183 17883
" />
<path d="M83000 17533
L83000 17416
" />
<path d="M83183 17366
L83183 17533
L82833 17533
L82833 17366
" />
<path d="M83183 17016
L83016 17133
" />
<path d="M83183 17216
L82833 17216
L82833 17083
L82850 17050
L82866 17033
L82900 17016
L82950 17016
L82983 17033
L83000 17050
L83016 17083
L83016 17216
" />
<path d="M83050 16866
L83050 16600
" />
<path d="M82833 16483
L83183 16366
L82833 16250
" />
<path d="M83000 16133
L83000 16016
" />
<path d="M83183 15966
L83183 16133
L82833 16133
L82833 15966
" />
<path d="M83183 15616
L83016 15733
" />
<path d="M83183 15816
L82833 15816
L82833 15683
L82850 15650
L82866 15633
L82900 15616
L82950 15616
L82983 15633
L83000 15650
L83016 15683
L83016 15816
" />
<path d="M82833 15516
L82833 15316
" />
<path d="M83183 15416
L82833 15416
" />
<path d="M83216 15283
L83216 15016
" />
<path d="M82950 14783
L83183 14783
" />
<path d="M82816 14866
L83066 14950
L83066 14733
" />
<path d="M83183 14600
L82833 14600
L82833 14466
L82850 14433
L82866 14416
L82900 14400
L82950 14400
L82983 14416
L83000 14433
L83016 14466
L83016 14600
" />
<path d="M83050 14250
L83050 13983
" />
<path d="M82866 13833
L82850 13816
L82833 13783
L82833 13700
L82850 13666
L82866 13650
L82900 13633
L82933 13633
L82983 13650
L83183 13850
L83183 13633
" />
<path d="M83150 13483
L83166 13466
L83183 13483
L83166 13500
L83150 13483
L83183 13483
" />
<path d="M82833 13150
L82833 13316
L83000 13333
L82983 13316
L82966 13283
L82966 13200
L82983 13166
L83000 13150
L83033 13133
L83116 13133
L83150 13150
L83166 13166
L83183 13200
L83183 13283
L83166 13316
L83150 13333
" />
<path d="M82950 12833
L83183 12833
" />
<path d="M82816 12916
L83066 13000
L83066 12783
" />
<path d="M83216 12733
L83216 12466
" />
<path d="M83183 12216
L83183 12383
L82833 12383
" />
<path d="M83183 11916
L83183 12116
" />
<path d="M83183 12016
L82833 12016
L82883 12050
L82916 12083
L82933 12116
" />
<path d="M83183 11600
L83183 11766
L82833 11766
" />
<path d="M82866 11500
L82850 11483
L82833 11450
L82833 11366
L82850 11333
L82866 11316
L82900 11300
L82933 11300
L82983 11316
L83183 11516
L83183 11300
" />
<path d="M91400 23866
L91416 23883
L91433 23933
L91433 23966
L91416 24016
L91383 24050
L91350 24066
L91283 24083
L91233 24083
L91166 24066
L91133 24050
L91100 24016
L91083 23966
L91083 23933
L91100 23883
L91116 23866
" />
<path d="M91433 23716
L91083 23716
L91433 23516
L91083 23516
" />
<path d="M91433 23166
L91433 23366
" />
<path d="M91433 23266
L91083 23266
L91133 23300
L91166 23333
L91183 23366
" />
<path d="M93183 29466
L92833 29466
L92833 29383
L92850 29333
L92883 29300
L92916 29283
L92983 29266
L93033 29266
L93100 29283
L93133 29300
L93166 29333
L93183 29383
L93183 29466
" />
<path d="M93183 29116
L92833 29116
" />
<path d="M93183 28950
L92833 28950
L92833 28816
L92850 28783
L92866 28766
L92900 28750
L92950 28750
L92983 28766
L93000 28783
L93016 28816
L93016 28950
" />
<path d="M93050 28600
L93050 28333
" />
<path d="M93000 28050
L93016 28000
L93033 27983
L93066 27966
L93116 27966
L93150 27983
L93166 28000
L93183 28033
L93183 28166
L92833 28166
L92833 28050
L92850 28016
L92866 28000
L92900 27983
L92933 27983
L92966 28000
L92983 28016
L93000 28050
L93000 28166
" />
<path d="M93183 27650
L93183 27816
L92833 27816
" />
<path d="M93083 27550
L93083 27383
" />
<path d="M93183 27583
L92833 27466
L93183 27350
" />
<path d="M93150 27033
L93166 27050
L93183 27100
L93183 27133
L93166 27183
L93133 27216
L93100 27233
L93033 27250
L92983 27250
L92916 27233
L92883 27216
L92850 27183
L92833 27133
L92833 27100
L92850 27050
L92866 27033
" />
<path d="M93183 26883
L92833 26883
" />
<path d="M93183 26683
L92983 26833
" />
<path d="M92833 26683
L93033 26883
" />
<path d="M93050 26533
L93050 26266
" />
<path d="M93000 25983
L93000 26099
" />
<path d="M93183 26099
L92833 26099
L92833 25933
" />
<path d="M93000 25799
L93000 25683
" />
<path d="M93183 25633
L93183 25799
L92833 25799
L92833 25633
" />
<path d="M93183 25483
L92833 25483
L93083 25366
L92833 25250
L93183 25250
" />
<path d="M93083 25100
L93083 24933
" />
<path d="M93183 25133
L92833 25016
L93183 24900
" />
<path d="M93183 24616
L93183 24783
L92833 24783
" />
<path d="M93000 24499
L93000 24383
" />
<path d="M93183 24333
L93183 24499
L92833 24499
L92833 24333
" />
<path d="M93050 24183
L93050 23916
" />
<path d="M93183 23749
L92833 23749
" />
<path d="M93000 23749
L93000 23549
" />
<path d="M93183 23549
L92833 23549
" />
<path d="M93000 23383
L93000 23266
" />
<path d="M93183 23216
L93183 23383
L92833 23383
L92833 23216
" />
<path d="M93083 23083
L93083 22916
" />
<path d="M93183 23116
L92833 23000
L93183 22883
" />
<path d="M93183 22766
L92833 22766
L92833 22683
L92850 22633
L92883 22600
L92916 22583
L92983 22566
L93033 22566
L93100 22583
L93133 22600
L93166 22633
L93183 22683
L93183 22766
" />
<path d="M93000 22416
L93000 22300
" />
<path d="M93183 22250
L93183 22416
L92833 22416
L92833 22250
" />
<path d="M93183 21900
L93016 22016
" />
<path d="M93183 22100
L92833 22100
L92833 21966
L92850 21933
L92866 21916
L92900 21900
L92950 21900
L92983 21916
L93000 21933
L93016 21966
L93016 22100
" />
<path d="M93050 21750
L93050 21483
" />
<path d="M92833 21366
L93183 21250
L92833 21133
" />
<path d="M93000 21016
L93000 20900
" />
<path d="M93183 20850
L93183 21016
L92833 21016
L92833 20850
" />
<path d="M93183 20500
L93016 20616
" />
<path d="M93183 20700
L92833 20700
L92833 20566
L92850 20533
L92866 20516
L92900 20500
L92950 20500
L92983 20516
L93000 20533
L93016 20566
L93016 20700
" />
<path d="M92833 20400
L92833 20200
" />
<path d="M93183 20300
L92833 20300
" />
<path d="M93216 20166
L93216 19900
" />
<path d="M92833 19666
L92833 19733
L92850 19766
L92866 19783
L92916 19816
L92983 19833
L93116 19833
L93150 19816
L93166 19800
L93183 19766
L93183 19700
L93166 19666
L93150 19650
L93116 19633
L93033 19633
L93000 19650
L92983 19666
L92966 19700
L92966 19766
L92983 19800
L93000 19816
L93033 19833
" />
<path d="M93183 19483
L92833 19483
L92833 19350
L92850 19316
L92866 19300
L92900 19283
L92950 19283
L92983 19300
L93000 19316
L93016 19350
L93016 19483
" />
<path d="M93050 19133
L93050 18866
" />
<path d="M92866 18716
L92850 18700
L92833 18666
L92833 18583
L92850 18550
L92866 18533
L92900 18516
L92933 18516
L92983 18533
L93183 18733
L93183 18516
" />
<path d="M93150 18366
L93166 18350
L93183 18366
L93166 18383
L93150 18366
L93183 18366
" />
<path d="M92833 18033
L92833 18200
L93000 18216
L92983 18200
L92966 18166
L92966 18083
L92983 18050
L93000 18033
L93033 18016
L93116 18016
L93150 18033
L93166 18050
L93183 18083
L93183 18166
L93166 18200
L93150 18216
" />
<path d="M92950 17716
L93183 17716
" />
<path d="M92816 17800
L93066 17883
L93066 17666
" />
<path d="M93216 17616
L93216 17350
" />
<path d="M86583 18241
L86833 18241
L86883 18258
L86916 18291
L86933 18341
L86933 18375
" />
<path d="M86583 18108
L86583 17891
L86716 18008
L86716 17958
L86733 17925
L86750 17908
L86783 17891
L86866 17891
L86900 17908
L86916 17925
L86933 17958
L86933 18058
L86916 18091
L86900 18108
" />
<path d="M88683 23833
L88333 23833
L88333 23750
L88350 23700
L88383 23666
L88416 23650
L88483 23633
L88533 23633
L88600 23650
L88633 23666
L88666 23700
L88683 23750
L88683 23833
" />
<path d="M88683 23483
L88333 23483
" />
<path d="M88683 23316
L88333 23316
L88333 23183
L88350 23150
L88366 23133
L88400 23116
L88450 23116
L88483 23133
L88500 23150
L88516 23183
L88516 23316
" />
<path d="M88550 22966
L88550 22700
" />
<path d="M88500 22416
L88516 22366
L88533 22350
L88566 22333
L88616 22333
L88650 22350
L88666 22366
L88683 22400
L88683 22533
L88333 22533
L88333 22416
L88350 22383
L88366 22366
L88400 22350
L88433 22350
L88466 22366
L88483 22383
L88500 22416
L88500 22533
" />
<path d="M88683 22016
L88683 22183
L88333 22183
" />
<path d="M88583 21916
L88583 21749
" />
<path d="M88683 21949
L88333 21833
L88683 21716
" />
<path d="M88650 21399
L88666 21416
L88683 21466
L88683 21499
L88666 21549
L88633 21583
L88600 21599
L88533 21616
L88483 21616
L88416 21599
L88383 21583
L88350 21549
L88333 21499
L88333 21466
L88350 21416
L88366 21399
" />
<path d="M88683 21249
L88333 21249
" />
<path d="M88683 21049
L88483 21199
" />
<path d="M88333 21049
L88533 21249
" />
<path d="M88550 20899
L88550 20633
" />
<path d="M88500 20349
L88500 20466
" />
<path d="M88683 20466
L88333 20466
L88333 20299
" />
<path d="M88500 20166
L88500 20049
" />
<path d="M88683 19999
L88683 20166
L88333 20166
L88333 19999
" />
<path d="M88683 19849
L88333 19849
L88583 19733
L88333 19616
L88683 19616
" />
<path d="M88583 19466
L88583 19299
" />
<path d="M88683 19499
L88333 19383
L88683 19266
" />
<path d="M88683 18983
L88683 19149
L88333 19149
" />
<path d="M88500 18866
L88500 18749
" />
<path d="M88683 18699
L88683 18866
L88333 18866
L88333 18699
" />
<path d="M88550 18549
L88550 18283
" />
<path d="M88683 18116
L88333 18116
" />
<path d="M88500 18116
L88500 17916
" />
<path d="M88683 17916
L88333 17916
" />
<path d="M88500 17749
L88500 17633
" />
<path d="M88683 17583
L88683 17749
L88333 17749
L88333 17583
" />
<path d="M88583 17450
L88583 17283
" />
<path d="M88683 17483
L88333 17366
L88683 17250
" />
<path d="M88683 17133
L88333 17133
L88333 17050
L88350 17000
L88383 16966
L88416 16950
L88483 16933
L88533 16933
L88600 16950
L88633 16966
L88666 17000
L88683 17050
L88683 17133
" />
<path d="M88500 16783
L88500 16666
" />
<path d="M88683 16616
L88683 16783
L88333 16783
L88333 16616
" />
<path d="M88683 16266
L88516 16383
" />
<path d="M88683 16466
L88333 16466
L88333 16333
L88350 16300
L88366 16283
L88400 16266
L88450 16266
L88483 16283
L88500 16300
L88516 16333
L88516 16466
" />
<path d="M88550 16116
L88550 15850
" />
<path d="M88333 15733
L88683 15616
L88333 15500
" />
<path d="M88500 15383
L88500 15266
" />
<path d="M88683 15216
L88683 15383
L88333 15383
L88333 15216
" />
<path d="M88683 14866
L88516 14983
" />
<path d="M88683 15066
L88333 15066
L88333 14933
L88350 14900
L88366 14883
L88400 14866
L88450 14866
L88483 14883
L88500 14900
L88516 14933
L88516 15066
" />
<path d="M88333 14766
L88333 14566
" />
<path d="M88683 14666
L88333 14666
" />
<path d="M88716 14533
L88716 14266
" />
<path d="M88450 14033
L88683 14033
" />
<path d="M88316 14116
L88566 14200
L88566 13983
" />
<path d="M88683 13850
L88333 13850
L88333 13716
L88350 13683
L88366 13666
L88400 13650
L88450 13650
L88483 13666
L88500 13683
L88516 13716
L88516 13850
" />
<path d="M88550 13500
L88550 13233
" />
<path d="M88366 13083
L88350 13066
L88333 13033
L88333 12950
L88350 12916
L88366 12900
L88400 12883
L88433 12883
L88483 12900
L88683 13100
L88683 12883
" />
<path d="M88650 12733
L88666 12716
L88683 12733
L88666 12750
L88650 12733
L88683 12733
" />
<path d="M88333 12400
L88333 12566
L88500 12583
L88483 12566
L88466 12533
L88466 12450
L88483 12416
L88500 12400
L88533 12383
L88616 12383
L88650 12400
L88666 12416
L88683 12450
L88683 12533
L88666 12566
L88650 12583
" />
<path d="M88450 12083
L88683 12083
" />
<path d="M88316 12166
L88566 12250
L88566 12033
" />
</g>
<g style="fill:#008484; fill-opacity:0.0; 
stroke:#008484; stroke-width:59.0551; stroke-opacity:1; 
stroke-linecap:round; stroke-linejoin:round;">
<path d="M80700 32750
L87700 32750
" />
<path d="M87700 32750
L87700 31750
" />
<path d="M87700 31750
L80700 31750
" />
<path d="M79589 32860
L80200 32860
" />
<path d="M80700 32750
L80700 31750
" />
<path d="M80200 31639
L79589 31639
" />
<path d="M79589 31639
L79589 32860
" />
<path d="M89700 32750
L94700 32750
" />
<path d="M94700 32750
L94700 31750
" />
<path d="M94700 31750
L89700 31750
" />
<path d="M88589 32860
L89200 32860
" />
<path d="M89700 32750
L89700 31750
" />
<path d="M89200 31639
L88589 31639
" />
<path d="M88589 31639
L88589 32860
" />
<path d="M77100 13750
L86100 13750
" />
<path d="M86100 13750
L86100 12750
" />
<path d="M86100 12750
L77100 12750
" />
<path d="M75989 13860
L76600 13860
" />
<path d="M77100 13750
L77100 12750
" />
<path d="M76600 12639
L75989 12639
" />
<path d="M75989 12639
L75989 13860
" />
<path d="M87700 13750
L94700 13750
" />
<path d="M94700 13750
L94700 12750
" />
<path d="M94700 12750
L87700 12750
" />
<path d="M86589 13860
L87200 13860
" />
<path d="M87700 13750
L87700 12750
" />
<path d="M87200 12639
L86589 12639
" />
<path d="M86589 12639
L86589 13860
" />
<circle cx="74700" cy="32250" r="900" /> 
<circle cx="95200" cy="30250" r="900" /> 
<circle cx="75200" cy="13250" r="900" /> 
<circle cx="95200" cy="19250" r="900" /> 
</g>
<g style="fill:#008484; fill-opacity:0.0; 
stroke:#008484; stroke-width:26; stroke-opacity:1; 
stroke-linecap:round; stroke-linejoin:round;">
<path d="M75700 20250
L76700 20250
" />
<path d="M76700 20250
L76700 16250
" />
<path d="M75700 16250
L76700 16250
" />
<path d="M75700 20250
L75700 16250
" />
</g>
<g style="fill:#008484; fill-opacity:0.0; 
stroke:#008484; stroke-width:50; stroke-opacity:1; 
stroke-linecap:round; stroke-linejoin:round;">
<path d="M75700 16250
L76700 16250
" />
<path d="M76700 16250
L76700 20250
" />
<path d="M76700 20250
L75700 20250
" />
<path d="M75700 20250
L75700 16250
" />
</g>
<g style="fill:#008484; fill-opacity:0.0; 
stroke:#008484; stroke-width:0; stroke-opacity:1; 
stroke-linecap:round; stroke-linejoin:round;">
<path d="M75700 16250
L76700 16250
" />
<path d="M76700 16250
L76700 20250
" />
<path d="M76700 20250
L75700 20250
" />
<path d="M75700 20250
L75700 16250
" />
</g>
<g style="fill:#008484; fill-opacity:0.0; 
stroke:#008484; stroke-width:26; stroke-opacity:1; 
stroke-linecap:round; stroke-linejoin:round;">
<path d="M81700 20250
L82700 20250
" />
<path d="M82700 20250
L82700 16250
" />
<path d="M81700 16250
L82700 16250
" />
<path d="M81700 20250
L81700 16250
" />
</g>
<g style="fill:#008484; fill-opacity:0.0; 
stroke:#008484; stroke-width:50; stroke-opacity:1; 
stroke-linecap:round; stroke-linejoin:round;">
<path d="M81700 16250
L82700 16250
" />
<path d="M82700 16250
L82700 20250
" />
<path d="M82700 20250
L81700 20250
" />
<path d="M81700 20250
L81700 16250
" />
</g>
<g style="fill:#008484; fill-opacity:0.0; 
stroke:#008484; stroke-width:0; stroke-opacity:1; 
stroke-linecap:round; stroke-linejoin:round;">
<path d="M81700 16250
L82700 16250
" />
<path d="M82700 16250
L82700 20250
" />
<path d="M82700 20250
L81700 20250
" />
<path d="M81700 20250
L81700 16250
" />
</g>
<g style="fill:#008484; fill-opacity:0.0; 
stroke:#008484; stroke-width:26; stroke-opacity:1; 
stroke-linecap:round; stroke-linejoin:round;">
<path d="M91700 26750
L92700 26750
" />
<path d="M92700 26750
L92700 20750
" />
<path d="M91700 20750
L92700 20750
" />
<path d="M91700 26750
L91700 20750
" />
</g>
<g style="fill:#008484; fill-opacity:0.0; 
stroke:#008484; stroke-width:50; stroke-opacity:1; 
stroke-linecap:round; stroke-linejoin:round;">
<path d="M91700 20750
L92700 20750
" />
<path d="M92700 20750
L92700 26750
" />
<path d="M92700 26750
L91700 26750
" />
<path d="M91700 26750
L91700 20750
" />
</g>
<g style="fill:#008484; fill-opacity:0.0; 
stroke:#008484; stroke-width:0; stroke-opacity:1; 
stroke-linecap:round; stroke-linejoin:round;">
<path d="M91700 20750
L92700 20750
" />
<path d="M92700 20750
L92700 26750
" />
<path d="M92700 26750
L91700 26750
" />
<path d="M91700 26750
L91700 20750
" />
</g>
<g style="fill:#008484; fill-opacity:0.0; 
stroke:#008484; stroke-width:26; stroke-opacity:1; 
stroke-linecap:round; stroke-linejoin:round;">
<path d="M87200 20250
L88200 20250
" />
<path d="M88200 20250
L88200 16250
" />
<path d="M87200 16250
L88200 16250
" />
<path d="M87200 20250
L87200 16250
" />
</g>
<g style="fill:#008484; fill-opacity:0.0; 
stroke:#008484; stroke-width:50; stroke-opacity:1; 
stroke-linecap:round; stroke-linejoin:round;">
<path d="M87200 16250
L88200 16250
" />
<path d="M88200 16250
L88200 20250
" />
<path d="M88200 20250
L87200 20250
" />
<path d="M87200 20250
L87200 16250
" />
</g>
<g style="fill:#008484; fill-opacity:0.0; 
stroke:#008484; stroke-width:0; stroke-opacity:1; 
stroke-linecap:round; stroke-linejoin:round;">
<path d="M87200 16250
L88200 16250
" />
<path d="M88200 16250
L88200 20250
" />
<path d="M88200 20250
L87200 20250
" />
<path d="M87200 20250
L87200 16250
" />
</g>
<g style="fill:#840000; fill-opacity:0.0; 
stroke:#840000; stroke-width:0; stroke-opacity:1; 
stroke-linecap:round; stroke-linejoin:round;">
</g>
<g style="fill:#840000; fill-opacity:0.0; 
stroke:#840000; stroke-width:680; stroke-opacity:1; 
stroke-linecap:round; stroke-linejoin:round;">
<path d="M80200 32190
L80200 32310
" />
<path d="M81200 32190
L81200 32310
" />
<path d="M82200 32190
L82200 32310
" />
<path d="M83200 32190
L83200 32310
" />
<path d="M84200 32190
L84200 32310
" />
<path d="M85200 32190
L85200 32310
" />
<path d="M86200 32190
L86200 32310
" />
<path d="M87200 32190
L87200 32310
" />
<path d="M89200 32190
L89200 32310
" />
<path d="M90200 32190
L90200 32310
" />
<path d="M91200 32190
L91200 32310
" />
<path d="M92200 32190
L92200 32310
" />
<path d="M93200 32190
L93200 32310
" />
<path d="M94200 32190
L94200 32310
" />
<path d="M76600 13190
L76600 13310
" />
<path d="M77600 13190
L77600 13310
" />
<path d="M78600 13190
L78600 13310
" />
<path d="M79600 13190
L79600 13310
" />
<path d="M80600 13190
L80600 13310
" />
<path d="M81600 13190
L81600 13310
" />
<path d="M82600 13190
L82600 13310
" />
<path d="M83600 13190
L83600 13310
" />
<path d="M84600 13190
L84600 13310
" />
<path d="M85600 13190
L85600 13310
" />
<path d="M87200 13190
L87200 13310
" />
<path d="M88200 13190
L88200 13310
" />
<path d="M89200 13190
L89200 13310
" />
<path d="M90200 13190
L90200 13310
" />
<path d="M91200 13190
L91200 13310
" />
<path d="M92200 13190
L92200 13310
" />
<path d="M93200 13190
L93200 13310
" />
<path d="M94200 13190
L94200 13310
" />
</g>
<g style="fill:#840000; fill-opacity:1.0; 
stroke:#840000; stroke-width:0; stroke-opacity:1; 
stroke-linecap:round; stroke-linejoin:round;">
<circle cx="74700" cy="32250" r="800" /> 
</g>
<g style="fill:#840000; fill-opacity:1.0; 
stroke:#840000; stroke-width:39.3701; stroke-opacity:1; 
stroke-linecap:round; stroke-linejoin:round;">
</g>
<g style="fill:#840000; fill-opacity:1.0; 
stroke:#840000; stroke-width:0; stroke-opacity:1; 
stroke-linecap:round; stroke-linejoin:round;">
<circle cx="95200" cy="30250" r="800" /> 
</g>
<g style="fill:#840000; fill-opacity:1.0; 
stroke:#840000; stroke-width:39.3701; stroke-opacity:1; 
stroke-linecap:round; stroke-linejoin:round;">
</g>
<g style="fill:#840000; fill-opacity:1.0; 
stroke:#840000; stroke-width:0; stroke-opacity:1; 
stroke-linecap:round; stroke-linejoin:round;">
<circle cx="75200" cy="13250" r="800" /> 
</g>
<g style="fill:#840000; fill-opacity:1.0; 
stroke:#840000; stroke-width:39.3701; stroke-opacity:1; 
stroke-linecap:round; stroke-linejoin:round;">
</g>
<g style="fill:#840000; fill-opacity:1.0; 
stroke:#840000; stroke-width:0; stroke-opacity:1; 
stroke-linecap:round; stroke-linejoin:round;">
<circle cx="95200" cy="19250" r="800" /> 
</g>
<g style="fill:#840000; fill-opacity:1.0; 
stroke:#840000; stroke-width:39.3701; stroke-opacity:1; 
stroke-linecap:round; stroke-linejoin:round;">
</g> 
</svg>
