G04 #@! TF.GenerationSoftware,KiCad,Pcbnew,(2017-02-16 revision ccbdb41)-makepkg*
G04 #@! TF.CreationDate,2017-02-23T14:10:58+01:00*
G04 #@! TF.ProjectId,Kicad,4B696361642E6B696361645F70636200,rev?*
G04 #@! TF.FileFunction,Legend,Top*
G04 #@! TF.FilePolarity,Positive*
%FSLAX46Y46*%
G04 Gerber Fmt 4.6, Leading zero omitted, Abs format (unit mm)*
G04 Created by KiCad (PCBNEW (2017-02-16 revision ccbdb41)-makepkg) date 02/23/17 14:10:58*
%MOMM*%
%LPD*%
G01*
G04 APERTURE LIST*
%ADD10C,0.100000*%
%ADD11C,0.300000*%
%ADD12C,0.010000*%
%ADD13C,0.066040*%
%ADD14C,0.127000*%
%ADD15C,0.101600*%
G04 APERTURE END LIST*
D10*
D11*
X112085714Y-100651571D02*
X113014285Y-100651571D01*
X112514285Y-101223000D01*
X112728571Y-101223000D01*
X112871428Y-101294428D01*
X112942857Y-101365857D01*
X113014285Y-101508714D01*
X113014285Y-101865857D01*
X112942857Y-102008714D01*
X112871428Y-102080142D01*
X112728571Y-102151571D01*
X112300000Y-102151571D01*
X112157142Y-102080142D01*
X112085714Y-102008714D01*
X113657142Y-102008714D02*
X113728571Y-102080142D01*
X113657142Y-102151571D01*
X113585714Y-102080142D01*
X113657142Y-102008714D01*
X113657142Y-102151571D01*
X114228571Y-100651571D02*
X115157142Y-100651571D01*
X114657142Y-101223000D01*
X114871428Y-101223000D01*
X115014285Y-101294428D01*
X115085714Y-101365857D01*
X115157142Y-101508714D01*
X115157142Y-101865857D01*
X115085714Y-102008714D01*
X115014285Y-102080142D01*
X114871428Y-102151571D01*
X114442857Y-102151571D01*
X114300000Y-102080142D01*
X114228571Y-102008714D01*
X115585714Y-100651571D02*
X116085714Y-102151571D01*
X116585714Y-100651571D01*
X112478571Y-94531571D02*
X112478571Y-93031571D01*
X112835714Y-93031571D01*
X113050000Y-93103000D01*
X113192857Y-93245857D01*
X113264285Y-93388714D01*
X113335714Y-93674428D01*
X113335714Y-93888714D01*
X113264285Y-94174428D01*
X113192857Y-94317285D01*
X113050000Y-94460142D01*
X112835714Y-94531571D01*
X112478571Y-94531571D01*
X114764285Y-94531571D02*
X113907142Y-94531571D01*
X114335714Y-94531571D02*
X114335714Y-93031571D01*
X114192857Y-93245857D01*
X114050000Y-93388714D01*
X113907142Y-93460142D01*
X116192857Y-94531571D02*
X115335714Y-94531571D01*
X115764285Y-94531571D02*
X115764285Y-93031571D01*
X115621428Y-93245857D01*
X115478571Y-93388714D01*
X115335714Y-93460142D01*
X112478571Y-97071571D02*
X112478571Y-95571571D01*
X112835714Y-95571571D01*
X113050000Y-95643000D01*
X113192857Y-95785857D01*
X113264285Y-95928714D01*
X113335714Y-96214428D01*
X113335714Y-96428714D01*
X113264285Y-96714428D01*
X113192857Y-96857285D01*
X113050000Y-97000142D01*
X112835714Y-97071571D01*
X112478571Y-97071571D01*
X114764285Y-97071571D02*
X113907142Y-97071571D01*
X114335714Y-97071571D02*
X114335714Y-95571571D01*
X114192857Y-95785857D01*
X114050000Y-95928714D01*
X113907142Y-96000142D01*
X115692857Y-95571571D02*
X115835714Y-95571571D01*
X115978571Y-95643000D01*
X116050000Y-95714428D01*
X116121428Y-95857285D01*
X116192857Y-96143000D01*
X116192857Y-96500142D01*
X116121428Y-96785857D01*
X116050000Y-96928714D01*
X115978571Y-97000142D01*
X115835714Y-97071571D01*
X115692857Y-97071571D01*
X115550000Y-97000142D01*
X115478571Y-96928714D01*
X115407142Y-96785857D01*
X115335714Y-96500142D01*
X115335714Y-96143000D01*
X115407142Y-95857285D01*
X115478571Y-95714428D01*
X115550000Y-95643000D01*
X115692857Y-95571571D01*
X110025714Y-88665857D02*
X110240000Y-88737285D01*
X110311428Y-88808714D01*
X110382857Y-88951571D01*
X110382857Y-89165857D01*
X110311428Y-89308714D01*
X110240000Y-89380142D01*
X110097142Y-89451571D01*
X109525714Y-89451571D01*
X109525714Y-87951571D01*
X110025714Y-87951571D01*
X110168571Y-88023000D01*
X110240000Y-88094428D01*
X110311428Y-88237285D01*
X110311428Y-88380142D01*
X110240000Y-88523000D01*
X110168571Y-88594428D01*
X110025714Y-88665857D01*
X109525714Y-88665857D01*
X110811428Y-87951571D02*
X111668571Y-87951571D01*
X111240000Y-89451571D02*
X111240000Y-87951571D01*
X145304285Y-94460142D02*
X145518571Y-94531571D01*
X145875714Y-94531571D01*
X146018571Y-94460142D01*
X146090000Y-94388714D01*
X146161428Y-94245857D01*
X146161428Y-94103000D01*
X146090000Y-93960142D01*
X146018571Y-93888714D01*
X145875714Y-93817285D01*
X145590000Y-93745857D01*
X145447142Y-93674428D01*
X145375714Y-93603000D01*
X145304285Y-93460142D01*
X145304285Y-93317285D01*
X145375714Y-93174428D01*
X145447142Y-93103000D01*
X145590000Y-93031571D01*
X145947142Y-93031571D01*
X146161428Y-93103000D01*
X146804285Y-93745857D02*
X147304285Y-93745857D01*
X147518571Y-94531571D02*
X146804285Y-94531571D01*
X146804285Y-93031571D01*
X147518571Y-93031571D01*
X149018571Y-94531571D02*
X148518571Y-93817285D01*
X148161428Y-94531571D02*
X148161428Y-93031571D01*
X148732857Y-93031571D01*
X148875714Y-93103000D01*
X148947142Y-93174428D01*
X149018571Y-93317285D01*
X149018571Y-93531571D01*
X148947142Y-93674428D01*
X148875714Y-93745857D01*
X148732857Y-93817285D01*
X148161428Y-93817285D01*
X149447142Y-93031571D02*
X149947142Y-94531571D01*
X150447142Y-93031571D01*
X151232857Y-93031571D02*
X151518571Y-93031571D01*
X151661428Y-93103000D01*
X151804285Y-93245857D01*
X151875714Y-93531571D01*
X151875714Y-94031571D01*
X151804285Y-94317285D01*
X151661428Y-94460142D01*
X151518571Y-94531571D01*
X151232857Y-94531571D01*
X151090000Y-94460142D01*
X150947142Y-94317285D01*
X150875714Y-94031571D01*
X150875714Y-93531571D01*
X150947142Y-93245857D01*
X151090000Y-93103000D01*
X151232857Y-93031571D01*
X134259285Y-91205857D02*
X134473571Y-91277285D01*
X134545000Y-91348714D01*
X134616428Y-91491571D01*
X134616428Y-91705857D01*
X134545000Y-91848714D01*
X134473571Y-91920142D01*
X134330714Y-91991571D01*
X133759285Y-91991571D01*
X133759285Y-90491571D01*
X134259285Y-90491571D01*
X134402142Y-90563000D01*
X134473571Y-90634428D01*
X134545000Y-90777285D01*
X134545000Y-90920142D01*
X134473571Y-91063000D01*
X134402142Y-91134428D01*
X134259285Y-91205857D01*
X133759285Y-91205857D01*
X135259285Y-90491571D02*
X135259285Y-91705857D01*
X135330714Y-91848714D01*
X135402142Y-91920142D01*
X135545000Y-91991571D01*
X135830714Y-91991571D01*
X135973571Y-91920142D01*
X136045000Y-91848714D01*
X136116428Y-91705857D01*
X136116428Y-90491571D01*
X136687857Y-90491571D02*
X137687857Y-90491571D01*
X136687857Y-91991571D01*
X137687857Y-91991571D01*
X138116428Y-90491571D02*
X139116428Y-90491571D01*
X138116428Y-91991571D01*
X139116428Y-91991571D01*
X139687857Y-91205857D02*
X140187857Y-91205857D01*
X140402142Y-91991571D02*
X139687857Y-91991571D01*
X139687857Y-90491571D01*
X140402142Y-90491571D01*
X141902142Y-91991571D02*
X141402142Y-91277285D01*
X141045000Y-91991571D02*
X141045000Y-90491571D01*
X141616428Y-90491571D01*
X141759285Y-90563000D01*
X141830714Y-90634428D01*
X141902142Y-90777285D01*
X141902142Y-90991571D01*
X141830714Y-91134428D01*
X141759285Y-91205857D01*
X141616428Y-91277285D01*
X141045000Y-91277285D01*
X127234285Y-91991571D02*
X126734285Y-91277285D01*
X126377142Y-91991571D02*
X126377142Y-90491571D01*
X126948571Y-90491571D01*
X127091428Y-90563000D01*
X127162857Y-90634428D01*
X127234285Y-90777285D01*
X127234285Y-90991571D01*
X127162857Y-91134428D01*
X127091428Y-91205857D01*
X126948571Y-91277285D01*
X126377142Y-91277285D01*
X128662857Y-90563000D02*
X128520000Y-90491571D01*
X128305714Y-90491571D01*
X128091428Y-90563000D01*
X127948571Y-90705857D01*
X127877142Y-90848714D01*
X127805714Y-91134428D01*
X127805714Y-91348714D01*
X127877142Y-91634428D01*
X127948571Y-91777285D01*
X128091428Y-91920142D01*
X128305714Y-91991571D01*
X128448571Y-91991571D01*
X128662857Y-91920142D01*
X128734285Y-91848714D01*
X128734285Y-91348714D01*
X128448571Y-91348714D01*
X129877142Y-91205857D02*
X130091428Y-91277285D01*
X130162857Y-91348714D01*
X130234285Y-91491571D01*
X130234285Y-91705857D01*
X130162857Y-91848714D01*
X130091428Y-91920142D01*
X129948571Y-91991571D01*
X129377142Y-91991571D01*
X129377142Y-90491571D01*
X129877142Y-90491571D01*
X130020000Y-90563000D01*
X130091428Y-90634428D01*
X130162857Y-90777285D01*
X130162857Y-90920142D01*
X130091428Y-91063000D01*
X130020000Y-91134428D01*
X129877142Y-91205857D01*
X129377142Y-91205857D01*
X118336428Y-104691571D02*
X117622142Y-104691571D01*
X117622142Y-103191571D01*
X118836428Y-103905857D02*
X119336428Y-103905857D01*
X119550714Y-104691571D02*
X118836428Y-104691571D01*
X118836428Y-103191571D01*
X119550714Y-103191571D01*
X120193571Y-104691571D02*
X120193571Y-103191571D01*
X120550714Y-103191571D01*
X120765000Y-103263000D01*
X120907857Y-103405857D01*
X120979285Y-103548714D01*
X121050714Y-103834428D01*
X121050714Y-104048714D01*
X120979285Y-104334428D01*
X120907857Y-104477285D01*
X120765000Y-104620142D01*
X120550714Y-104691571D01*
X120193571Y-104691571D01*
X121622142Y-103334428D02*
X121693571Y-103263000D01*
X121836428Y-103191571D01*
X122193571Y-103191571D01*
X122336428Y-103263000D01*
X122407857Y-103334428D01*
X122479285Y-103477285D01*
X122479285Y-103620142D01*
X122407857Y-103834428D01*
X121550714Y-104691571D01*
X122479285Y-104691571D01*
X118336428Y-91991571D02*
X117622142Y-91991571D01*
X117622142Y-90491571D01*
X118836428Y-91205857D02*
X119336428Y-91205857D01*
X119550714Y-91991571D02*
X118836428Y-91991571D01*
X118836428Y-90491571D01*
X119550714Y-90491571D01*
X120193571Y-91991571D02*
X120193571Y-90491571D01*
X120550714Y-90491571D01*
X120765000Y-90563000D01*
X120907857Y-90705857D01*
X120979285Y-90848714D01*
X121050714Y-91134428D01*
X121050714Y-91348714D01*
X120979285Y-91634428D01*
X120907857Y-91777285D01*
X120765000Y-91920142D01*
X120550714Y-91991571D01*
X120193571Y-91991571D01*
X122479285Y-91991571D02*
X121622142Y-91991571D01*
X122050714Y-91991571D02*
X122050714Y-90491571D01*
X121907857Y-90705857D01*
X121765000Y-90848714D01*
X121622142Y-90920142D01*
X139862857Y-94531571D02*
X139862857Y-93031571D01*
X140220000Y-93031571D01*
X140434285Y-93103000D01*
X140577142Y-93245857D01*
X140648571Y-93388714D01*
X140720000Y-93674428D01*
X140720000Y-93888714D01*
X140648571Y-94174428D01*
X140577142Y-94317285D01*
X140434285Y-94460142D01*
X140220000Y-94531571D01*
X139862857Y-94531571D01*
X142005714Y-93531571D02*
X142005714Y-94531571D01*
X141648571Y-92960142D02*
X141291428Y-94031571D01*
X142220000Y-94031571D01*
X140783857Y-98183000D02*
X140641000Y-98111571D01*
X140426714Y-98111571D01*
X140212428Y-98183000D01*
X140069571Y-98325857D01*
X139998142Y-98468714D01*
X139926714Y-98754428D01*
X139926714Y-98968714D01*
X139998142Y-99254428D01*
X140069571Y-99397285D01*
X140212428Y-99540142D01*
X140426714Y-99611571D01*
X140569571Y-99611571D01*
X140783857Y-99540142D01*
X140855285Y-99468714D01*
X140855285Y-98968714D01*
X140569571Y-98968714D01*
X141498142Y-99611571D02*
X141498142Y-98111571D01*
X142355285Y-99611571D01*
X142355285Y-98111571D01*
X143069571Y-99611571D02*
X143069571Y-98111571D01*
X143426714Y-98111571D01*
X143641000Y-98183000D01*
X143783857Y-98325857D01*
X143855285Y-98468714D01*
X143926714Y-98754428D01*
X143926714Y-98968714D01*
X143855285Y-99254428D01*
X143783857Y-99397285D01*
X143641000Y-99540142D01*
X143426714Y-99611571D01*
X143069571Y-99611571D01*
X121447857Y-94531571D02*
X121447857Y-93031571D01*
X121805000Y-93031571D01*
X122019285Y-93103000D01*
X122162142Y-93245857D01*
X122233571Y-93388714D01*
X122305000Y-93674428D01*
X122305000Y-93888714D01*
X122233571Y-94174428D01*
X122162142Y-94317285D01*
X122019285Y-94460142D01*
X121805000Y-94531571D01*
X121447857Y-94531571D01*
X123162142Y-93674428D02*
X123019285Y-93603000D01*
X122947857Y-93531571D01*
X122876428Y-93388714D01*
X122876428Y-93317285D01*
X122947857Y-93174428D01*
X123019285Y-93103000D01*
X123162142Y-93031571D01*
X123447857Y-93031571D01*
X123590714Y-93103000D01*
X123662142Y-93174428D01*
X123733571Y-93317285D01*
X123733571Y-93388714D01*
X123662142Y-93531571D01*
X123590714Y-93603000D01*
X123447857Y-93674428D01*
X123162142Y-93674428D01*
X123019285Y-93745857D01*
X122947857Y-93817285D01*
X122876428Y-93960142D01*
X122876428Y-94245857D01*
X122947857Y-94388714D01*
X123019285Y-94460142D01*
X123162142Y-94531571D01*
X123447857Y-94531571D01*
X123590714Y-94460142D01*
X123662142Y-94388714D01*
X123733571Y-94245857D01*
X123733571Y-93960142D01*
X123662142Y-93817285D01*
X123590714Y-93745857D01*
X123447857Y-93674428D01*
X122047142Y-95643000D02*
X121904285Y-95571571D01*
X121690000Y-95571571D01*
X121475714Y-95643000D01*
X121332857Y-95785857D01*
X121261428Y-95928714D01*
X121190000Y-96214428D01*
X121190000Y-96428714D01*
X121261428Y-96714428D01*
X121332857Y-96857285D01*
X121475714Y-97000142D01*
X121690000Y-97071571D01*
X121832857Y-97071571D01*
X122047142Y-97000142D01*
X122118571Y-96928714D01*
X122118571Y-96428714D01*
X121832857Y-96428714D01*
X122761428Y-97071571D02*
X122761428Y-95571571D01*
X123618571Y-97071571D01*
X123618571Y-95571571D01*
X124332857Y-97071571D02*
X124332857Y-95571571D01*
X124690000Y-95571571D01*
X124904285Y-95643000D01*
X125047142Y-95785857D01*
X125118571Y-95928714D01*
X125190000Y-96214428D01*
X125190000Y-96428714D01*
X125118571Y-96714428D01*
X125047142Y-96857285D01*
X124904285Y-97000142D01*
X124690000Y-97071571D01*
X124332857Y-97071571D01*
X121447857Y-99611571D02*
X121447857Y-98111571D01*
X121805000Y-98111571D01*
X122019285Y-98183000D01*
X122162142Y-98325857D01*
X122233571Y-98468714D01*
X122305000Y-98754428D01*
X122305000Y-98968714D01*
X122233571Y-99254428D01*
X122162142Y-99397285D01*
X122019285Y-99540142D01*
X121805000Y-99611571D01*
X121447857Y-99611571D01*
X122805000Y-98111571D02*
X123805000Y-98111571D01*
X123162142Y-99611571D01*
X130210857Y-94531571D02*
X130210857Y-93031571D01*
X130568000Y-93031571D01*
X130782285Y-93103000D01*
X130925142Y-93245857D01*
X130996571Y-93388714D01*
X131068000Y-93674428D01*
X131068000Y-93888714D01*
X130996571Y-94174428D01*
X130925142Y-94317285D01*
X130782285Y-94460142D01*
X130568000Y-94531571D01*
X130210857Y-94531571D01*
X131782285Y-94531571D02*
X132068000Y-94531571D01*
X132210857Y-94460142D01*
X132282285Y-94388714D01*
X132425142Y-94174428D01*
X132496571Y-93888714D01*
X132496571Y-93317285D01*
X132425142Y-93174428D01*
X132353714Y-93103000D01*
X132210857Y-93031571D01*
X131925142Y-93031571D01*
X131782285Y-93103000D01*
X131710857Y-93174428D01*
X131639428Y-93317285D01*
X131639428Y-93674428D01*
X131710857Y-93817285D01*
X131782285Y-93888714D01*
X131925142Y-93960142D01*
X132210857Y-93960142D01*
X132353714Y-93888714D01*
X132425142Y-93817285D01*
X132496571Y-93674428D01*
X130210857Y-97071571D02*
X130210857Y-95571571D01*
X130568000Y-95571571D01*
X130782285Y-95643000D01*
X130925142Y-95785857D01*
X130996571Y-95928714D01*
X131068000Y-96214428D01*
X131068000Y-96428714D01*
X130996571Y-96714428D01*
X130925142Y-96857285D01*
X130782285Y-97000142D01*
X130568000Y-97071571D01*
X130210857Y-97071571D01*
X132353714Y-95571571D02*
X132068000Y-95571571D01*
X131925142Y-95643000D01*
X131853714Y-95714428D01*
X131710857Y-95928714D01*
X131639428Y-96214428D01*
X131639428Y-96785857D01*
X131710857Y-96928714D01*
X131782285Y-97000142D01*
X131925142Y-97071571D01*
X132210857Y-97071571D01*
X132353714Y-97000142D01*
X132425142Y-96928714D01*
X132496571Y-96785857D01*
X132496571Y-96428714D01*
X132425142Y-96285857D01*
X132353714Y-96214428D01*
X132210857Y-96143000D01*
X131925142Y-96143000D01*
X131782285Y-96214428D01*
X131710857Y-96285857D01*
X131639428Y-96428714D01*
X130210857Y-99611571D02*
X130210857Y-98111571D01*
X130568000Y-98111571D01*
X130782285Y-98183000D01*
X130925142Y-98325857D01*
X130996571Y-98468714D01*
X131068000Y-98754428D01*
X131068000Y-98968714D01*
X130996571Y-99254428D01*
X130925142Y-99397285D01*
X130782285Y-99540142D01*
X130568000Y-99611571D01*
X130210857Y-99611571D01*
X132425142Y-98111571D02*
X131710857Y-98111571D01*
X131639428Y-98825857D01*
X131710857Y-98754428D01*
X131853714Y-98683000D01*
X132210857Y-98683000D01*
X132353714Y-98754428D01*
X132425142Y-98825857D01*
X132496571Y-98968714D01*
X132496571Y-99325857D01*
X132425142Y-99468714D01*
X132353714Y-99540142D01*
X132210857Y-99611571D01*
X131853714Y-99611571D01*
X131710857Y-99540142D01*
X131639428Y-99468714D01*
X150022857Y-97071571D02*
X150022857Y-95571571D01*
X150380000Y-95571571D01*
X150594285Y-95643000D01*
X150737142Y-95785857D01*
X150808571Y-95928714D01*
X150880000Y-96214428D01*
X150880000Y-96428714D01*
X150808571Y-96714428D01*
X150737142Y-96857285D01*
X150594285Y-97000142D01*
X150380000Y-97071571D01*
X150022857Y-97071571D01*
X151380000Y-95571571D02*
X152308571Y-95571571D01*
X151808571Y-96143000D01*
X152022857Y-96143000D01*
X152165714Y-96214428D01*
X152237142Y-96285857D01*
X152308571Y-96428714D01*
X152308571Y-96785857D01*
X152237142Y-96928714D01*
X152165714Y-97000142D01*
X152022857Y-97071571D01*
X151594285Y-97071571D01*
X151451428Y-97000142D01*
X151380000Y-96928714D01*
X150844285Y-98111571D02*
X150130000Y-98111571D01*
X150058571Y-98825857D01*
X150130000Y-98754428D01*
X150272857Y-98683000D01*
X150630000Y-98683000D01*
X150772857Y-98754428D01*
X150844285Y-98825857D01*
X150915714Y-98968714D01*
X150915714Y-99325857D01*
X150844285Y-99468714D01*
X150772857Y-99540142D01*
X150630000Y-99611571D01*
X150272857Y-99611571D01*
X150130000Y-99540142D01*
X150058571Y-99468714D01*
X151344285Y-98111571D02*
X151844285Y-99611571D01*
X152344285Y-98111571D01*
X151880000Y-101600142D02*
X151951428Y-101457285D01*
X151951428Y-101243000D01*
X151880000Y-101028714D01*
X151737142Y-100885857D01*
X151594285Y-100814428D01*
X151308571Y-100743000D01*
X151094285Y-100743000D01*
X150808571Y-100814428D01*
X150665714Y-100885857D01*
X150522857Y-101028714D01*
X150451428Y-101243000D01*
X150451428Y-101385857D01*
X150522857Y-101600142D01*
X150594285Y-101671571D01*
X151094285Y-101671571D01*
X151094285Y-101385857D01*
X150451428Y-102314428D02*
X151951428Y-102314428D01*
X150451428Y-103171571D01*
X151951428Y-103171571D01*
X150451428Y-103885857D02*
X151951428Y-103885857D01*
X151951428Y-104243000D01*
X151880000Y-104457285D01*
X151737142Y-104600142D01*
X151594285Y-104671571D01*
X151308571Y-104743000D01*
X151094285Y-104743000D01*
X150808571Y-104671571D01*
X150665714Y-104600142D01*
X150522857Y-104457285D01*
X150451428Y-104243000D01*
X150451428Y-103885857D01*
X130937142Y-100723000D02*
X130794285Y-100651571D01*
X130580000Y-100651571D01*
X130365714Y-100723000D01*
X130222857Y-100865857D01*
X130151428Y-101008714D01*
X130080000Y-101294428D01*
X130080000Y-101508714D01*
X130151428Y-101794428D01*
X130222857Y-101937285D01*
X130365714Y-102080142D01*
X130580000Y-102151571D01*
X130722857Y-102151571D01*
X130937142Y-102080142D01*
X131008571Y-102008714D01*
X131008571Y-101508714D01*
X130722857Y-101508714D01*
X131651428Y-102151571D02*
X131651428Y-100651571D01*
X132508571Y-102151571D01*
X132508571Y-100651571D01*
X133222857Y-102151571D02*
X133222857Y-100651571D01*
X133580000Y-100651571D01*
X133794285Y-100723000D01*
X133937142Y-100865857D01*
X134008571Y-101008714D01*
X134080000Y-101294428D01*
X134080000Y-101508714D01*
X134008571Y-101794428D01*
X133937142Y-101937285D01*
X133794285Y-102080142D01*
X133580000Y-102151571D01*
X133222857Y-102151571D01*
X122047142Y-100723000D02*
X121904285Y-100651571D01*
X121690000Y-100651571D01*
X121475714Y-100723000D01*
X121332857Y-100865857D01*
X121261428Y-101008714D01*
X121190000Y-101294428D01*
X121190000Y-101508714D01*
X121261428Y-101794428D01*
X121332857Y-101937285D01*
X121475714Y-102080142D01*
X121690000Y-102151571D01*
X121832857Y-102151571D01*
X122047142Y-102080142D01*
X122118571Y-102008714D01*
X122118571Y-101508714D01*
X121832857Y-101508714D01*
X122761428Y-102151571D02*
X122761428Y-100651571D01*
X123618571Y-102151571D01*
X123618571Y-100651571D01*
X124332857Y-102151571D02*
X124332857Y-100651571D01*
X124690000Y-100651571D01*
X124904285Y-100723000D01*
X125047142Y-100865857D01*
X125118571Y-101008714D01*
X125190000Y-101294428D01*
X125190000Y-101508714D01*
X125118571Y-101794428D01*
X125047142Y-101937285D01*
X124904285Y-102080142D01*
X124690000Y-102151571D01*
X124332857Y-102151571D01*
X113157142Y-98183000D02*
X113014285Y-98111571D01*
X112800000Y-98111571D01*
X112585714Y-98183000D01*
X112442857Y-98325857D01*
X112371428Y-98468714D01*
X112300000Y-98754428D01*
X112300000Y-98968714D01*
X112371428Y-99254428D01*
X112442857Y-99397285D01*
X112585714Y-99540142D01*
X112800000Y-99611571D01*
X112942857Y-99611571D01*
X113157142Y-99540142D01*
X113228571Y-99468714D01*
X113228571Y-98968714D01*
X112942857Y-98968714D01*
X113871428Y-99611571D02*
X113871428Y-98111571D01*
X114728571Y-99611571D01*
X114728571Y-98111571D01*
X115442857Y-99611571D02*
X115442857Y-98111571D01*
X115800000Y-98111571D01*
X116014285Y-98183000D01*
X116157142Y-98325857D01*
X116228571Y-98468714D01*
X116300000Y-98754428D01*
X116300000Y-98968714D01*
X116228571Y-99254428D01*
X116157142Y-99397285D01*
X116014285Y-99540142D01*
X115800000Y-99611571D01*
X115442857Y-99611571D01*
D12*
G36*
X137859675Y-86415637D02*
X137910245Y-86560168D01*
X137960593Y-86725125D01*
X138022390Y-86934879D01*
X138073082Y-87100168D01*
X138096161Y-87169625D01*
X138073031Y-87221739D01*
X137944288Y-87246051D01*
X137833543Y-87249000D01*
X137660758Y-87239054D01*
X137555737Y-87213832D01*
X137541000Y-87197829D01*
X137559815Y-87111088D01*
X137607607Y-86953197D01*
X137671387Y-86761699D01*
X137738173Y-86574132D01*
X137794977Y-86428039D01*
X137828815Y-86360959D01*
X137830805Y-86360000D01*
X137859675Y-86415637D01*
X137859675Y-86415637D01*
G37*
X137859675Y-86415637D02*
X137910245Y-86560168D01*
X137960593Y-86725125D01*
X138022390Y-86934879D01*
X138073082Y-87100168D01*
X138096161Y-87169625D01*
X138073031Y-87221739D01*
X137944288Y-87246051D01*
X137833543Y-87249000D01*
X137660758Y-87239054D01*
X137555737Y-87213832D01*
X137541000Y-87197829D01*
X137559815Y-87111088D01*
X137607607Y-86953197D01*
X137671387Y-86761699D01*
X137738173Y-86574132D01*
X137794977Y-86428039D01*
X137828815Y-86360959D01*
X137830805Y-86360000D01*
X137859675Y-86415637D01*
G36*
X130457297Y-86272734D02*
X130709544Y-86395388D01*
X130881422Y-86606138D01*
X130896687Y-86636674D01*
X130984405Y-86948856D01*
X130958460Y-87244743D01*
X130832159Y-87505229D01*
X130618809Y-87711209D01*
X130331717Y-87843578D01*
X130027951Y-87884000D01*
X129794000Y-87884000D01*
X129794000Y-86233000D01*
X130114653Y-86233000D01*
X130457297Y-86272734D01*
X130457297Y-86272734D01*
G37*
X130457297Y-86272734D02*
X130709544Y-86395388D01*
X130881422Y-86606138D01*
X130896687Y-86636674D01*
X130984405Y-86948856D01*
X130958460Y-87244743D01*
X130832159Y-87505229D01*
X130618809Y-87711209D01*
X130331717Y-87843578D01*
X130027951Y-87884000D01*
X129794000Y-87884000D01*
X129794000Y-86233000D01*
X130114653Y-86233000D01*
X130457297Y-86272734D01*
G36*
X127504096Y-86191879D02*
X127667192Y-86246363D01*
X127789019Y-86313969D01*
X127825500Y-86364999D01*
X127846037Y-86461410D01*
X127862960Y-86510732D01*
X127848911Y-86631164D01*
X127748671Y-86761090D01*
X127596671Y-86870267D01*
X127427345Y-86928454D01*
X127383886Y-86931500D01*
X127190500Y-86931500D01*
X127190500Y-86550500D01*
X127193957Y-86339278D01*
X127212450Y-86225232D01*
X127258158Y-86178571D01*
X127343259Y-86169502D01*
X127346262Y-86169500D01*
X127504096Y-86191879D01*
X127504096Y-86191879D01*
G37*
X127504096Y-86191879D02*
X127667192Y-86246363D01*
X127789019Y-86313969D01*
X127825500Y-86364999D01*
X127846037Y-86461410D01*
X127862960Y-86510732D01*
X127848911Y-86631164D01*
X127748671Y-86761090D01*
X127596671Y-86870267D01*
X127427345Y-86928454D01*
X127383886Y-86931500D01*
X127190500Y-86931500D01*
X127190500Y-86550500D01*
X127193957Y-86339278D01*
X127212450Y-86225232D01*
X127258158Y-86178571D01*
X127343259Y-86169502D01*
X127346262Y-86169500D01*
X127504096Y-86191879D01*
G36*
X124459461Y-85915277D02*
X124720617Y-86081744D01*
X124943109Y-86331051D01*
X125107361Y-86628490D01*
X125193796Y-86939356D01*
X125187902Y-87206688D01*
X125054122Y-87575095D01*
X124832048Y-87872692D01*
X124541143Y-88086300D01*
X124200871Y-88202743D01*
X123830696Y-88208842D01*
X123733832Y-88191150D01*
X123395930Y-88057782D01*
X123131383Y-87840041D01*
X122944960Y-87560444D01*
X122841432Y-87241505D01*
X122825569Y-86905742D01*
X122902141Y-86575670D01*
X123075919Y-86273805D01*
X123284546Y-86070481D01*
X123540613Y-85938757D01*
X123858354Y-85864454D01*
X124183746Y-85854708D01*
X124459461Y-85915277D01*
X124459461Y-85915277D01*
G37*
X124459461Y-85915277D02*
X124720617Y-86081744D01*
X124943109Y-86331051D01*
X125107361Y-86628490D01*
X125193796Y-86939356D01*
X125187902Y-87206688D01*
X125054122Y-87575095D01*
X124832048Y-87872692D01*
X124541143Y-88086300D01*
X124200871Y-88202743D01*
X123830696Y-88208842D01*
X123733832Y-88191150D01*
X123395930Y-88057782D01*
X123131383Y-87840041D01*
X122944960Y-87560444D01*
X122841432Y-87241505D01*
X122825569Y-86905742D01*
X122902141Y-86575670D01*
X123075919Y-86273805D01*
X123284546Y-86070481D01*
X123540613Y-85938757D01*
X123858354Y-85864454D01*
X124183746Y-85854708D01*
X124459461Y-85915277D01*
G36*
X125139026Y-84700773D02*
X125207409Y-84847572D01*
X125291315Y-85057363D01*
X125315186Y-85121750D01*
X125488884Y-85598000D01*
X141097000Y-85598000D01*
X141097000Y-88455500D01*
X125564734Y-88455500D01*
X124266242Y-88930856D01*
X123883639Y-89070160D01*
X123541111Y-89193425D01*
X123256624Y-89294304D01*
X123048140Y-89366451D01*
X122933625Y-89403521D01*
X122918132Y-89407106D01*
X122857242Y-89356880D01*
X122826610Y-89296875D01*
X122781402Y-89178217D01*
X122708909Y-88989140D01*
X122650203Y-88836500D01*
X122515700Y-88487250D01*
X121011350Y-88470225D01*
X119507000Y-88453201D01*
X119507000Y-87026750D01*
X122334948Y-87026750D01*
X122361305Y-87427529D01*
X122451083Y-87748241D01*
X122620341Y-88026657D01*
X122871221Y-88288040D01*
X123255133Y-88556722D01*
X123672547Y-88704576D01*
X124112881Y-88729873D01*
X124565553Y-88630890D01*
X124685476Y-88583937D01*
X125063726Y-88358759D01*
X125154181Y-88265140D01*
X132365750Y-88265140D01*
X132842000Y-88265000D01*
X132842000Y-85912356D01*
X133858000Y-85912356D01*
X133858000Y-88265000D01*
X134312099Y-88265000D01*
X134291424Y-87381936D01*
X134286597Y-87066161D01*
X134287503Y-86803822D01*
X134293679Y-86616876D01*
X134304663Y-86527281D01*
X134309516Y-86522959D01*
X134353588Y-86583032D01*
X134450448Y-86733566D01*
X134588311Y-86955664D01*
X134755395Y-87230429D01*
X134874473Y-87428965D01*
X135400663Y-88310884D01*
X135606657Y-88247663D01*
X135754267Y-88179054D01*
X135772792Y-88149218D01*
X136715385Y-88149218D01*
X136771996Y-88199710D01*
X136913710Y-88241547D01*
X137034896Y-88257633D01*
X137119935Y-88203519D01*
X137216032Y-88040297D01*
X137256212Y-87945019D01*
X137380382Y-87625039D01*
X137820737Y-87643394D01*
X138261091Y-87661750D01*
X138354239Y-87947500D01*
X138412683Y-88120050D01*
X138455229Y-88233469D01*
X138465902Y-88255167D01*
X138543313Y-88265802D01*
X138674308Y-88235077D01*
X138802526Y-88182092D01*
X138871607Y-88125943D01*
X138873414Y-88117079D01*
X138851766Y-88036138D01*
X138792309Y-87856817D01*
X138702177Y-87599517D01*
X138588505Y-87284637D01*
X138469873Y-86963250D01*
X138067419Y-85883750D01*
X137850869Y-85864930D01*
X137634319Y-85846111D01*
X137174794Y-86976180D01*
X137031960Y-87329592D01*
X136907231Y-87642320D01*
X136807990Y-87895511D01*
X136741623Y-88070309D01*
X136715514Y-88147859D01*
X136715385Y-88149218D01*
X135772792Y-88149218D01*
X135826886Y-88062097D01*
X135850626Y-87954846D01*
X135864346Y-87809039D01*
X135875962Y-87566213D01*
X135884479Y-87256344D01*
X135888905Y-86909409D01*
X135889301Y-86788625D01*
X135890000Y-85852000D01*
X135669541Y-85851999D01*
X135449083Y-85851999D01*
X135431416Y-86713267D01*
X135413750Y-87574534D01*
X134874000Y-86683902D01*
X134688746Y-86385294D01*
X134521552Y-86128977D01*
X134384976Y-85933189D01*
X134291578Y-85816167D01*
X134259008Y-85790885D01*
X134146498Y-85810341D01*
X134020883Y-85850428D01*
X133858000Y-85912356D01*
X132842000Y-85912356D01*
X132842000Y-85852000D01*
X132622405Y-85852000D01*
X132402810Y-85851999D01*
X132384280Y-87058570D01*
X132365750Y-88265140D01*
X125154181Y-88265140D01*
X125154317Y-88265000D01*
X126664135Y-88265000D01*
X127190500Y-88265000D01*
X127190500Y-87757000D01*
X127198627Y-87481895D01*
X127228669Y-87315988D01*
X127289111Y-87259294D01*
X127388441Y-87311831D01*
X127535144Y-87473618D01*
X127737708Y-87744673D01*
X127747363Y-87758166D01*
X127917360Y-87991770D01*
X128036549Y-88138292D01*
X128125674Y-88215572D01*
X128205480Y-88241452D01*
X128296715Y-88233774D01*
X128299765Y-88233226D01*
X128451802Y-88192499D01*
X128540565Y-88146834D01*
X128527600Y-88077099D01*
X128448952Y-87934304D01*
X128319437Y-87743617D01*
X128244111Y-87643188D01*
X127895371Y-87191828D01*
X128114435Y-86972764D01*
X128287092Y-86733599D01*
X128334294Y-86481706D01*
X128257539Y-86207837D01*
X128243012Y-86178709D01*
X128134299Y-86031133D01*
X127974089Y-85932703D01*
X127740328Y-85875914D01*
X127410962Y-85853263D01*
X127282762Y-85852000D01*
X129349500Y-85852000D01*
X129349500Y-88265000D01*
X129848024Y-88265000D01*
X130120088Y-88255673D01*
X130371193Y-88231103D01*
X130550785Y-88196404D01*
X130562399Y-88192730D01*
X130916556Y-88013663D01*
X131191123Y-87750024D01*
X131371482Y-87421349D01*
X131443016Y-87047170D01*
X131443605Y-87015008D01*
X131400365Y-86655527D01*
X131257767Y-86354719D01*
X131139335Y-86209304D01*
X130961670Y-86050783D01*
X130760360Y-85944716D01*
X130506597Y-85882412D01*
X130171574Y-85855182D01*
X129954789Y-85852000D01*
X129349500Y-85852000D01*
X127282762Y-85852000D01*
X126746000Y-85852000D01*
X126745548Y-86629875D01*
X126741856Y-86982931D01*
X126732206Y-87337745D01*
X126718153Y-87648493D01*
X126704616Y-87836375D01*
X126664135Y-88265000D01*
X125154317Y-88265000D01*
X125356815Y-88055422D01*
X125560555Y-87693607D01*
X125670760Y-87292993D01*
X125683242Y-86873260D01*
X125593815Y-86454087D01*
X125398291Y-86055154D01*
X125262303Y-85872812D01*
X124958695Y-85606726D01*
X124591673Y-85432531D01*
X124186173Y-85350890D01*
X123767131Y-85362464D01*
X123359485Y-85467916D01*
X122988173Y-85667906D01*
X122819310Y-85807967D01*
X122578281Y-86080178D01*
X122427318Y-86364911D01*
X122351508Y-86699691D01*
X122334948Y-87026750D01*
X119507000Y-87026750D01*
X119507000Y-85598000D01*
X122459750Y-85596212D01*
X123758242Y-85120856D01*
X124140317Y-84981667D01*
X124481799Y-84858567D01*
X124764852Y-84757877D01*
X124971638Y-84685922D01*
X125084322Y-84649026D01*
X125099111Y-84645500D01*
X125139026Y-84700773D01*
X125139026Y-84700773D01*
G37*
X125139026Y-84700773D02*
X125207409Y-84847572D01*
X125291315Y-85057363D01*
X125315186Y-85121750D01*
X125488884Y-85598000D01*
X141097000Y-85598000D01*
X141097000Y-88455500D01*
X125564734Y-88455500D01*
X124266242Y-88930856D01*
X123883639Y-89070160D01*
X123541111Y-89193425D01*
X123256624Y-89294304D01*
X123048140Y-89366451D01*
X122933625Y-89403521D01*
X122918132Y-89407106D01*
X122857242Y-89356880D01*
X122826610Y-89296875D01*
X122781402Y-89178217D01*
X122708909Y-88989140D01*
X122650203Y-88836500D01*
X122515700Y-88487250D01*
X121011350Y-88470225D01*
X119507000Y-88453201D01*
X119507000Y-87026750D01*
X122334948Y-87026750D01*
X122361305Y-87427529D01*
X122451083Y-87748241D01*
X122620341Y-88026657D01*
X122871221Y-88288040D01*
X123255133Y-88556722D01*
X123672547Y-88704576D01*
X124112881Y-88729873D01*
X124565553Y-88630890D01*
X124685476Y-88583937D01*
X125063726Y-88358759D01*
X125154181Y-88265140D01*
X132365750Y-88265140D01*
X132842000Y-88265000D01*
X132842000Y-85912356D01*
X133858000Y-85912356D01*
X133858000Y-88265000D01*
X134312099Y-88265000D01*
X134291424Y-87381936D01*
X134286597Y-87066161D01*
X134287503Y-86803822D01*
X134293679Y-86616876D01*
X134304663Y-86527281D01*
X134309516Y-86522959D01*
X134353588Y-86583032D01*
X134450448Y-86733566D01*
X134588311Y-86955664D01*
X134755395Y-87230429D01*
X134874473Y-87428965D01*
X135400663Y-88310884D01*
X135606657Y-88247663D01*
X135754267Y-88179054D01*
X135772792Y-88149218D01*
X136715385Y-88149218D01*
X136771996Y-88199710D01*
X136913710Y-88241547D01*
X137034896Y-88257633D01*
X137119935Y-88203519D01*
X137216032Y-88040297D01*
X137256212Y-87945019D01*
X137380382Y-87625039D01*
X137820737Y-87643394D01*
X138261091Y-87661750D01*
X138354239Y-87947500D01*
X138412683Y-88120050D01*
X138455229Y-88233469D01*
X138465902Y-88255167D01*
X138543313Y-88265802D01*
X138674308Y-88235077D01*
X138802526Y-88182092D01*
X138871607Y-88125943D01*
X138873414Y-88117079D01*
X138851766Y-88036138D01*
X138792309Y-87856817D01*
X138702177Y-87599517D01*
X138588505Y-87284637D01*
X138469873Y-86963250D01*
X138067419Y-85883750D01*
X137850869Y-85864930D01*
X137634319Y-85846111D01*
X137174794Y-86976180D01*
X137031960Y-87329592D01*
X136907231Y-87642320D01*
X136807990Y-87895511D01*
X136741623Y-88070309D01*
X136715514Y-88147859D01*
X136715385Y-88149218D01*
X135772792Y-88149218D01*
X135826886Y-88062097D01*
X135850626Y-87954846D01*
X135864346Y-87809039D01*
X135875962Y-87566213D01*
X135884479Y-87256344D01*
X135888905Y-86909409D01*
X135889301Y-86788625D01*
X135890000Y-85852000D01*
X135669541Y-85851999D01*
X135449083Y-85851999D01*
X135431416Y-86713267D01*
X135413750Y-87574534D01*
X134874000Y-86683902D01*
X134688746Y-86385294D01*
X134521552Y-86128977D01*
X134384976Y-85933189D01*
X134291578Y-85816167D01*
X134259008Y-85790885D01*
X134146498Y-85810341D01*
X134020883Y-85850428D01*
X133858000Y-85912356D01*
X132842000Y-85912356D01*
X132842000Y-85852000D01*
X132622405Y-85852000D01*
X132402810Y-85851999D01*
X132384280Y-87058570D01*
X132365750Y-88265140D01*
X125154181Y-88265140D01*
X125154317Y-88265000D01*
X126664135Y-88265000D01*
X127190500Y-88265000D01*
X127190500Y-87757000D01*
X127198627Y-87481895D01*
X127228669Y-87315988D01*
X127289111Y-87259294D01*
X127388441Y-87311831D01*
X127535144Y-87473618D01*
X127737708Y-87744673D01*
X127747363Y-87758166D01*
X127917360Y-87991770D01*
X128036549Y-88138292D01*
X128125674Y-88215572D01*
X128205480Y-88241452D01*
X128296715Y-88233774D01*
X128299765Y-88233226D01*
X128451802Y-88192499D01*
X128540565Y-88146834D01*
X128527600Y-88077099D01*
X128448952Y-87934304D01*
X128319437Y-87743617D01*
X128244111Y-87643188D01*
X127895371Y-87191828D01*
X128114435Y-86972764D01*
X128287092Y-86733599D01*
X128334294Y-86481706D01*
X128257539Y-86207837D01*
X128243012Y-86178709D01*
X128134299Y-86031133D01*
X127974089Y-85932703D01*
X127740328Y-85875914D01*
X127410962Y-85853263D01*
X127282762Y-85852000D01*
X129349500Y-85852000D01*
X129349500Y-88265000D01*
X129848024Y-88265000D01*
X130120088Y-88255673D01*
X130371193Y-88231103D01*
X130550785Y-88196404D01*
X130562399Y-88192730D01*
X130916556Y-88013663D01*
X131191123Y-87750024D01*
X131371482Y-87421349D01*
X131443016Y-87047170D01*
X131443605Y-87015008D01*
X131400365Y-86655527D01*
X131257767Y-86354719D01*
X131139335Y-86209304D01*
X130961670Y-86050783D01*
X130760360Y-85944716D01*
X130506597Y-85882412D01*
X130171574Y-85855182D01*
X129954789Y-85852000D01*
X129349500Y-85852000D01*
X127282762Y-85852000D01*
X126746000Y-85852000D01*
X126745548Y-86629875D01*
X126741856Y-86982931D01*
X126732206Y-87337745D01*
X126718153Y-87648493D01*
X126704616Y-87836375D01*
X126664135Y-88265000D01*
X125154317Y-88265000D01*
X125356815Y-88055422D01*
X125560555Y-87693607D01*
X125670760Y-87292993D01*
X125683242Y-86873260D01*
X125593815Y-86454087D01*
X125398291Y-86055154D01*
X125262303Y-85872812D01*
X124958695Y-85606726D01*
X124591673Y-85432531D01*
X124186173Y-85350890D01*
X123767131Y-85362464D01*
X123359485Y-85467916D01*
X122988173Y-85667906D01*
X122819310Y-85807967D01*
X122578281Y-86080178D01*
X122427318Y-86364911D01*
X122351508Y-86699691D01*
X122334948Y-87026750D01*
X119507000Y-87026750D01*
X119507000Y-85598000D01*
X122459750Y-85596212D01*
X123758242Y-85120856D01*
X124140317Y-84981667D01*
X124481799Y-84858567D01*
X124764852Y-84757877D01*
X124971638Y-84685922D01*
X125084322Y-84649026D01*
X125099111Y-84645500D01*
X125139026Y-84700773D01*
D13*
X136652000Y-102743000D02*
X139192000Y-102743000D01*
X139192000Y-102743000D02*
X139192000Y-92583000D01*
X136652000Y-92583000D02*
X139192000Y-92583000D01*
X136652000Y-102743000D02*
X136652000Y-92583000D01*
D14*
X136652000Y-92583000D02*
X139192000Y-92583000D01*
X139192000Y-92583000D02*
X139192000Y-102743000D01*
X139192000Y-102743000D02*
X136652000Y-102743000D01*
X136652000Y-102743000D02*
X136652000Y-92583000D01*
D10*
X136652000Y-92583000D02*
X139192000Y-92583000D01*
X139192000Y-92583000D02*
X139192000Y-102743000D01*
X139192000Y-102743000D02*
X136652000Y-102743000D01*
X136652000Y-102743000D02*
X136652000Y-92583000D01*
D13*
X118110000Y-102743000D02*
X120650000Y-102743000D01*
X120650000Y-102743000D02*
X120650000Y-92583000D01*
X118110000Y-92583000D02*
X120650000Y-92583000D01*
X118110000Y-102743000D02*
X118110000Y-92583000D01*
D14*
X118110000Y-92583000D02*
X120650000Y-92583000D01*
X120650000Y-92583000D02*
X120650000Y-102743000D01*
X120650000Y-102743000D02*
X118110000Y-102743000D01*
X118110000Y-102743000D02*
X118110000Y-92583000D01*
D10*
X118110000Y-92583000D02*
X120650000Y-92583000D01*
X120650000Y-92583000D02*
X120650000Y-102743000D01*
X120650000Y-102743000D02*
X118110000Y-102743000D01*
X118110000Y-102743000D02*
X118110000Y-92583000D01*
D13*
X127000000Y-102743000D02*
X129540000Y-102743000D01*
X129540000Y-102743000D02*
X129540000Y-92583000D01*
X127000000Y-92583000D02*
X129540000Y-92583000D01*
X127000000Y-102743000D02*
X127000000Y-92583000D01*
D14*
X127000000Y-92583000D02*
X129540000Y-92583000D01*
X129540000Y-92583000D02*
X129540000Y-102743000D01*
X129540000Y-102743000D02*
X127000000Y-102743000D01*
X127000000Y-102743000D02*
X127000000Y-92583000D01*
D10*
X127000000Y-92583000D02*
X129540000Y-92583000D01*
X129540000Y-92583000D02*
X129540000Y-102743000D01*
X129540000Y-102743000D02*
X127000000Y-102743000D01*
X127000000Y-102743000D02*
X127000000Y-92583000D01*
D13*
X111760000Y-90043000D02*
X109220000Y-90043000D01*
X109220000Y-90043000D02*
X109220000Y-105283000D01*
X111760000Y-105283000D02*
X109220000Y-105283000D01*
X111760000Y-90043000D02*
X111760000Y-105283000D01*
D14*
X111760000Y-105283000D02*
X109220000Y-105283000D01*
X109220000Y-105283000D02*
X109220000Y-90043000D01*
X109220000Y-90043000D02*
X111760000Y-90043000D01*
X111760000Y-90043000D02*
X111760000Y-105283000D01*
D10*
X111760000Y-105283000D02*
X109220000Y-105283000D01*
X109220000Y-105283000D02*
X109220000Y-90043000D01*
X109220000Y-90043000D02*
X111760000Y-90043000D01*
X111760000Y-90043000D02*
X111760000Y-105283000D01*
D13*
X147320000Y-102743000D02*
X149860000Y-102743000D01*
X149860000Y-102743000D02*
X149860000Y-95123000D01*
X147320000Y-95123000D02*
X149860000Y-95123000D01*
X147320000Y-102743000D02*
X147320000Y-95123000D01*
D14*
X147320000Y-95123000D02*
X149860000Y-95123000D01*
X149860000Y-95123000D02*
X149860000Y-102743000D01*
X149860000Y-102743000D02*
X147320000Y-102743000D01*
X147320000Y-102743000D02*
X147320000Y-95123000D01*
D10*
X147320000Y-95123000D02*
X149860000Y-95123000D01*
X149860000Y-95123000D02*
X149860000Y-102743000D01*
X149860000Y-102743000D02*
X147320000Y-102743000D01*
X147320000Y-102743000D02*
X147320000Y-95123000D01*
D12*
G36*
X121024731Y-122929650D02*
X121023276Y-123325943D01*
X121021946Y-123674946D01*
X121020496Y-123980164D01*
X121018681Y-124245106D01*
X121016254Y-124473279D01*
X121012971Y-124668189D01*
X121008585Y-124833345D01*
X121002852Y-124972254D01*
X120995525Y-125088423D01*
X120986359Y-125185359D01*
X120975109Y-125266570D01*
X120961529Y-125335563D01*
X120945373Y-125395846D01*
X120926397Y-125450925D01*
X120904353Y-125504309D01*
X120878997Y-125559504D01*
X120850084Y-125620017D01*
X120834011Y-125653800D01*
X120759860Y-125789115D01*
X120667142Y-125913612D01*
X120563641Y-126024913D01*
X120387380Y-126179358D01*
X120199039Y-126298584D01*
X119991006Y-126385482D01*
X119755667Y-126442945D01*
X119485408Y-126473865D01*
X119367300Y-126479403D01*
X119230446Y-126481637D01*
X119100538Y-126480228D01*
X118992071Y-126475551D01*
X118919540Y-126467982D01*
X118918503Y-126467794D01*
X118612521Y-126388716D01*
X118333546Y-126269950D01*
X118084659Y-126113614D01*
X117868938Y-125921827D01*
X117689461Y-125696708D01*
X117612520Y-125569090D01*
X117575076Y-125494779D01*
X117562588Y-125449862D01*
X117572311Y-125421155D01*
X117580005Y-125412917D01*
X117611529Y-125390134D01*
X117676493Y-125347918D01*
X117767080Y-125290990D01*
X117875473Y-125224071D01*
X117993855Y-125151884D01*
X118114410Y-125079148D01*
X118229319Y-125010586D01*
X118330767Y-124950919D01*
X118410936Y-124904867D01*
X118462009Y-124877154D01*
X118476660Y-124871349D01*
X118492074Y-124894647D01*
X118528626Y-124950238D01*
X118579614Y-125027922D01*
X118603040Y-125063645D01*
X118718636Y-125219789D01*
X118835005Y-125331170D01*
X118961159Y-125403151D01*
X119106107Y-125441097D01*
X119253000Y-125450600D01*
X119431009Y-125435914D01*
X119573565Y-125389400D01*
X119687505Y-125307376D01*
X119779667Y-125186157D01*
X119795221Y-125158500D01*
X119804853Y-125140033D01*
X119813292Y-125120535D01*
X119820630Y-125096681D01*
X119826957Y-125065143D01*
X119832363Y-125022598D01*
X119836940Y-124965717D01*
X119840777Y-124891176D01*
X119843966Y-124795648D01*
X119846596Y-124675808D01*
X119848759Y-124528329D01*
X119850544Y-124349885D01*
X119852043Y-124137151D01*
X119853346Y-123886801D01*
X119854543Y-123595508D01*
X119855725Y-123259947D01*
X119856935Y-122891550D01*
X119863971Y-120726200D01*
X121033103Y-120726200D01*
X121024731Y-122929650D01*
X121024731Y-122929650D01*
G37*
X121024731Y-122929650D02*
X121023276Y-123325943D01*
X121021946Y-123674946D01*
X121020496Y-123980164D01*
X121018681Y-124245106D01*
X121016254Y-124473279D01*
X121012971Y-124668189D01*
X121008585Y-124833345D01*
X121002852Y-124972254D01*
X120995525Y-125088423D01*
X120986359Y-125185359D01*
X120975109Y-125266570D01*
X120961529Y-125335563D01*
X120945373Y-125395846D01*
X120926397Y-125450925D01*
X120904353Y-125504309D01*
X120878997Y-125559504D01*
X120850084Y-125620017D01*
X120834011Y-125653800D01*
X120759860Y-125789115D01*
X120667142Y-125913612D01*
X120563641Y-126024913D01*
X120387380Y-126179358D01*
X120199039Y-126298584D01*
X119991006Y-126385482D01*
X119755667Y-126442945D01*
X119485408Y-126473865D01*
X119367300Y-126479403D01*
X119230446Y-126481637D01*
X119100538Y-126480228D01*
X118992071Y-126475551D01*
X118919540Y-126467982D01*
X118918503Y-126467794D01*
X118612521Y-126388716D01*
X118333546Y-126269950D01*
X118084659Y-126113614D01*
X117868938Y-125921827D01*
X117689461Y-125696708D01*
X117612520Y-125569090D01*
X117575076Y-125494779D01*
X117562588Y-125449862D01*
X117572311Y-125421155D01*
X117580005Y-125412917D01*
X117611529Y-125390134D01*
X117676493Y-125347918D01*
X117767080Y-125290990D01*
X117875473Y-125224071D01*
X117993855Y-125151884D01*
X118114410Y-125079148D01*
X118229319Y-125010586D01*
X118330767Y-124950919D01*
X118410936Y-124904867D01*
X118462009Y-124877154D01*
X118476660Y-124871349D01*
X118492074Y-124894647D01*
X118528626Y-124950238D01*
X118579614Y-125027922D01*
X118603040Y-125063645D01*
X118718636Y-125219789D01*
X118835005Y-125331170D01*
X118961159Y-125403151D01*
X119106107Y-125441097D01*
X119253000Y-125450600D01*
X119431009Y-125435914D01*
X119573565Y-125389400D01*
X119687505Y-125307376D01*
X119779667Y-125186157D01*
X119795221Y-125158500D01*
X119804853Y-125140033D01*
X119813292Y-125120535D01*
X119820630Y-125096681D01*
X119826957Y-125065143D01*
X119832363Y-125022598D01*
X119836940Y-124965717D01*
X119840777Y-124891176D01*
X119843966Y-124795648D01*
X119846596Y-124675808D01*
X119848759Y-124528329D01*
X119850544Y-124349885D01*
X119852043Y-124137151D01*
X119853346Y-123886801D01*
X119854543Y-123595508D01*
X119855725Y-123259947D01*
X119856935Y-122891550D01*
X119863971Y-120726200D01*
X121033103Y-120726200D01*
X121024731Y-122929650D01*
G36*
X135148242Y-120694035D02*
X135494690Y-120747894D01*
X135813588Y-120838701D01*
X136109800Y-120967679D01*
X136253992Y-121048726D01*
X136352332Y-121115971D01*
X136460033Y-121202240D01*
X136571417Y-121301447D01*
X136680806Y-121407504D01*
X136782521Y-121514323D01*
X136870885Y-121615817D01*
X136940219Y-121705897D01*
X136984844Y-121778477D01*
X136999083Y-121827469D01*
X136993121Y-121841136D01*
X136956796Y-121870059D01*
X136889237Y-121919904D01*
X136798189Y-121985289D01*
X136691397Y-122060832D01*
X136576603Y-122141150D01*
X136461553Y-122220862D01*
X136353991Y-122294586D01*
X136261660Y-122356939D01*
X136192305Y-122402539D01*
X136153671Y-122426005D01*
X136148702Y-122428000D01*
X136121907Y-122408812D01*
X136079703Y-122359978D01*
X136054793Y-122325958D01*
X135921261Y-122169585D01*
X135749695Y-122024846D01*
X135552799Y-121900910D01*
X135343279Y-121806943D01*
X135328145Y-121801613D01*
X135213312Y-121767252D01*
X135094590Y-121744381D01*
X134954122Y-121730123D01*
X134848600Y-121724361D01*
X134609760Y-121723806D01*
X134401345Y-121746436D01*
X134207080Y-121795434D01*
X134010695Y-121873983D01*
X133960459Y-121898069D01*
X133730034Y-122039452D01*
X133527325Y-122220662D01*
X133355024Y-122437317D01*
X133215824Y-122685035D01*
X133112417Y-122959434D01*
X133047494Y-123256131D01*
X133030255Y-123412145D01*
X133028218Y-123726342D01*
X133068635Y-124027341D01*
X133148968Y-124310921D01*
X133266679Y-124572866D01*
X133419229Y-124808958D01*
X133604079Y-125014977D01*
X133818690Y-125186707D01*
X134060524Y-125319929D01*
X134213600Y-125378325D01*
X134370500Y-125415453D01*
X134558650Y-125438883D01*
X134760199Y-125447949D01*
X134957296Y-125441985D01*
X135132089Y-125420324D01*
X135163940Y-125413797D01*
X135414482Y-125333477D01*
X135652688Y-125209753D01*
X135868622Y-125049348D01*
X136052347Y-124858989D01*
X136121720Y-124765564D01*
X136169448Y-124698457D01*
X136206456Y-124652351D01*
X136222374Y-124638454D01*
X136245506Y-124651836D01*
X136302899Y-124688861D01*
X136386958Y-124744387D01*
X136490084Y-124813275D01*
X136604681Y-124890383D01*
X136723152Y-124970570D01*
X136837900Y-125048697D01*
X136941327Y-125119623D01*
X137025837Y-125178207D01*
X137083832Y-125219308D01*
X137107076Y-125237099D01*
X137101591Y-125264879D01*
X137067467Y-125321788D01*
X137010847Y-125399926D01*
X136937872Y-125491397D01*
X136854686Y-125588301D01*
X136767431Y-125682742D01*
X136733940Y-125716885D01*
X136464228Y-125952617D01*
X136169310Y-126145116D01*
X135847772Y-126295075D01*
X135498198Y-126403190D01*
X135229705Y-126455308D01*
X135116291Y-126468637D01*
X134979755Y-126479005D01*
X134833571Y-126486011D01*
X134691214Y-126489256D01*
X134566157Y-126488342D01*
X134471877Y-126482869D01*
X134442200Y-126478642D01*
X134399645Y-126471125D01*
X134322582Y-126458191D01*
X134226663Y-126442462D01*
X134213600Y-126440345D01*
X133864985Y-126358804D01*
X133522224Y-126228982D01*
X133191532Y-126053398D01*
X133077315Y-125979929D01*
X132787932Y-125755013D01*
X132534402Y-125497191D01*
X132317956Y-125210731D01*
X132139828Y-124899904D01*
X132001250Y-124568979D01*
X131903454Y-124222226D01*
X131847673Y-123863915D01*
X131835140Y-123498316D01*
X131867087Y-123129698D01*
X131944747Y-122762331D01*
X132054525Y-122436848D01*
X132194135Y-122141649D01*
X132369502Y-121868200D01*
X132586480Y-121608066D01*
X132730770Y-121462754D01*
X133022576Y-121218866D01*
X133338445Y-121019528D01*
X133677254Y-120865174D01*
X134037881Y-120756237D01*
X134419203Y-120693150D01*
X134769377Y-120675903D01*
X135148242Y-120694035D01*
X135148242Y-120694035D01*
G37*
X135148242Y-120694035D02*
X135494690Y-120747894D01*
X135813588Y-120838701D01*
X136109800Y-120967679D01*
X136253992Y-121048726D01*
X136352332Y-121115971D01*
X136460033Y-121202240D01*
X136571417Y-121301447D01*
X136680806Y-121407504D01*
X136782521Y-121514323D01*
X136870885Y-121615817D01*
X136940219Y-121705897D01*
X136984844Y-121778477D01*
X136999083Y-121827469D01*
X136993121Y-121841136D01*
X136956796Y-121870059D01*
X136889237Y-121919904D01*
X136798189Y-121985289D01*
X136691397Y-122060832D01*
X136576603Y-122141150D01*
X136461553Y-122220862D01*
X136353991Y-122294586D01*
X136261660Y-122356939D01*
X136192305Y-122402539D01*
X136153671Y-122426005D01*
X136148702Y-122428000D01*
X136121907Y-122408812D01*
X136079703Y-122359978D01*
X136054793Y-122325958D01*
X135921261Y-122169585D01*
X135749695Y-122024846D01*
X135552799Y-121900910D01*
X135343279Y-121806943D01*
X135328145Y-121801613D01*
X135213312Y-121767252D01*
X135094590Y-121744381D01*
X134954122Y-121730123D01*
X134848600Y-121724361D01*
X134609760Y-121723806D01*
X134401345Y-121746436D01*
X134207080Y-121795434D01*
X134010695Y-121873983D01*
X133960459Y-121898069D01*
X133730034Y-122039452D01*
X133527325Y-122220662D01*
X133355024Y-122437317D01*
X133215824Y-122685035D01*
X133112417Y-122959434D01*
X133047494Y-123256131D01*
X133030255Y-123412145D01*
X133028218Y-123726342D01*
X133068635Y-124027341D01*
X133148968Y-124310921D01*
X133266679Y-124572866D01*
X133419229Y-124808958D01*
X133604079Y-125014977D01*
X133818690Y-125186707D01*
X134060524Y-125319929D01*
X134213600Y-125378325D01*
X134370500Y-125415453D01*
X134558650Y-125438883D01*
X134760199Y-125447949D01*
X134957296Y-125441985D01*
X135132089Y-125420324D01*
X135163940Y-125413797D01*
X135414482Y-125333477D01*
X135652688Y-125209753D01*
X135868622Y-125049348D01*
X136052347Y-124858989D01*
X136121720Y-124765564D01*
X136169448Y-124698457D01*
X136206456Y-124652351D01*
X136222374Y-124638454D01*
X136245506Y-124651836D01*
X136302899Y-124688861D01*
X136386958Y-124744387D01*
X136490084Y-124813275D01*
X136604681Y-124890383D01*
X136723152Y-124970570D01*
X136837900Y-125048697D01*
X136941327Y-125119623D01*
X137025837Y-125178207D01*
X137083832Y-125219308D01*
X137107076Y-125237099D01*
X137101591Y-125264879D01*
X137067467Y-125321788D01*
X137010847Y-125399926D01*
X136937872Y-125491397D01*
X136854686Y-125588301D01*
X136767431Y-125682742D01*
X136733940Y-125716885D01*
X136464228Y-125952617D01*
X136169310Y-126145116D01*
X135847772Y-126295075D01*
X135498198Y-126403190D01*
X135229705Y-126455308D01*
X135116291Y-126468637D01*
X134979755Y-126479005D01*
X134833571Y-126486011D01*
X134691214Y-126489256D01*
X134566157Y-126488342D01*
X134471877Y-126482869D01*
X134442200Y-126478642D01*
X134399645Y-126471125D01*
X134322582Y-126458191D01*
X134226663Y-126442462D01*
X134213600Y-126440345D01*
X133864985Y-126358804D01*
X133522224Y-126228982D01*
X133191532Y-126053398D01*
X133077315Y-125979929D01*
X132787932Y-125755013D01*
X132534402Y-125497191D01*
X132317956Y-125210731D01*
X132139828Y-124899904D01*
X132001250Y-124568979D01*
X131903454Y-124222226D01*
X131847673Y-123863915D01*
X131835140Y-123498316D01*
X131867087Y-123129698D01*
X131944747Y-122762331D01*
X132054525Y-122436848D01*
X132194135Y-122141649D01*
X132369502Y-121868200D01*
X132586480Y-121608066D01*
X132730770Y-121462754D01*
X133022576Y-121218866D01*
X133338445Y-121019528D01*
X133677254Y-120865174D01*
X134037881Y-120756237D01*
X134419203Y-120693150D01*
X134769377Y-120675903D01*
X135148242Y-120694035D01*
G36*
X126263400Y-121742200D02*
X124637800Y-121742200D01*
X124637800Y-126415800D01*
X123469400Y-126415800D01*
X123469400Y-121742200D01*
X121843800Y-121742200D01*
X121843800Y-120726200D01*
X126263400Y-120726200D01*
X126263400Y-121742200D01*
X126263400Y-121742200D01*
G37*
X126263400Y-121742200D02*
X124637800Y-121742200D01*
X124637800Y-126415800D01*
X123469400Y-126415800D01*
X123469400Y-121742200D01*
X121843800Y-121742200D01*
X121843800Y-120726200D01*
X126263400Y-120726200D01*
X126263400Y-121742200D01*
G36*
X130886200Y-121742200D02*
X128295400Y-121742200D01*
X128295400Y-123571000D01*
X130581400Y-123571000D01*
X130581400Y-124561600D01*
X128295400Y-124561600D01*
X128295400Y-125399800D01*
X131013200Y-125399800D01*
X131013200Y-126415800D01*
X127127000Y-126415800D01*
X127127000Y-120726200D01*
X130886200Y-120726200D01*
X130886200Y-121742200D01*
X130886200Y-121742200D01*
G37*
X130886200Y-121742200D02*
X128295400Y-121742200D01*
X128295400Y-123571000D01*
X130581400Y-123571000D01*
X130581400Y-124561600D01*
X128295400Y-124561600D01*
X128295400Y-125399800D01*
X131013200Y-125399800D01*
X131013200Y-126415800D01*
X127127000Y-126415800D01*
X127127000Y-120726200D01*
X130886200Y-120726200D01*
X130886200Y-121742200D01*
G36*
X139166600Y-123647200D02*
X141630400Y-123647200D01*
X141630400Y-120726200D01*
X142773400Y-120726200D01*
X142773400Y-126415800D01*
X141630400Y-126415800D01*
X141630400Y-124688600D01*
X139166600Y-124688600D01*
X139166600Y-126415800D01*
X138023600Y-126415800D01*
X138023600Y-120726200D01*
X139166600Y-120726200D01*
X139166600Y-123647200D01*
X139166600Y-123647200D01*
G37*
X139166600Y-123647200D02*
X141630400Y-123647200D01*
X141630400Y-120726200D01*
X142773400Y-120726200D01*
X142773400Y-126415800D01*
X141630400Y-126415800D01*
X141630400Y-124688600D01*
X139166600Y-124688600D01*
X139166600Y-126415800D01*
X138023600Y-126415800D01*
X138023600Y-120726200D01*
X139166600Y-120726200D01*
X139166600Y-123647200D01*
G36*
X132002392Y-104553719D02*
X131864685Y-104746909D01*
X131731479Y-104935030D01*
X131628040Y-105083865D01*
X131554574Y-105193107D01*
X131511285Y-105262451D01*
X131498379Y-105291593D01*
X131498826Y-105292334D01*
X131528437Y-105313123D01*
X131593739Y-105357606D01*
X131689326Y-105422171D01*
X131809791Y-105503209D01*
X131949727Y-105597109D01*
X132103728Y-105700259D01*
X132266386Y-105809050D01*
X132432294Y-105919870D01*
X132596046Y-106029109D01*
X132752235Y-106133156D01*
X132895453Y-106228401D01*
X133020295Y-106311233D01*
X133121352Y-106378042D01*
X133193219Y-106425216D01*
X133230488Y-106449145D01*
X133234502Y-106451399D01*
X133258349Y-106437588D01*
X133315031Y-106399987D01*
X133396055Y-106344347D01*
X133492462Y-106276748D01*
X133739287Y-106102096D01*
X134097883Y-106413364D01*
X134456478Y-106724631D01*
X134503638Y-107115065D01*
X134521673Y-107254029D01*
X134540093Y-107378016D01*
X134557215Y-107476885D01*
X134571356Y-107540495D01*
X134576809Y-107555961D01*
X134598263Y-107588935D01*
X134645909Y-107656955D01*
X134715624Y-107754307D01*
X134803286Y-107875274D01*
X134904769Y-108014141D01*
X135015951Y-108165193D01*
X135032831Y-108188036D01*
X135126378Y-108317406D01*
X135235096Y-108472511D01*
X135355146Y-108647464D01*
X135482689Y-108836377D01*
X135613888Y-109033362D01*
X135744904Y-109232531D01*
X135871900Y-109427996D01*
X135991036Y-109613870D01*
X136098475Y-109784264D01*
X136190378Y-109933290D01*
X136262907Y-110055060D01*
X136312224Y-110143686D01*
X136326322Y-110172282D01*
X136329246Y-110196018D01*
X136321126Y-110236082D01*
X136300011Y-110297092D01*
X136263949Y-110383666D01*
X136210989Y-110500422D01*
X136139180Y-110651979D01*
X136046573Y-110842955D01*
X136020295Y-110896678D01*
X135690770Y-111569500D01*
X134993641Y-112186590D01*
X134831978Y-112329966D01*
X134680447Y-112464881D01*
X134543738Y-112587119D01*
X134426539Y-112692466D01*
X134333540Y-112776706D01*
X134269430Y-112835626D01*
X134239359Y-112864517D01*
X134182206Y-112925353D01*
X135366619Y-116494322D01*
X135503198Y-116905833D01*
X135635522Y-117304444D01*
X135762697Y-117687464D01*
X135883827Y-118052200D01*
X135998018Y-118395960D01*
X136104374Y-118716053D01*
X136202001Y-119009787D01*
X136290005Y-119274470D01*
X136367489Y-119507410D01*
X136433559Y-119705915D01*
X136487321Y-119867293D01*
X136527880Y-119988853D01*
X136554340Y-120067903D01*
X136565807Y-120101750D01*
X136566133Y-120102645D01*
X136564708Y-120108278D01*
X136554247Y-120113352D01*
X136532283Y-120117898D01*
X136496354Y-120121942D01*
X136443995Y-120125514D01*
X136372740Y-120128643D01*
X136280125Y-120131357D01*
X136163685Y-120133684D01*
X136020957Y-120135654D01*
X135849475Y-120137294D01*
X135646774Y-120138634D01*
X135410391Y-120139702D01*
X135137860Y-120140526D01*
X134826717Y-120141136D01*
X134474498Y-120141560D01*
X134078737Y-120141826D01*
X133636970Y-120141963D01*
X133174917Y-120142000D01*
X132763339Y-120141897D01*
X132365987Y-120141597D01*
X131985797Y-120141112D01*
X131625705Y-120140453D01*
X131288647Y-120139634D01*
X130977561Y-120138666D01*
X130695383Y-120137561D01*
X130445049Y-120136331D01*
X130229495Y-120134989D01*
X130051659Y-120133546D01*
X129914477Y-120132015D01*
X129820884Y-120130408D01*
X129773818Y-120128736D01*
X129768600Y-120127958D01*
X129778532Y-120102842D01*
X129807173Y-120035216D01*
X129852787Y-119929072D01*
X129913639Y-119788403D01*
X129987994Y-119617204D01*
X130074118Y-119419468D01*
X130170276Y-119199188D01*
X130274731Y-118960358D01*
X130385751Y-118706972D01*
X130404535Y-118664142D01*
X130535697Y-118364744D01*
X130647562Y-118108389D01*
X130741490Y-117891710D01*
X130818837Y-117711338D01*
X130880962Y-117563905D01*
X130929224Y-117446043D01*
X130964979Y-117354383D01*
X130989588Y-117285558D01*
X131004406Y-117236199D01*
X131010793Y-117202939D01*
X131010106Y-117182408D01*
X131005679Y-117173234D01*
X130981269Y-117144089D01*
X130929526Y-117082105D01*
X130854599Y-116992264D01*
X130760634Y-116879546D01*
X130651782Y-116748931D01*
X130532190Y-116605401D01*
X130406007Y-116453936D01*
X130277382Y-116299516D01*
X130150464Y-116147122D01*
X130029399Y-116001735D01*
X129918338Y-115868336D01*
X129821429Y-115751904D01*
X129742820Y-115657421D01*
X129686660Y-115589868D01*
X129657097Y-115554224D01*
X129653597Y-115549952D01*
X129631250Y-115560285D01*
X129571742Y-115593307D01*
X129481361Y-115645378D01*
X129366392Y-115712858D01*
X129233120Y-115792107D01*
X129168585Y-115830799D01*
X128689100Y-116118994D01*
X128460500Y-116941310D01*
X127088900Y-117908554D01*
X126802871Y-118110603D01*
X126556248Y-118285614D01*
X126346614Y-118435383D01*
X126171552Y-118561708D01*
X126028645Y-118666388D01*
X125915478Y-118751219D01*
X125829632Y-118818001D01*
X125768692Y-118868530D01*
X125730241Y-118904604D01*
X125711863Y-118928021D01*
X125709525Y-118934680D01*
X125708789Y-118990158D01*
X125714622Y-119075987D01*
X125724215Y-119161233D01*
X125746680Y-119328904D01*
X125477990Y-119734844D01*
X125393930Y-119860808D01*
X125319296Y-119970688D01*
X125258594Y-120058006D01*
X125216333Y-120116288D01*
X125197019Y-120139056D01*
X125196600Y-120139149D01*
X125170981Y-120128127D01*
X125106433Y-120098208D01*
X125009760Y-120052607D01*
X124887769Y-119994541D01*
X124747263Y-119927227D01*
X124688600Y-119899010D01*
X124193300Y-119660505D01*
X124197119Y-119488502D01*
X124199669Y-119400508D01*
X124204066Y-119276118D01*
X124209767Y-119129681D01*
X124216228Y-118975547D01*
X124218670Y-118920149D01*
X124236401Y-118523798D01*
X124797296Y-118259749D01*
X124975583Y-118175322D01*
X125113757Y-118108340D01*
X125217962Y-118055244D01*
X125294339Y-118012475D01*
X125349029Y-117976472D01*
X125388176Y-117943677D01*
X125417920Y-117910528D01*
X125431597Y-117892130D01*
X125460370Y-117849756D01*
X125513617Y-117769539D01*
X125588196Y-117656278D01*
X125680968Y-117514769D01*
X125788790Y-117349810D01*
X125908524Y-117166197D01*
X126037027Y-116968728D01*
X126146675Y-116799930D01*
X126788346Y-115811300D01*
X127160086Y-115595400D01*
X127284551Y-115522401D01*
X127393988Y-115456871D01*
X127480630Y-115403569D01*
X127536714Y-115367249D01*
X127553980Y-115354100D01*
X127570408Y-115324419D01*
X127604203Y-115255285D01*
X127652099Y-115153665D01*
X127710832Y-115026529D01*
X127777135Y-114880844D01*
X127811520Y-114804527D01*
X128046907Y-114280354D01*
X128757699Y-113432927D01*
X128938627Y-113215785D01*
X129101069Y-113017947D01*
X129242469Y-112842645D01*
X129360275Y-112693117D01*
X129451931Y-112572597D01*
X129514885Y-112484320D01*
X129544008Y-112436879D01*
X129581069Y-112359988D01*
X129604773Y-112302993D01*
X129609999Y-112278732D01*
X129583114Y-112281754D01*
X129523737Y-112299541D01*
X129468363Y-112319402D01*
X129330223Y-112360332D01*
X129215828Y-112365375D01*
X129112271Y-112333820D01*
X129048847Y-112296253D01*
X128841437Y-112133309D01*
X128649827Y-111943653D01*
X128480383Y-111736020D01*
X128339474Y-111519147D01*
X128233467Y-111301770D01*
X128168731Y-111092623D01*
X128167666Y-111087426D01*
X128149040Y-110870823D01*
X128179844Y-110656204D01*
X128258710Y-110446074D01*
X128384271Y-110242940D01*
X128555159Y-110049307D01*
X128770007Y-109867680D01*
X128872587Y-109795869D01*
X129118222Y-109655726D01*
X129356321Y-109565597D01*
X129585981Y-109525316D01*
X129806296Y-109534717D01*
X130016364Y-109593634D01*
X130215281Y-109701901D01*
X130402141Y-109859352D01*
X130576041Y-110065821D01*
X130610440Y-110114821D01*
X130706460Y-110271348D01*
X130805090Y-110459212D01*
X130897666Y-110660218D01*
X130975524Y-110856170D01*
X131005630Y-110944687D01*
X131036839Y-111042150D01*
X131062114Y-111119358D01*
X131077694Y-111164900D01*
X131080604Y-111172131D01*
X131105646Y-111181745D01*
X131171584Y-111202815D01*
X131270450Y-111232911D01*
X131394275Y-111269600D01*
X131512863Y-111304057D01*
X131939429Y-111426950D01*
X133120964Y-110777523D01*
X133346310Y-110653528D01*
X133558155Y-110536706D01*
X133752332Y-110429370D01*
X133924674Y-110333836D01*
X134071015Y-110252420D01*
X134187187Y-110187438D01*
X134269025Y-110141204D01*
X134312361Y-110116035D01*
X134318192Y-110112197D01*
X134320155Y-110083469D01*
X134317150Y-110011489D01*
X134309712Y-109903505D01*
X134298377Y-109766767D01*
X134283679Y-109608524D01*
X134273501Y-109506589D01*
X134253649Y-109315774D01*
X134236493Y-109164324D01*
X134219823Y-109041038D01*
X134201432Y-108934719D01*
X134179112Y-108834167D01*
X134150655Y-108728183D01*
X134113853Y-108605569D01*
X134066497Y-108455126D01*
X134065660Y-108452489D01*
X133918200Y-107988100D01*
X133585276Y-107937300D01*
X133460492Y-107917158D01*
X133354206Y-107897927D01*
X133276347Y-107881555D01*
X133236844Y-107869992D01*
X133234405Y-107868412D01*
X133223230Y-107838252D01*
X133204660Y-107767575D01*
X133180937Y-107665737D01*
X133154305Y-107542098D01*
X133143305Y-107488458D01*
X133116083Y-107358762D01*
X133090767Y-107247180D01*
X133069623Y-107163050D01*
X133054913Y-107115712D01*
X133051325Y-107109157D01*
X133013815Y-107078379D01*
X132942348Y-107023409D01*
X132841929Y-106947880D01*
X132717561Y-106855429D01*
X132574247Y-106749688D01*
X132416990Y-106634292D01*
X132250795Y-106512875D01*
X132080663Y-106389071D01*
X131911599Y-106266516D01*
X131748606Y-106148842D01*
X131596687Y-106039684D01*
X131460846Y-105942677D01*
X131346085Y-105861454D01*
X131257409Y-105799650D01*
X131199820Y-105760900D01*
X131178439Y-105748757D01*
X131154330Y-105771611D01*
X131107949Y-105827415D01*
X131046194Y-105907528D01*
X130982803Y-105993786D01*
X130912850Y-106090203D01*
X130852301Y-106172205D01*
X130808117Y-106230457D01*
X130788233Y-106254726D01*
X130759475Y-106250254D01*
X130699659Y-106220232D01*
X130617458Y-106170764D01*
X130521548Y-106107954D01*
X130420602Y-106037906D01*
X130323295Y-105966725D01*
X130238300Y-105900514D01*
X130174292Y-105845378D01*
X130139945Y-105807420D01*
X130136761Y-105796279D01*
X130155569Y-105763786D01*
X130197936Y-105699399D01*
X130257627Y-105612366D01*
X130328403Y-105511937D01*
X130330088Y-105509576D01*
X130405518Y-105403011D01*
X130454723Y-105329403D01*
X130481400Y-105280652D01*
X130489244Y-105248661D01*
X130481951Y-105225333D01*
X130467890Y-105207673D01*
X130447449Y-105183637D01*
X130438932Y-105161207D01*
X130445955Y-105131365D01*
X130472133Y-105085094D01*
X130521079Y-105013376D01*
X130577886Y-104933270D01*
X130636442Y-104853613D01*
X130677559Y-104808453D01*
X130711705Y-104789838D01*
X130749347Y-104789817D01*
X130763372Y-104792344D01*
X130796444Y-104793995D01*
X130838394Y-104784481D01*
X130895848Y-104760609D01*
X130975432Y-104719185D01*
X131083773Y-104657017D01*
X131227497Y-104570911D01*
X131245474Y-104560009D01*
X131652878Y-104312735D01*
X132002392Y-104553719D01*
X132002392Y-104553719D01*
G37*
X132002392Y-104553719D02*
X131864685Y-104746909D01*
X131731479Y-104935030D01*
X131628040Y-105083865D01*
X131554574Y-105193107D01*
X131511285Y-105262451D01*
X131498379Y-105291593D01*
X131498826Y-105292334D01*
X131528437Y-105313123D01*
X131593739Y-105357606D01*
X131689326Y-105422171D01*
X131809791Y-105503209D01*
X131949727Y-105597109D01*
X132103728Y-105700259D01*
X132266386Y-105809050D01*
X132432294Y-105919870D01*
X132596046Y-106029109D01*
X132752235Y-106133156D01*
X132895453Y-106228401D01*
X133020295Y-106311233D01*
X133121352Y-106378042D01*
X133193219Y-106425216D01*
X133230488Y-106449145D01*
X133234502Y-106451399D01*
X133258349Y-106437588D01*
X133315031Y-106399987D01*
X133396055Y-106344347D01*
X133492462Y-106276748D01*
X133739287Y-106102096D01*
X134097883Y-106413364D01*
X134456478Y-106724631D01*
X134503638Y-107115065D01*
X134521673Y-107254029D01*
X134540093Y-107378016D01*
X134557215Y-107476885D01*
X134571356Y-107540495D01*
X134576809Y-107555961D01*
X134598263Y-107588935D01*
X134645909Y-107656955D01*
X134715624Y-107754307D01*
X134803286Y-107875274D01*
X134904769Y-108014141D01*
X135015951Y-108165193D01*
X135032831Y-108188036D01*
X135126378Y-108317406D01*
X135235096Y-108472511D01*
X135355146Y-108647464D01*
X135482689Y-108836377D01*
X135613888Y-109033362D01*
X135744904Y-109232531D01*
X135871900Y-109427996D01*
X135991036Y-109613870D01*
X136098475Y-109784264D01*
X136190378Y-109933290D01*
X136262907Y-110055060D01*
X136312224Y-110143686D01*
X136326322Y-110172282D01*
X136329246Y-110196018D01*
X136321126Y-110236082D01*
X136300011Y-110297092D01*
X136263949Y-110383666D01*
X136210989Y-110500422D01*
X136139180Y-110651979D01*
X136046573Y-110842955D01*
X136020295Y-110896678D01*
X135690770Y-111569500D01*
X134993641Y-112186590D01*
X134831978Y-112329966D01*
X134680447Y-112464881D01*
X134543738Y-112587119D01*
X134426539Y-112692466D01*
X134333540Y-112776706D01*
X134269430Y-112835626D01*
X134239359Y-112864517D01*
X134182206Y-112925353D01*
X135366619Y-116494322D01*
X135503198Y-116905833D01*
X135635522Y-117304444D01*
X135762697Y-117687464D01*
X135883827Y-118052200D01*
X135998018Y-118395960D01*
X136104374Y-118716053D01*
X136202001Y-119009787D01*
X136290005Y-119274470D01*
X136367489Y-119507410D01*
X136433559Y-119705915D01*
X136487321Y-119867293D01*
X136527880Y-119988853D01*
X136554340Y-120067903D01*
X136565807Y-120101750D01*
X136566133Y-120102645D01*
X136564708Y-120108278D01*
X136554247Y-120113352D01*
X136532283Y-120117898D01*
X136496354Y-120121942D01*
X136443995Y-120125514D01*
X136372740Y-120128643D01*
X136280125Y-120131357D01*
X136163685Y-120133684D01*
X136020957Y-120135654D01*
X135849475Y-120137294D01*
X135646774Y-120138634D01*
X135410391Y-120139702D01*
X135137860Y-120140526D01*
X134826717Y-120141136D01*
X134474498Y-120141560D01*
X134078737Y-120141826D01*
X133636970Y-120141963D01*
X133174917Y-120142000D01*
X132763339Y-120141897D01*
X132365987Y-120141597D01*
X131985797Y-120141112D01*
X131625705Y-120140453D01*
X131288647Y-120139634D01*
X130977561Y-120138666D01*
X130695383Y-120137561D01*
X130445049Y-120136331D01*
X130229495Y-120134989D01*
X130051659Y-120133546D01*
X129914477Y-120132015D01*
X129820884Y-120130408D01*
X129773818Y-120128736D01*
X129768600Y-120127958D01*
X129778532Y-120102842D01*
X129807173Y-120035216D01*
X129852787Y-119929072D01*
X129913639Y-119788403D01*
X129987994Y-119617204D01*
X130074118Y-119419468D01*
X130170276Y-119199188D01*
X130274731Y-118960358D01*
X130385751Y-118706972D01*
X130404535Y-118664142D01*
X130535697Y-118364744D01*
X130647562Y-118108389D01*
X130741490Y-117891710D01*
X130818837Y-117711338D01*
X130880962Y-117563905D01*
X130929224Y-117446043D01*
X130964979Y-117354383D01*
X130989588Y-117285558D01*
X131004406Y-117236199D01*
X131010793Y-117202939D01*
X131010106Y-117182408D01*
X131005679Y-117173234D01*
X130981269Y-117144089D01*
X130929526Y-117082105D01*
X130854599Y-116992264D01*
X130760634Y-116879546D01*
X130651782Y-116748931D01*
X130532190Y-116605401D01*
X130406007Y-116453936D01*
X130277382Y-116299516D01*
X130150464Y-116147122D01*
X130029399Y-116001735D01*
X129918338Y-115868336D01*
X129821429Y-115751904D01*
X129742820Y-115657421D01*
X129686660Y-115589868D01*
X129657097Y-115554224D01*
X129653597Y-115549952D01*
X129631250Y-115560285D01*
X129571742Y-115593307D01*
X129481361Y-115645378D01*
X129366392Y-115712858D01*
X129233120Y-115792107D01*
X129168585Y-115830799D01*
X128689100Y-116118994D01*
X128460500Y-116941310D01*
X127088900Y-117908554D01*
X126802871Y-118110603D01*
X126556248Y-118285614D01*
X126346614Y-118435383D01*
X126171552Y-118561708D01*
X126028645Y-118666388D01*
X125915478Y-118751219D01*
X125829632Y-118818001D01*
X125768692Y-118868530D01*
X125730241Y-118904604D01*
X125711863Y-118928021D01*
X125709525Y-118934680D01*
X125708789Y-118990158D01*
X125714622Y-119075987D01*
X125724215Y-119161233D01*
X125746680Y-119328904D01*
X125477990Y-119734844D01*
X125393930Y-119860808D01*
X125319296Y-119970688D01*
X125258594Y-120058006D01*
X125216333Y-120116288D01*
X125197019Y-120139056D01*
X125196600Y-120139149D01*
X125170981Y-120128127D01*
X125106433Y-120098208D01*
X125009760Y-120052607D01*
X124887769Y-119994541D01*
X124747263Y-119927227D01*
X124688600Y-119899010D01*
X124193300Y-119660505D01*
X124197119Y-119488502D01*
X124199669Y-119400508D01*
X124204066Y-119276118D01*
X124209767Y-119129681D01*
X124216228Y-118975547D01*
X124218670Y-118920149D01*
X124236401Y-118523798D01*
X124797296Y-118259749D01*
X124975583Y-118175322D01*
X125113757Y-118108340D01*
X125217962Y-118055244D01*
X125294339Y-118012475D01*
X125349029Y-117976472D01*
X125388176Y-117943677D01*
X125417920Y-117910528D01*
X125431597Y-117892130D01*
X125460370Y-117849756D01*
X125513617Y-117769539D01*
X125588196Y-117656278D01*
X125680968Y-117514769D01*
X125788790Y-117349810D01*
X125908524Y-117166197D01*
X126037027Y-116968728D01*
X126146675Y-116799930D01*
X126788346Y-115811300D01*
X127160086Y-115595400D01*
X127284551Y-115522401D01*
X127393988Y-115456871D01*
X127480630Y-115403569D01*
X127536714Y-115367249D01*
X127553980Y-115354100D01*
X127570408Y-115324419D01*
X127604203Y-115255285D01*
X127652099Y-115153665D01*
X127710832Y-115026529D01*
X127777135Y-114880844D01*
X127811520Y-114804527D01*
X128046907Y-114280354D01*
X128757699Y-113432927D01*
X128938627Y-113215785D01*
X129101069Y-113017947D01*
X129242469Y-112842645D01*
X129360275Y-112693117D01*
X129451931Y-112572597D01*
X129514885Y-112484320D01*
X129544008Y-112436879D01*
X129581069Y-112359988D01*
X129604773Y-112302993D01*
X129609999Y-112278732D01*
X129583114Y-112281754D01*
X129523737Y-112299541D01*
X129468363Y-112319402D01*
X129330223Y-112360332D01*
X129215828Y-112365375D01*
X129112271Y-112333820D01*
X129048847Y-112296253D01*
X128841437Y-112133309D01*
X128649827Y-111943653D01*
X128480383Y-111736020D01*
X128339474Y-111519147D01*
X128233467Y-111301770D01*
X128168731Y-111092623D01*
X128167666Y-111087426D01*
X128149040Y-110870823D01*
X128179844Y-110656204D01*
X128258710Y-110446074D01*
X128384271Y-110242940D01*
X128555159Y-110049307D01*
X128770007Y-109867680D01*
X128872587Y-109795869D01*
X129118222Y-109655726D01*
X129356321Y-109565597D01*
X129585981Y-109525316D01*
X129806296Y-109534717D01*
X130016364Y-109593634D01*
X130215281Y-109701901D01*
X130402141Y-109859352D01*
X130576041Y-110065821D01*
X130610440Y-110114821D01*
X130706460Y-110271348D01*
X130805090Y-110459212D01*
X130897666Y-110660218D01*
X130975524Y-110856170D01*
X131005630Y-110944687D01*
X131036839Y-111042150D01*
X131062114Y-111119358D01*
X131077694Y-111164900D01*
X131080604Y-111172131D01*
X131105646Y-111181745D01*
X131171584Y-111202815D01*
X131270450Y-111232911D01*
X131394275Y-111269600D01*
X131512863Y-111304057D01*
X131939429Y-111426950D01*
X133120964Y-110777523D01*
X133346310Y-110653528D01*
X133558155Y-110536706D01*
X133752332Y-110429370D01*
X133924674Y-110333836D01*
X134071015Y-110252420D01*
X134187187Y-110187438D01*
X134269025Y-110141204D01*
X134312361Y-110116035D01*
X134318192Y-110112197D01*
X134320155Y-110083469D01*
X134317150Y-110011489D01*
X134309712Y-109903505D01*
X134298377Y-109766767D01*
X134283679Y-109608524D01*
X134273501Y-109506589D01*
X134253649Y-109315774D01*
X134236493Y-109164324D01*
X134219823Y-109041038D01*
X134201432Y-108934719D01*
X134179112Y-108834167D01*
X134150655Y-108728183D01*
X134113853Y-108605569D01*
X134066497Y-108455126D01*
X134065660Y-108452489D01*
X133918200Y-107988100D01*
X133585276Y-107937300D01*
X133460492Y-107917158D01*
X133354206Y-107897927D01*
X133276347Y-107881555D01*
X133236844Y-107869992D01*
X133234405Y-107868412D01*
X133223230Y-107838252D01*
X133204660Y-107767575D01*
X133180937Y-107665737D01*
X133154305Y-107542098D01*
X133143305Y-107488458D01*
X133116083Y-107358762D01*
X133090767Y-107247180D01*
X133069623Y-107163050D01*
X133054913Y-107115712D01*
X133051325Y-107109157D01*
X133013815Y-107078379D01*
X132942348Y-107023409D01*
X132841929Y-106947880D01*
X132717561Y-106855429D01*
X132574247Y-106749688D01*
X132416990Y-106634292D01*
X132250795Y-106512875D01*
X132080663Y-106389071D01*
X131911599Y-106266516D01*
X131748606Y-106148842D01*
X131596687Y-106039684D01*
X131460846Y-105942677D01*
X131346085Y-105861454D01*
X131257409Y-105799650D01*
X131199820Y-105760900D01*
X131178439Y-105748757D01*
X131154330Y-105771611D01*
X131107949Y-105827415D01*
X131046194Y-105907528D01*
X130982803Y-105993786D01*
X130912850Y-106090203D01*
X130852301Y-106172205D01*
X130808117Y-106230457D01*
X130788233Y-106254726D01*
X130759475Y-106250254D01*
X130699659Y-106220232D01*
X130617458Y-106170764D01*
X130521548Y-106107954D01*
X130420602Y-106037906D01*
X130323295Y-105966725D01*
X130238300Y-105900514D01*
X130174292Y-105845378D01*
X130139945Y-105807420D01*
X130136761Y-105796279D01*
X130155569Y-105763786D01*
X130197936Y-105699399D01*
X130257627Y-105612366D01*
X130328403Y-105511937D01*
X130330088Y-105509576D01*
X130405518Y-105403011D01*
X130454723Y-105329403D01*
X130481400Y-105280652D01*
X130489244Y-105248661D01*
X130481951Y-105225333D01*
X130467890Y-105207673D01*
X130447449Y-105183637D01*
X130438932Y-105161207D01*
X130445955Y-105131365D01*
X130472133Y-105085094D01*
X130521079Y-105013376D01*
X130577886Y-104933270D01*
X130636442Y-104853613D01*
X130677559Y-104808453D01*
X130711705Y-104789838D01*
X130749347Y-104789817D01*
X130763372Y-104792344D01*
X130796444Y-104793995D01*
X130838394Y-104784481D01*
X130895848Y-104760609D01*
X130975432Y-104719185D01*
X131083773Y-104657017D01*
X131227497Y-104570911D01*
X131245474Y-104560009D01*
X131652878Y-104312735D01*
X132002392Y-104553719D01*
G36*
X130049024Y-104776495D02*
X129978531Y-104904905D01*
X129937543Y-105022436D01*
X129932491Y-105050042D01*
X129910454Y-105135248D01*
X129863578Y-105234926D01*
X129786934Y-105359268D01*
X129772484Y-105380796D01*
X129628900Y-105592893D01*
X129628900Y-105801751D01*
X129631501Y-105901762D01*
X129642532Y-105985289D01*
X129666831Y-106058652D01*
X129709235Y-106128170D01*
X129774584Y-106200164D01*
X129867715Y-106280953D01*
X129993468Y-106376857D01*
X130156679Y-106494196D01*
X130161812Y-106497835D01*
X130312540Y-106603210D01*
X130429696Y-106681324D01*
X130519864Y-106736028D01*
X130589631Y-106771174D01*
X130645580Y-106790613D01*
X130671252Y-106795770D01*
X130842497Y-106798773D01*
X130997099Y-106756004D01*
X131129547Y-106669754D01*
X131217211Y-106568991D01*
X131265480Y-106511782D01*
X131305942Y-106488819D01*
X131314703Y-106489861D01*
X131343178Y-106507742D01*
X131407143Y-106552106D01*
X131501308Y-106619147D01*
X131620380Y-106705060D01*
X131759067Y-106806039D01*
X131912078Y-106918279D01*
X131976986Y-106966124D01*
X132604467Y-107429300D01*
X132662549Y-107727217D01*
X132711509Y-107933373D01*
X132771690Y-108094744D01*
X132847812Y-108216929D01*
X132944595Y-108305526D01*
X133066757Y-108366132D01*
X133219017Y-108404347D01*
X133235700Y-108407092D01*
X133332742Y-108422776D01*
X133415561Y-108436740D01*
X133465778Y-108445875D01*
X133505369Y-108471185D01*
X133540462Y-108534638D01*
X133561028Y-108592843D01*
X133584550Y-108669769D01*
X133600158Y-108725232D01*
X133604000Y-108743204D01*
X133582034Y-108740924D01*
X133522933Y-108723397D01*
X133436889Y-108693832D01*
X133375365Y-108671197D01*
X132766678Y-108468549D01*
X132147080Y-108313779D01*
X131519834Y-108206813D01*
X130888206Y-108147576D01*
X130255462Y-108135993D01*
X129624867Y-108171989D01*
X128999686Y-108255488D01*
X128383184Y-108386415D01*
X127778628Y-108564696D01*
X127189282Y-108790255D01*
X127132939Y-108814694D01*
X126547899Y-109098431D01*
X125990959Y-109423456D01*
X125463822Y-109787651D01*
X124968190Y-110188903D01*
X124505763Y-110625095D01*
X124078245Y-111094112D01*
X123687338Y-111593839D01*
X123334743Y-112122160D01*
X123022162Y-112676960D01*
X122751297Y-113256123D01*
X122523850Y-113857535D01*
X122341524Y-114479079D01*
X122249753Y-114884200D01*
X122161784Y-115422613D01*
X122111544Y-115978475D01*
X122097800Y-116484400D01*
X122114581Y-117044309D01*
X122166112Y-117586026D01*
X122254172Y-118118377D01*
X122380541Y-118650188D01*
X122546999Y-119190284D01*
X122755325Y-119747491D01*
X122756357Y-119750045D01*
X122904604Y-120116600D01*
X119156347Y-120116600D01*
X119100323Y-119932450D01*
X118896886Y-119178560D01*
X118743646Y-118420323D01*
X118640583Y-117659287D01*
X118587677Y-116897000D01*
X118584911Y-116135010D01*
X118632265Y-115374863D01*
X118729720Y-114618108D01*
X118877258Y-113866293D01*
X119074858Y-113120966D01*
X119188375Y-112763300D01*
X119461620Y-112024594D01*
X119777838Y-111312578D01*
X120136627Y-110627896D01*
X120537581Y-109971194D01*
X120980297Y-109343118D01*
X121464370Y-108744313D01*
X121989397Y-108175425D01*
X122178021Y-107988100D01*
X122750399Y-107466508D01*
X123351009Y-106985683D01*
X123977722Y-106546617D01*
X124628408Y-106150306D01*
X125300937Y-105797742D01*
X125993178Y-105489919D01*
X126703003Y-105227831D01*
X127428281Y-105012471D01*
X128166882Y-104844834D01*
X128916677Y-104725914D01*
X129247900Y-104689439D01*
X129411148Y-104674475D01*
X129580111Y-104660038D01*
X129737911Y-104647504D01*
X129867665Y-104638248D01*
X129901716Y-104636133D01*
X130149133Y-104621607D01*
X130049024Y-104776495D01*
X130049024Y-104776495D01*
G37*
X130049024Y-104776495D02*
X129978531Y-104904905D01*
X129937543Y-105022436D01*
X129932491Y-105050042D01*
X129910454Y-105135248D01*
X129863578Y-105234926D01*
X129786934Y-105359268D01*
X129772484Y-105380796D01*
X129628900Y-105592893D01*
X129628900Y-105801751D01*
X129631501Y-105901762D01*
X129642532Y-105985289D01*
X129666831Y-106058652D01*
X129709235Y-106128170D01*
X129774584Y-106200164D01*
X129867715Y-106280953D01*
X129993468Y-106376857D01*
X130156679Y-106494196D01*
X130161812Y-106497835D01*
X130312540Y-106603210D01*
X130429696Y-106681324D01*
X130519864Y-106736028D01*
X130589631Y-106771174D01*
X130645580Y-106790613D01*
X130671252Y-106795770D01*
X130842497Y-106798773D01*
X130997099Y-106756004D01*
X131129547Y-106669754D01*
X131217211Y-106568991D01*
X131265480Y-106511782D01*
X131305942Y-106488819D01*
X131314703Y-106489861D01*
X131343178Y-106507742D01*
X131407143Y-106552106D01*
X131501308Y-106619147D01*
X131620380Y-106705060D01*
X131759067Y-106806039D01*
X131912078Y-106918279D01*
X131976986Y-106966124D01*
X132604467Y-107429300D01*
X132662549Y-107727217D01*
X132711509Y-107933373D01*
X132771690Y-108094744D01*
X132847812Y-108216929D01*
X132944595Y-108305526D01*
X133066757Y-108366132D01*
X133219017Y-108404347D01*
X133235700Y-108407092D01*
X133332742Y-108422776D01*
X133415561Y-108436740D01*
X133465778Y-108445875D01*
X133505369Y-108471185D01*
X133540462Y-108534638D01*
X133561028Y-108592843D01*
X133584550Y-108669769D01*
X133600158Y-108725232D01*
X133604000Y-108743204D01*
X133582034Y-108740924D01*
X133522933Y-108723397D01*
X133436889Y-108693832D01*
X133375365Y-108671197D01*
X132766678Y-108468549D01*
X132147080Y-108313779D01*
X131519834Y-108206813D01*
X130888206Y-108147576D01*
X130255462Y-108135993D01*
X129624867Y-108171989D01*
X128999686Y-108255488D01*
X128383184Y-108386415D01*
X127778628Y-108564696D01*
X127189282Y-108790255D01*
X127132939Y-108814694D01*
X126547899Y-109098431D01*
X125990959Y-109423456D01*
X125463822Y-109787651D01*
X124968190Y-110188903D01*
X124505763Y-110625095D01*
X124078245Y-111094112D01*
X123687338Y-111593839D01*
X123334743Y-112122160D01*
X123022162Y-112676960D01*
X122751297Y-113256123D01*
X122523850Y-113857535D01*
X122341524Y-114479079D01*
X122249753Y-114884200D01*
X122161784Y-115422613D01*
X122111544Y-115978475D01*
X122097800Y-116484400D01*
X122114581Y-117044309D01*
X122166112Y-117586026D01*
X122254172Y-118118377D01*
X122380541Y-118650188D01*
X122546999Y-119190284D01*
X122755325Y-119747491D01*
X122756357Y-119750045D01*
X122904604Y-120116600D01*
X119156347Y-120116600D01*
X119100323Y-119932450D01*
X118896886Y-119178560D01*
X118743646Y-118420323D01*
X118640583Y-117659287D01*
X118587677Y-116897000D01*
X118584911Y-116135010D01*
X118632265Y-115374863D01*
X118729720Y-114618108D01*
X118877258Y-113866293D01*
X119074858Y-113120966D01*
X119188375Y-112763300D01*
X119461620Y-112024594D01*
X119777838Y-111312578D01*
X120136627Y-110627896D01*
X120537581Y-109971194D01*
X120980297Y-109343118D01*
X121464370Y-108744313D01*
X121989397Y-108175425D01*
X122178021Y-107988100D01*
X122750399Y-107466508D01*
X123351009Y-106985683D01*
X123977722Y-106546617D01*
X124628408Y-106150306D01*
X125300937Y-105797742D01*
X125993178Y-105489919D01*
X126703003Y-105227831D01*
X127428281Y-105012471D01*
X128166882Y-104844834D01*
X128916677Y-104725914D01*
X129247900Y-104689439D01*
X129411148Y-104674475D01*
X129580111Y-104660038D01*
X129737911Y-104647504D01*
X129867665Y-104638248D01*
X129901716Y-104636133D01*
X130149133Y-104621607D01*
X130049024Y-104776495D01*
G36*
X132550816Y-104820470D02*
X132629813Y-104837028D01*
X132729611Y-104856918D01*
X132765800Y-104863924D01*
X132870161Y-104885680D01*
X133007912Y-104916833D01*
X133163350Y-104953714D01*
X133320772Y-104992650D01*
X133369220Y-105005000D01*
X134119376Y-105223512D01*
X134848302Y-105487515D01*
X135554372Y-105795922D01*
X136235964Y-106147651D01*
X136891452Y-106541616D01*
X137519213Y-106976736D01*
X138117623Y-107451924D01*
X138685058Y-107966097D01*
X139219892Y-108518172D01*
X139720504Y-109107064D01*
X139938596Y-109389686D01*
X140185662Y-109731321D01*
X140409136Y-110066027D01*
X140618213Y-110408727D01*
X140822088Y-110774346D01*
X140984354Y-111086900D01*
X141316622Y-111798962D01*
X141601373Y-112524346D01*
X141838391Y-113260883D01*
X142027459Y-114006404D01*
X142168361Y-114758740D01*
X142260882Y-115515723D01*
X142304805Y-116275185D01*
X142299913Y-117034955D01*
X142245991Y-117792867D01*
X142142822Y-118546750D01*
X141990191Y-119294437D01*
X141854139Y-119811800D01*
X141770100Y-120103900D01*
X139883550Y-120110412D01*
X137997001Y-120116925D01*
X138049609Y-120013804D01*
X138097131Y-119911847D01*
X138155375Y-119773316D01*
X138219848Y-119610104D01*
X138286057Y-119434106D01*
X138349507Y-119257213D01*
X138405706Y-119091321D01*
X138443024Y-118972514D01*
X138592495Y-118401941D01*
X138706709Y-117811402D01*
X138713692Y-117767100D01*
X138735205Y-117593981D01*
X138753127Y-117381632D01*
X138767172Y-117141513D01*
X138777054Y-116885088D01*
X138782489Y-116623816D01*
X138783192Y-116369161D01*
X138778878Y-116132582D01*
X138769262Y-115925543D01*
X138761833Y-115830786D01*
X138676544Y-115178526D01*
X138544271Y-114538165D01*
X138366281Y-113912798D01*
X138143842Y-113305523D01*
X137878221Y-112719438D01*
X137570685Y-112157641D01*
X137222501Y-111623227D01*
X136834938Y-111119295D01*
X136833050Y-111117033D01*
X136620400Y-110862327D01*
X136731450Y-110635604D01*
X136783339Y-110526554D01*
X136815957Y-110445117D01*
X136833734Y-110373977D01*
X136841103Y-110295813D01*
X136842500Y-110201653D01*
X136842500Y-109994427D01*
X136372600Y-109237565D01*
X136199571Y-108963773D01*
X136016549Y-108683002D01*
X135831967Y-108407810D01*
X135654260Y-108150753D01*
X135491863Y-107924390D01*
X135477250Y-107904548D01*
X135367248Y-107755036D01*
X135267806Y-107618830D01*
X135182750Y-107501257D01*
X135115908Y-107407642D01*
X135071107Y-107343312D01*
X135052173Y-107313594D01*
X135051800Y-107312417D01*
X135048577Y-107282899D01*
X135039701Y-107212234D01*
X135026359Y-107109613D01*
X135009738Y-106984226D01*
X135000905Y-106918371D01*
X134979408Y-106765863D01*
X134960670Y-106654036D01*
X134942198Y-106573044D01*
X134921493Y-106513040D01*
X134896059Y-106464178D01*
X134879300Y-106438700D01*
X134838098Y-106390500D01*
X134765745Y-106316767D01*
X134670053Y-106224561D01*
X134558838Y-106120940D01*
X134439913Y-106012966D01*
X134321092Y-105907698D01*
X134210188Y-105812196D01*
X134115016Y-105733521D01*
X134043389Y-105678731D01*
X134023100Y-105665097D01*
X133880358Y-105604651D01*
X133724689Y-105591445D01*
X133560863Y-105625102D01*
X133393654Y-105705245D01*
X133376352Y-105716175D01*
X133220921Y-105816635D01*
X132726238Y-105484575D01*
X132552456Y-105366159D01*
X132416419Y-105269636D01*
X132319569Y-105196101D01*
X132263345Y-105146646D01*
X132249101Y-105122507D01*
X132325210Y-105000608D01*
X132395284Y-104903895D01*
X132454309Y-104838435D01*
X132497270Y-104810295D01*
X132507184Y-104810266D01*
X132550816Y-104820470D01*
X132550816Y-104820470D01*
G37*
X132550816Y-104820470D02*
X132629813Y-104837028D01*
X132729611Y-104856918D01*
X132765800Y-104863924D01*
X132870161Y-104885680D01*
X133007912Y-104916833D01*
X133163350Y-104953714D01*
X133320772Y-104992650D01*
X133369220Y-105005000D01*
X134119376Y-105223512D01*
X134848302Y-105487515D01*
X135554372Y-105795922D01*
X136235964Y-106147651D01*
X136891452Y-106541616D01*
X137519213Y-106976736D01*
X138117623Y-107451924D01*
X138685058Y-107966097D01*
X139219892Y-108518172D01*
X139720504Y-109107064D01*
X139938596Y-109389686D01*
X140185662Y-109731321D01*
X140409136Y-110066027D01*
X140618213Y-110408727D01*
X140822088Y-110774346D01*
X140984354Y-111086900D01*
X141316622Y-111798962D01*
X141601373Y-112524346D01*
X141838391Y-113260883D01*
X142027459Y-114006404D01*
X142168361Y-114758740D01*
X142260882Y-115515723D01*
X142304805Y-116275185D01*
X142299913Y-117034955D01*
X142245991Y-117792867D01*
X142142822Y-118546750D01*
X141990191Y-119294437D01*
X141854139Y-119811800D01*
X141770100Y-120103900D01*
X139883550Y-120110412D01*
X137997001Y-120116925D01*
X138049609Y-120013804D01*
X138097131Y-119911847D01*
X138155375Y-119773316D01*
X138219848Y-119610104D01*
X138286057Y-119434106D01*
X138349507Y-119257213D01*
X138405706Y-119091321D01*
X138443024Y-118972514D01*
X138592495Y-118401941D01*
X138706709Y-117811402D01*
X138713692Y-117767100D01*
X138735205Y-117593981D01*
X138753127Y-117381632D01*
X138767172Y-117141513D01*
X138777054Y-116885088D01*
X138782489Y-116623816D01*
X138783192Y-116369161D01*
X138778878Y-116132582D01*
X138769262Y-115925543D01*
X138761833Y-115830786D01*
X138676544Y-115178526D01*
X138544271Y-114538165D01*
X138366281Y-113912798D01*
X138143842Y-113305523D01*
X137878221Y-112719438D01*
X137570685Y-112157641D01*
X137222501Y-111623227D01*
X136834938Y-111119295D01*
X136833050Y-111117033D01*
X136620400Y-110862327D01*
X136731450Y-110635604D01*
X136783339Y-110526554D01*
X136815957Y-110445117D01*
X136833734Y-110373977D01*
X136841103Y-110295813D01*
X136842500Y-110201653D01*
X136842500Y-109994427D01*
X136372600Y-109237565D01*
X136199571Y-108963773D01*
X136016549Y-108683002D01*
X135831967Y-108407810D01*
X135654260Y-108150753D01*
X135491863Y-107924390D01*
X135477250Y-107904548D01*
X135367248Y-107755036D01*
X135267806Y-107618830D01*
X135182750Y-107501257D01*
X135115908Y-107407642D01*
X135071107Y-107343312D01*
X135052173Y-107313594D01*
X135051800Y-107312417D01*
X135048577Y-107282899D01*
X135039701Y-107212234D01*
X135026359Y-107109613D01*
X135009738Y-106984226D01*
X135000905Y-106918371D01*
X134979408Y-106765863D01*
X134960670Y-106654036D01*
X134942198Y-106573044D01*
X134921493Y-106513040D01*
X134896059Y-106464178D01*
X134879300Y-106438700D01*
X134838098Y-106390500D01*
X134765745Y-106316767D01*
X134670053Y-106224561D01*
X134558838Y-106120940D01*
X134439913Y-106012966D01*
X134321092Y-105907698D01*
X134210188Y-105812196D01*
X134115016Y-105733521D01*
X134043389Y-105678731D01*
X134023100Y-105665097D01*
X133880358Y-105604651D01*
X133724689Y-105591445D01*
X133560863Y-105625102D01*
X133393654Y-105705245D01*
X133376352Y-105716175D01*
X133220921Y-105816635D01*
X132726238Y-105484575D01*
X132552456Y-105366159D01*
X132416419Y-105269636D01*
X132319569Y-105196101D01*
X132263345Y-105146646D01*
X132249101Y-105122507D01*
X132325210Y-105000608D01*
X132395284Y-104903895D01*
X132454309Y-104838435D01*
X132497270Y-104810295D01*
X132507184Y-104810266D01*
X132550816Y-104820470D01*
D14*
X142494000Y-92964000D02*
X144526000Y-92964000D01*
X142494000Y-97282000D02*
X142494000Y-92964000D01*
X144526000Y-97282000D02*
X142494000Y-97282000D01*
X144526000Y-92964000D02*
X144526000Y-97282000D01*
D13*
X142621000Y-93091000D02*
X144399000Y-93091000D01*
X144399000Y-93091000D02*
X144399000Y-97155000D01*
X142621000Y-97155000D02*
X144399000Y-97155000D01*
X142621000Y-93091000D02*
X142621000Y-97155000D01*
D15*
X135403166Y-97959333D02*
X136038166Y-97959333D01*
X136165166Y-98001666D01*
X136249833Y-98086333D01*
X136292166Y-98213333D01*
X136292166Y-98298000D01*
X135403166Y-97620666D02*
X135403166Y-97070333D01*
X135741833Y-97366666D01*
X135741833Y-97239666D01*
X135784166Y-97155000D01*
X135826500Y-97112666D01*
X135911166Y-97070333D01*
X136122833Y-97070333D01*
X136207500Y-97112666D01*
X136249833Y-97155000D01*
X136292166Y-97239666D01*
X136292166Y-97493666D01*
X136249833Y-97578333D01*
X136207500Y-97620666D01*
X116861166Y-97959333D02*
X117496166Y-97959333D01*
X117623166Y-98001666D01*
X117707833Y-98086333D01*
X117750166Y-98213333D01*
X117750166Y-98298000D01*
X116945833Y-97578333D02*
X116903500Y-97536000D01*
X116861166Y-97451333D01*
X116861166Y-97239666D01*
X116903500Y-97155000D01*
X116945833Y-97112666D01*
X117030500Y-97070333D01*
X117115166Y-97070333D01*
X117242166Y-97112666D01*
X117750166Y-97620666D01*
X117750166Y-97070333D01*
X125751166Y-97959333D02*
X126386166Y-97959333D01*
X126513166Y-98001666D01*
X126597833Y-98086333D01*
X126640166Y-98213333D01*
X126640166Y-98298000D01*
X126640166Y-97070333D02*
X126640166Y-97578333D01*
X126640166Y-97324333D02*
X125751166Y-97324333D01*
X125878166Y-97409000D01*
X125962833Y-97493666D01*
X126005166Y-97578333D01*
X109029500Y-98276833D02*
X109071833Y-98319166D01*
X109114166Y-98446166D01*
X109114166Y-98530833D01*
X109071833Y-98657833D01*
X108987166Y-98742500D01*
X108902500Y-98784833D01*
X108733166Y-98827166D01*
X108606166Y-98827166D01*
X108436833Y-98784833D01*
X108352166Y-98742500D01*
X108267500Y-98657833D01*
X108225166Y-98530833D01*
X108225166Y-98446166D01*
X108267500Y-98319166D01*
X108309833Y-98276833D01*
X109114166Y-97895833D02*
X108225166Y-97895833D01*
X109114166Y-97387833D01*
X108225166Y-97387833D01*
X109114166Y-96498833D02*
X109114166Y-97006833D01*
X109114166Y-96752833D02*
X108225166Y-96752833D01*
X108352166Y-96837500D01*
X108436833Y-96922166D01*
X108479166Y-97006833D01*
X146960166Y-99589166D02*
X146071166Y-99589166D01*
X146071166Y-99250500D01*
X146113500Y-99165833D01*
X146155833Y-99123500D01*
X146240500Y-99081166D01*
X146367500Y-99081166D01*
X146452166Y-99123500D01*
X146494500Y-99165833D01*
X146536833Y-99250500D01*
X146536833Y-99589166D01*
X146960166Y-98657833D02*
X146960166Y-98488500D01*
X146917833Y-98403833D01*
X146875500Y-98361500D01*
X146748500Y-98276833D01*
X146579166Y-98234500D01*
X146240500Y-98234500D01*
X146155833Y-98276833D01*
X146113500Y-98319166D01*
X146071166Y-98403833D01*
X146071166Y-98573166D01*
X146113500Y-98657833D01*
X146155833Y-98700166D01*
X146240500Y-98742500D01*
X146452166Y-98742500D01*
X146536833Y-98700166D01*
X146579166Y-98657833D01*
X146621500Y-98573166D01*
X146621500Y-98403833D01*
X146579166Y-98319166D01*
X146536833Y-98276833D01*
X146452166Y-98234500D01*
X142134166Y-96541166D02*
X141710833Y-96837500D01*
X142134166Y-97049166D02*
X141245166Y-97049166D01*
X141245166Y-96710500D01*
X141287500Y-96625833D01*
X141329833Y-96583500D01*
X141414500Y-96541166D01*
X141541500Y-96541166D01*
X141626166Y-96583500D01*
X141668500Y-96625833D01*
X141710833Y-96710500D01*
X141710833Y-97049166D01*
X142134166Y-95694500D02*
X142134166Y-96202500D01*
X142134166Y-95948500D02*
X141245166Y-95948500D01*
X141372166Y-96033166D01*
X141456833Y-96117833D01*
X141499166Y-96202500D01*
M02*
