M48
INCH,TZ
T1C0.031
T2C0.035
%
G90
G05
T1
X57500Y-34650
X59469Y-34650
T2
X43500Y-32450
X43500Y-35950
X43500Y-36950
X43500Y-37950
X43500Y-38950
X43500Y-39950
X43500Y-40950
X44500Y-32450
X45100Y-51450
X45500Y-32450
X46100Y-51450
X46500Y-32450
X47000Y-36950
X47000Y-37950
X47000Y-38950
X47000Y-39950
X47100Y-51450
X47500Y-32450
X48100Y-51450
X48500Y-32450
X49100Y-51450
X49500Y-32450
X50100Y-51450
X50500Y-32450
X50500Y-36950
X50500Y-37950
X50500Y-38950
X50500Y-39950
X51100Y-51450
X52100Y-32450
X52100Y-51450
X53100Y-32450
X54100Y-32450
X54100Y-51450
X54300Y-36950
X54300Y-37950
X54300Y-38950
X54300Y-39950
X55100Y-32450
X55100Y-51450
X56100Y-32450
X56100Y-51450
X57100Y-32450
X57100Y-51450
X58100Y-32450
X58100Y-51450
X58500Y-37950
X58500Y-38950
X58500Y-39950
X59100Y-32450
X59100Y-51450
T0
M30
