G04 #@! TF.GenerationSoftware,KiCad,Pcbnew,(2017-02-16 revision ccbdb41)-makepkg*
G04 #@! TF.CreationDate,2017-02-23T14:10:58+01:00*
G04 #@! TF.ProjectId,Kicad,4B696361642E6B696361645F70636200,rev?*
G04 #@! TF.FileFunction,Copper,L2,Bot,Signal*
G04 #@! TF.FilePolarity,Positive*
%FSLAX46Y46*%
G04 Gerber Fmt 4.6, Leading zero omitted, Abs format (unit mm)*
G04 Created by KiCad (PCBNEW (2017-02-16 revision ccbdb41)-makepkg) date 02/23/17 14:10:58*
%MOMM*%
%LPD*%
G01*
G04 APERTURE LIST*
%ADD10C,0.100000*%
%ADD11R,1.651000X1.651000*%
%ADD12C,1.651000*%
%ADD13R,1.600000X1.600000*%
%ADD14C,1.600000*%
%ADD15C,0.500000*%
%ADD16C,0.254000*%
G04 APERTURE END LIST*
D10*
D11*
X137922000Y-93853000D03*
D12*
X137922000Y-96393000D03*
X137922000Y-98933000D03*
X137922000Y-101473000D03*
D11*
X119380000Y-93853000D03*
D12*
X119380000Y-96393000D03*
X119380000Y-98933000D03*
X119380000Y-101473000D03*
D11*
X128270000Y-93853000D03*
D12*
X128270000Y-96393000D03*
X128270000Y-98933000D03*
X128270000Y-101473000D03*
D11*
X110490000Y-104013000D03*
D12*
X110490000Y-101473000D03*
X110490000Y-98933000D03*
X110490000Y-96393000D03*
X110490000Y-93853000D03*
X110490000Y-91313000D03*
D11*
X148590000Y-96393000D03*
D12*
X148590000Y-98933000D03*
X148590000Y-101473000D03*
D11*
X114554000Y-130683000D03*
D12*
X117094000Y-130683000D03*
X119634000Y-130683000D03*
X122174000Y-130683000D03*
X124714000Y-130683000D03*
X127254000Y-130683000D03*
X129794000Y-130683000D03*
X132334000Y-130683000D03*
D11*
X137414000Y-130683000D03*
D12*
X139954000Y-130683000D03*
X142494000Y-130683000D03*
X145034000Y-130683000D03*
X147574000Y-130683000D03*
X150114000Y-130683000D03*
D11*
X132334000Y-82423000D03*
D12*
X134874000Y-82423000D03*
X137414000Y-82423000D03*
X139954000Y-82423000D03*
X142494000Y-82423000D03*
X145034000Y-82423000D03*
X147574000Y-82423000D03*
X150114000Y-82423000D03*
D11*
X128270000Y-82423000D03*
D12*
X125730000Y-82423000D03*
X123190000Y-82423000D03*
X120650000Y-82423000D03*
X118110000Y-82423000D03*
X115570000Y-82423000D03*
X113030000Y-82423000D03*
X110490000Y-82423000D03*
D13*
X146050000Y-88011000D03*
D14*
X151050000Y-88011000D03*
D15*
X125730000Y-82423000D02*
X125730000Y-86233000D01*
X128270000Y-88773000D02*
X128270000Y-93853000D01*
X125730000Y-86233000D02*
X128270000Y-88773000D01*
D16*
G36*
X152400000Y-87489087D02*
X152303864Y-87256995D01*
X152057745Y-87182861D01*
X151229605Y-88011000D01*
X152057745Y-88839139D01*
X152303864Y-88765005D01*
X152400000Y-88497544D01*
X152400000Y-132461000D01*
X108660000Y-132461000D01*
X108660000Y-129857500D01*
X113081060Y-129857500D01*
X113081060Y-131508500D01*
X113130343Y-131756265D01*
X113270691Y-131966309D01*
X113480735Y-132106657D01*
X113728500Y-132155940D01*
X115379500Y-132155940D01*
X115627265Y-132106657D01*
X115837309Y-131966309D01*
X115977657Y-131756265D01*
X115998273Y-131652623D01*
X116265613Y-131920430D01*
X116802214Y-132143246D01*
X117383237Y-132143753D01*
X117920226Y-131921874D01*
X118331430Y-131511387D01*
X118363804Y-131433421D01*
X118395126Y-131509226D01*
X118805613Y-131920430D01*
X119342214Y-132143246D01*
X119923237Y-132143753D01*
X120460226Y-131921874D01*
X120871430Y-131511387D01*
X120903804Y-131433421D01*
X120935126Y-131509226D01*
X121345613Y-131920430D01*
X121882214Y-132143246D01*
X122463237Y-132143753D01*
X123000226Y-131921874D01*
X123411430Y-131511387D01*
X123443804Y-131433421D01*
X123475126Y-131509226D01*
X123885613Y-131920430D01*
X124422214Y-132143246D01*
X125003237Y-132143753D01*
X125540226Y-131921874D01*
X125753256Y-131709215D01*
X126407390Y-131709215D01*
X126484656Y-131957976D01*
X127031131Y-132155340D01*
X127611535Y-132128553D01*
X128023344Y-131957976D01*
X128100610Y-131709215D01*
X128947390Y-131709215D01*
X129024656Y-131957976D01*
X129571131Y-132155340D01*
X130151535Y-132128553D01*
X130563344Y-131957976D01*
X130640610Y-131709215D01*
X129794000Y-130862605D01*
X128947390Y-131709215D01*
X128100610Y-131709215D01*
X127254000Y-130862605D01*
X126407390Y-131709215D01*
X125753256Y-131709215D01*
X125951430Y-131511387D01*
X125977487Y-131448634D01*
X125979024Y-131452344D01*
X126227785Y-131529610D01*
X127074395Y-130683000D01*
X127433605Y-130683000D01*
X128280215Y-131529610D01*
X128524000Y-131453890D01*
X128767785Y-131529610D01*
X129614395Y-130683000D01*
X129973605Y-130683000D01*
X130820215Y-131529610D01*
X131068976Y-131452344D01*
X131070211Y-131448926D01*
X131095126Y-131509226D01*
X131505613Y-131920430D01*
X132042214Y-132143246D01*
X132623237Y-132143753D01*
X133160226Y-131921874D01*
X133571430Y-131511387D01*
X133794246Y-130974786D01*
X133794753Y-130393763D01*
X133573174Y-129857500D01*
X135941060Y-129857500D01*
X135941060Y-131508500D01*
X135990343Y-131756265D01*
X136130691Y-131966309D01*
X136340735Y-132106657D01*
X136588500Y-132155940D01*
X138239500Y-132155940D01*
X138487265Y-132106657D01*
X138697309Y-131966309D01*
X138837657Y-131756265D01*
X138858273Y-131652623D01*
X139125613Y-131920430D01*
X139662214Y-132143246D01*
X140243237Y-132143753D01*
X140780226Y-131921874D01*
X141191430Y-131511387D01*
X141223804Y-131433421D01*
X141255126Y-131509226D01*
X141665613Y-131920430D01*
X142202214Y-132143246D01*
X142783237Y-132143753D01*
X143320226Y-131921874D01*
X143731430Y-131511387D01*
X143763804Y-131433421D01*
X143795126Y-131509226D01*
X144205613Y-131920430D01*
X144742214Y-132143246D01*
X145323237Y-132143753D01*
X145860226Y-131921874D01*
X146271430Y-131511387D01*
X146303804Y-131433421D01*
X146335126Y-131509226D01*
X146745613Y-131920430D01*
X147282214Y-132143246D01*
X147863237Y-132143753D01*
X148400226Y-131921874D01*
X148811430Y-131511387D01*
X148843804Y-131433421D01*
X148875126Y-131509226D01*
X149285613Y-131920430D01*
X149822214Y-132143246D01*
X150403237Y-132143753D01*
X150940226Y-131921874D01*
X151351430Y-131511387D01*
X151574246Y-130974786D01*
X151574753Y-130393763D01*
X151352874Y-129856774D01*
X150942387Y-129445570D01*
X150405786Y-129222754D01*
X149824763Y-129222247D01*
X149287774Y-129444126D01*
X148876570Y-129854613D01*
X148844196Y-129932579D01*
X148812874Y-129856774D01*
X148402387Y-129445570D01*
X147865786Y-129222754D01*
X147284763Y-129222247D01*
X146747774Y-129444126D01*
X146336570Y-129854613D01*
X146304196Y-129932579D01*
X146272874Y-129856774D01*
X145862387Y-129445570D01*
X145325786Y-129222754D01*
X144744763Y-129222247D01*
X144207774Y-129444126D01*
X143796570Y-129854613D01*
X143764196Y-129932579D01*
X143732874Y-129856774D01*
X143322387Y-129445570D01*
X142785786Y-129222754D01*
X142204763Y-129222247D01*
X141667774Y-129444126D01*
X141256570Y-129854613D01*
X141224196Y-129932579D01*
X141192874Y-129856774D01*
X140782387Y-129445570D01*
X140245786Y-129222754D01*
X139664763Y-129222247D01*
X139127774Y-129444126D01*
X138858236Y-129713194D01*
X138837657Y-129609735D01*
X138697309Y-129399691D01*
X138487265Y-129259343D01*
X138239500Y-129210060D01*
X136588500Y-129210060D01*
X136340735Y-129259343D01*
X136130691Y-129399691D01*
X135990343Y-129609735D01*
X135941060Y-129857500D01*
X133573174Y-129857500D01*
X133572874Y-129856774D01*
X133162387Y-129445570D01*
X132625786Y-129222754D01*
X132044763Y-129222247D01*
X131507774Y-129444126D01*
X131096570Y-129854613D01*
X131070513Y-129917366D01*
X131068976Y-129913656D01*
X130820215Y-129836390D01*
X129973605Y-130683000D01*
X129614395Y-130683000D01*
X128767785Y-129836390D01*
X128524000Y-129912110D01*
X128280215Y-129836390D01*
X127433605Y-130683000D01*
X127074395Y-130683000D01*
X126227785Y-129836390D01*
X125979024Y-129913656D01*
X125977789Y-129917074D01*
X125952874Y-129856774D01*
X125753234Y-129656785D01*
X126407390Y-129656785D01*
X127254000Y-130503395D01*
X128100610Y-129656785D01*
X128947390Y-129656785D01*
X129794000Y-130503395D01*
X130640610Y-129656785D01*
X130563344Y-129408024D01*
X130016869Y-129210660D01*
X129436465Y-129237447D01*
X129024656Y-129408024D01*
X128947390Y-129656785D01*
X128100610Y-129656785D01*
X128023344Y-129408024D01*
X127476869Y-129210660D01*
X126896465Y-129237447D01*
X126484656Y-129408024D01*
X126407390Y-129656785D01*
X125753234Y-129656785D01*
X125542387Y-129445570D01*
X125005786Y-129222754D01*
X124424763Y-129222247D01*
X123887774Y-129444126D01*
X123476570Y-129854613D01*
X123444196Y-129932579D01*
X123412874Y-129856774D01*
X123002387Y-129445570D01*
X122465786Y-129222754D01*
X121884763Y-129222247D01*
X121347774Y-129444126D01*
X120936570Y-129854613D01*
X120904196Y-129932579D01*
X120872874Y-129856774D01*
X120462387Y-129445570D01*
X119925786Y-129222754D01*
X119344763Y-129222247D01*
X118807774Y-129444126D01*
X118396570Y-129854613D01*
X118364196Y-129932579D01*
X118332874Y-129856774D01*
X117922387Y-129445570D01*
X117385786Y-129222754D01*
X116804763Y-129222247D01*
X116267774Y-129444126D01*
X115998236Y-129713194D01*
X115977657Y-129609735D01*
X115837309Y-129399691D01*
X115627265Y-129259343D01*
X115379500Y-129210060D01*
X113728500Y-129210060D01*
X113480735Y-129259343D01*
X113270691Y-129399691D01*
X113130343Y-129609735D01*
X113081060Y-129857500D01*
X108660000Y-129857500D01*
X108660000Y-103187500D01*
X109017060Y-103187500D01*
X109017060Y-104838500D01*
X109066343Y-105086265D01*
X109206691Y-105296309D01*
X109416735Y-105436657D01*
X109664500Y-105485940D01*
X111315500Y-105485940D01*
X111563265Y-105436657D01*
X111773309Y-105296309D01*
X111913657Y-105086265D01*
X111962940Y-104838500D01*
X111962940Y-103187500D01*
X111913657Y-102939735D01*
X111773309Y-102729691D01*
X111563265Y-102589343D01*
X111459623Y-102568727D01*
X111529256Y-102499215D01*
X118533390Y-102499215D01*
X118610656Y-102747976D01*
X119157131Y-102945340D01*
X119737535Y-102918553D01*
X120149344Y-102747976D01*
X120226610Y-102499215D01*
X127423390Y-102499215D01*
X127500656Y-102747976D01*
X128047131Y-102945340D01*
X128627535Y-102918553D01*
X129039344Y-102747976D01*
X129116610Y-102499215D01*
X137075390Y-102499215D01*
X137152656Y-102747976D01*
X137699131Y-102945340D01*
X138279535Y-102918553D01*
X138691344Y-102747976D01*
X138768610Y-102499215D01*
X147743390Y-102499215D01*
X147820656Y-102747976D01*
X148367131Y-102945340D01*
X148947535Y-102918553D01*
X149359344Y-102747976D01*
X149436610Y-102499215D01*
X148590000Y-101652605D01*
X147743390Y-102499215D01*
X138768610Y-102499215D01*
X137922000Y-101652605D01*
X137075390Y-102499215D01*
X129116610Y-102499215D01*
X128270000Y-101652605D01*
X127423390Y-102499215D01*
X120226610Y-102499215D01*
X119380000Y-101652605D01*
X118533390Y-102499215D01*
X111529256Y-102499215D01*
X111727430Y-102301387D01*
X111950246Y-101764786D01*
X111950695Y-101250131D01*
X117907660Y-101250131D01*
X117934447Y-101830535D01*
X118105024Y-102242344D01*
X118353785Y-102319610D01*
X119200395Y-101473000D01*
X119559605Y-101473000D01*
X120406215Y-102319610D01*
X120654976Y-102242344D01*
X120852340Y-101695869D01*
X120831769Y-101250131D01*
X126797660Y-101250131D01*
X126824447Y-101830535D01*
X126995024Y-102242344D01*
X127243785Y-102319610D01*
X128090395Y-101473000D01*
X128449605Y-101473000D01*
X129296215Y-102319610D01*
X129544976Y-102242344D01*
X129742340Y-101695869D01*
X129721769Y-101250131D01*
X136449660Y-101250131D01*
X136476447Y-101830535D01*
X136647024Y-102242344D01*
X136895785Y-102319610D01*
X137742395Y-101473000D01*
X138101605Y-101473000D01*
X138948215Y-102319610D01*
X139196976Y-102242344D01*
X139394340Y-101695869D01*
X139373769Y-101250131D01*
X147117660Y-101250131D01*
X147144447Y-101830535D01*
X147315024Y-102242344D01*
X147563785Y-102319610D01*
X148410395Y-101473000D01*
X148769605Y-101473000D01*
X149616215Y-102319610D01*
X149864976Y-102242344D01*
X150062340Y-101695869D01*
X150035553Y-101115465D01*
X149864976Y-100703656D01*
X149616215Y-100626390D01*
X148769605Y-101473000D01*
X148410395Y-101473000D01*
X147563785Y-100626390D01*
X147315024Y-100703656D01*
X147117660Y-101250131D01*
X139373769Y-101250131D01*
X139367553Y-101115465D01*
X139196976Y-100703656D01*
X138948215Y-100626390D01*
X138101605Y-101473000D01*
X137742395Y-101473000D01*
X136895785Y-100626390D01*
X136647024Y-100703656D01*
X136449660Y-101250131D01*
X129721769Y-101250131D01*
X129715553Y-101115465D01*
X129544976Y-100703656D01*
X129296215Y-100626390D01*
X128449605Y-101473000D01*
X128090395Y-101473000D01*
X127243785Y-100626390D01*
X126995024Y-100703656D01*
X126797660Y-101250131D01*
X120831769Y-101250131D01*
X120825553Y-101115465D01*
X120654976Y-100703656D01*
X120406215Y-100626390D01*
X119559605Y-101473000D01*
X119200395Y-101473000D01*
X118353785Y-100626390D01*
X118105024Y-100703656D01*
X117907660Y-101250131D01*
X111950695Y-101250131D01*
X111950753Y-101183763D01*
X111728874Y-100646774D01*
X111318387Y-100235570D01*
X111255634Y-100209513D01*
X111259344Y-100207976D01*
X111336610Y-99959215D01*
X110490000Y-99112605D01*
X109643390Y-99959215D01*
X109720656Y-100207976D01*
X109724074Y-100209211D01*
X109663774Y-100234126D01*
X109252570Y-100644613D01*
X109029754Y-101181214D01*
X109029247Y-101762237D01*
X109251126Y-102299226D01*
X109520194Y-102568764D01*
X109416735Y-102589343D01*
X109206691Y-102729691D01*
X109066343Y-102939735D01*
X109017060Y-103187500D01*
X108660000Y-103187500D01*
X108660000Y-98710131D01*
X109017660Y-98710131D01*
X109044447Y-99290535D01*
X109215024Y-99702344D01*
X109463785Y-99779610D01*
X110310395Y-98933000D01*
X110669605Y-98933000D01*
X111516215Y-99779610D01*
X111764976Y-99702344D01*
X111938370Y-99222237D01*
X117919247Y-99222237D01*
X118141126Y-99759226D01*
X118551613Y-100170430D01*
X118614366Y-100196487D01*
X118610656Y-100198024D01*
X118533390Y-100446785D01*
X119380000Y-101293395D01*
X120226610Y-100446785D01*
X120149344Y-100198024D01*
X120145926Y-100196789D01*
X120206226Y-100171874D01*
X120617430Y-99761387D01*
X120840246Y-99224786D01*
X120840753Y-98643763D01*
X120618874Y-98106774D01*
X120208387Y-97695570D01*
X120145634Y-97669513D01*
X120149344Y-97667976D01*
X120226610Y-97419215D01*
X119380000Y-96572605D01*
X118533390Y-97419215D01*
X118610656Y-97667976D01*
X118614074Y-97669211D01*
X118553774Y-97694126D01*
X118142570Y-98104613D01*
X117919754Y-98641214D01*
X117919247Y-99222237D01*
X111938370Y-99222237D01*
X111962340Y-99155869D01*
X111935553Y-98575465D01*
X111764976Y-98163656D01*
X111516215Y-98086390D01*
X110669605Y-98933000D01*
X110310395Y-98933000D01*
X109463785Y-98086390D01*
X109215024Y-98163656D01*
X109017660Y-98710131D01*
X108660000Y-98710131D01*
X108660000Y-91602237D01*
X109029247Y-91602237D01*
X109251126Y-92139226D01*
X109661613Y-92550430D01*
X109739579Y-92582804D01*
X109663774Y-92614126D01*
X109252570Y-93024613D01*
X109029754Y-93561214D01*
X109029247Y-94142237D01*
X109251126Y-94679226D01*
X109661613Y-95090430D01*
X109739579Y-95122804D01*
X109663774Y-95154126D01*
X109252570Y-95564613D01*
X109029754Y-96101214D01*
X109029247Y-96682237D01*
X109251126Y-97219226D01*
X109661613Y-97630430D01*
X109724366Y-97656487D01*
X109720656Y-97658024D01*
X109643390Y-97906785D01*
X110490000Y-98753395D01*
X111336610Y-97906785D01*
X111259344Y-97658024D01*
X111255926Y-97656789D01*
X111316226Y-97631874D01*
X111727430Y-97221387D01*
X111950246Y-96684786D01*
X111950695Y-96170131D01*
X117907660Y-96170131D01*
X117934447Y-96750535D01*
X118105024Y-97162344D01*
X118353785Y-97239610D01*
X119200395Y-96393000D01*
X119559605Y-96393000D01*
X120406215Y-97239610D01*
X120654976Y-97162344D01*
X120852340Y-96615869D01*
X120825553Y-96035465D01*
X120654976Y-95623656D01*
X120406215Y-95546390D01*
X119559605Y-96393000D01*
X119200395Y-96393000D01*
X118353785Y-95546390D01*
X118105024Y-95623656D01*
X117907660Y-96170131D01*
X111950695Y-96170131D01*
X111950753Y-96103763D01*
X111728874Y-95566774D01*
X111318387Y-95155570D01*
X111240421Y-95123196D01*
X111316226Y-95091874D01*
X111727430Y-94681387D01*
X111950246Y-94144786D01*
X111950753Y-93563763D01*
X111729174Y-93027500D01*
X117907060Y-93027500D01*
X117907060Y-94678500D01*
X117956343Y-94926265D01*
X118096691Y-95136309D01*
X118306735Y-95276657D01*
X118546567Y-95324362D01*
X118533390Y-95366785D01*
X119380000Y-96213395D01*
X120226610Y-95366785D01*
X120213433Y-95324362D01*
X120453265Y-95276657D01*
X120663309Y-95136309D01*
X120803657Y-94926265D01*
X120852940Y-94678500D01*
X120852940Y-93027500D01*
X120803657Y-92779735D01*
X120663309Y-92569691D01*
X120453265Y-92429343D01*
X120205500Y-92380060D01*
X118554500Y-92380060D01*
X118306735Y-92429343D01*
X118096691Y-92569691D01*
X117956343Y-92779735D01*
X117907060Y-93027500D01*
X111729174Y-93027500D01*
X111728874Y-93026774D01*
X111318387Y-92615570D01*
X111240421Y-92583196D01*
X111316226Y-92551874D01*
X111727430Y-92141387D01*
X111950246Y-91604786D01*
X111950753Y-91023763D01*
X111728874Y-90486774D01*
X111318387Y-90075570D01*
X110781786Y-89852754D01*
X110200763Y-89852247D01*
X109663774Y-90074126D01*
X109252570Y-90484613D01*
X109029754Y-91021214D01*
X109029247Y-91602237D01*
X108660000Y-91602237D01*
X108660000Y-82712237D01*
X109029247Y-82712237D01*
X109251126Y-83249226D01*
X109661613Y-83660430D01*
X110198214Y-83883246D01*
X110779237Y-83883753D01*
X111316226Y-83661874D01*
X111529256Y-83449215D01*
X112183390Y-83449215D01*
X112260656Y-83697976D01*
X112807131Y-83895340D01*
X113387535Y-83868553D01*
X113799344Y-83697976D01*
X113876610Y-83449215D01*
X113030000Y-82602605D01*
X112183390Y-83449215D01*
X111529256Y-83449215D01*
X111727430Y-83251387D01*
X111753487Y-83188634D01*
X111755024Y-83192344D01*
X112003785Y-83269610D01*
X112850395Y-82423000D01*
X113209605Y-82423000D01*
X114056215Y-83269610D01*
X114304976Y-83192344D01*
X114306211Y-83188926D01*
X114331126Y-83249226D01*
X114741613Y-83660430D01*
X115278214Y-83883246D01*
X115859237Y-83883753D01*
X116396226Y-83661874D01*
X116807430Y-83251387D01*
X116839804Y-83173421D01*
X116871126Y-83249226D01*
X117281613Y-83660430D01*
X117818214Y-83883246D01*
X118399237Y-83883753D01*
X118936226Y-83661874D01*
X119347430Y-83251387D01*
X119379804Y-83173421D01*
X119411126Y-83249226D01*
X119821613Y-83660430D01*
X120358214Y-83883246D01*
X120939237Y-83883753D01*
X121476226Y-83661874D01*
X121887430Y-83251387D01*
X121919804Y-83173421D01*
X121951126Y-83249226D01*
X122361613Y-83660430D01*
X122898214Y-83883246D01*
X123479237Y-83883753D01*
X124016226Y-83661874D01*
X124427430Y-83251387D01*
X124459804Y-83173421D01*
X124491126Y-83249226D01*
X124845000Y-83603718D01*
X124845000Y-86232995D01*
X124844999Y-86233000D01*
X124901190Y-86515484D01*
X124912367Y-86571675D01*
X125104210Y-86858790D01*
X127385000Y-89139579D01*
X127385000Y-92391895D01*
X127196735Y-92429343D01*
X126986691Y-92569691D01*
X126846343Y-92779735D01*
X126797060Y-93027500D01*
X126797060Y-94678500D01*
X126846343Y-94926265D01*
X126986691Y-95136309D01*
X127196735Y-95276657D01*
X127300377Y-95297273D01*
X127032570Y-95564613D01*
X126809754Y-96101214D01*
X126809247Y-96682237D01*
X127031126Y-97219226D01*
X127441613Y-97630430D01*
X127519579Y-97662804D01*
X127443774Y-97694126D01*
X127032570Y-98104613D01*
X126809754Y-98641214D01*
X126809247Y-99222237D01*
X127031126Y-99759226D01*
X127441613Y-100170430D01*
X127504366Y-100196487D01*
X127500656Y-100198024D01*
X127423390Y-100446785D01*
X128270000Y-101293395D01*
X129116610Y-100446785D01*
X129039344Y-100198024D01*
X129035926Y-100196789D01*
X129096226Y-100171874D01*
X129309256Y-99959215D01*
X137075390Y-99959215D01*
X137151110Y-100203000D01*
X137075390Y-100446785D01*
X137922000Y-101293395D01*
X138768610Y-100446785D01*
X138692890Y-100203000D01*
X138768610Y-99959215D01*
X137922000Y-99112605D01*
X137075390Y-99959215D01*
X129309256Y-99959215D01*
X129507430Y-99761387D01*
X129730246Y-99224786D01*
X129730695Y-98710131D01*
X136449660Y-98710131D01*
X136476447Y-99290535D01*
X136647024Y-99702344D01*
X136895785Y-99779610D01*
X137742395Y-98933000D01*
X138101605Y-98933000D01*
X138948215Y-99779610D01*
X139196976Y-99702344D01*
X139394340Y-99155869D01*
X139367553Y-98575465D01*
X139196976Y-98163656D01*
X138948215Y-98086390D01*
X138101605Y-98933000D01*
X137742395Y-98933000D01*
X136895785Y-98086390D01*
X136647024Y-98163656D01*
X136449660Y-98710131D01*
X129730695Y-98710131D01*
X129730753Y-98643763D01*
X129508874Y-98106774D01*
X129098387Y-97695570D01*
X129020421Y-97663196D01*
X129096226Y-97631874D01*
X129507430Y-97221387D01*
X129730246Y-96684786D01*
X129730753Y-96103763D01*
X129508874Y-95566774D01*
X129239806Y-95297236D01*
X129343265Y-95276657D01*
X129553309Y-95136309D01*
X129693657Y-94926265D01*
X129742940Y-94678500D01*
X129742940Y-93027500D01*
X136449060Y-93027500D01*
X136449060Y-94678500D01*
X136498343Y-94926265D01*
X136638691Y-95136309D01*
X136848735Y-95276657D01*
X136952377Y-95297273D01*
X136684570Y-95564613D01*
X136461754Y-96101214D01*
X136461247Y-96682237D01*
X136683126Y-97219226D01*
X137093613Y-97630430D01*
X137156366Y-97656487D01*
X137152656Y-97658024D01*
X137075390Y-97906785D01*
X137922000Y-98753395D01*
X138768610Y-97906785D01*
X138691344Y-97658024D01*
X138687926Y-97656789D01*
X138748226Y-97631874D01*
X139159430Y-97221387D01*
X139382246Y-96684786D01*
X139382753Y-96103763D01*
X139161174Y-95567500D01*
X147117060Y-95567500D01*
X147117060Y-97218500D01*
X147166343Y-97466265D01*
X147306691Y-97676309D01*
X147516735Y-97816657D01*
X147620377Y-97837273D01*
X147352570Y-98104613D01*
X147129754Y-98641214D01*
X147129247Y-99222237D01*
X147351126Y-99759226D01*
X147761613Y-100170430D01*
X147824366Y-100196487D01*
X147820656Y-100198024D01*
X147743390Y-100446785D01*
X148590000Y-101293395D01*
X149436610Y-100446785D01*
X149359344Y-100198024D01*
X149355926Y-100196789D01*
X149416226Y-100171874D01*
X149827430Y-99761387D01*
X150050246Y-99224786D01*
X150050753Y-98643763D01*
X149828874Y-98106774D01*
X149559806Y-97837236D01*
X149663265Y-97816657D01*
X149873309Y-97676309D01*
X150013657Y-97466265D01*
X150062940Y-97218500D01*
X150062940Y-95567500D01*
X150013657Y-95319735D01*
X149873309Y-95109691D01*
X149663265Y-94969343D01*
X149415500Y-94920060D01*
X147764500Y-94920060D01*
X147516735Y-94969343D01*
X147306691Y-95109691D01*
X147166343Y-95319735D01*
X147117060Y-95567500D01*
X139161174Y-95567500D01*
X139160874Y-95566774D01*
X138891806Y-95297236D01*
X138995265Y-95276657D01*
X139205309Y-95136309D01*
X139345657Y-94926265D01*
X139394940Y-94678500D01*
X139394940Y-93027500D01*
X139345657Y-92779735D01*
X139205309Y-92569691D01*
X138995265Y-92429343D01*
X138747500Y-92380060D01*
X137096500Y-92380060D01*
X136848735Y-92429343D01*
X136638691Y-92569691D01*
X136498343Y-92779735D01*
X136449060Y-93027500D01*
X129742940Y-93027500D01*
X129693657Y-92779735D01*
X129553309Y-92569691D01*
X129343265Y-92429343D01*
X129155000Y-92391895D01*
X129155000Y-88773000D01*
X129087633Y-88434325D01*
X128895790Y-88147210D01*
X128895787Y-88147208D01*
X127959580Y-87211000D01*
X144602560Y-87211000D01*
X144602560Y-88811000D01*
X144651843Y-89058765D01*
X144792191Y-89268809D01*
X145002235Y-89409157D01*
X145250000Y-89458440D01*
X146850000Y-89458440D01*
X147097765Y-89409157D01*
X147307809Y-89268809D01*
X147448157Y-89058765D01*
X147456117Y-89018745D01*
X150221861Y-89018745D01*
X150295995Y-89264864D01*
X150833223Y-89457965D01*
X151403454Y-89430778D01*
X151804005Y-89264864D01*
X151878139Y-89018745D01*
X151050000Y-88190605D01*
X150221861Y-89018745D01*
X147456117Y-89018745D01*
X147497440Y-88811000D01*
X147497440Y-87794223D01*
X149603035Y-87794223D01*
X149630222Y-88364454D01*
X149796136Y-88765005D01*
X150042255Y-88839139D01*
X150870395Y-88011000D01*
X150042255Y-87182861D01*
X149796136Y-87256995D01*
X149603035Y-87794223D01*
X147497440Y-87794223D01*
X147497440Y-87211000D01*
X147456118Y-87003255D01*
X150221861Y-87003255D01*
X151050000Y-87831395D01*
X151878139Y-87003255D01*
X151804005Y-86757136D01*
X151266777Y-86564035D01*
X150696546Y-86591222D01*
X150295995Y-86757136D01*
X150221861Y-87003255D01*
X147456118Y-87003255D01*
X147448157Y-86963235D01*
X147307809Y-86753191D01*
X147097765Y-86612843D01*
X146850000Y-86563560D01*
X145250000Y-86563560D01*
X145002235Y-86612843D01*
X144792191Y-86753191D01*
X144651843Y-86963235D01*
X144602560Y-87211000D01*
X127959580Y-87211000D01*
X126615000Y-85866420D01*
X126615000Y-83603202D01*
X126825764Y-83392806D01*
X126846343Y-83496265D01*
X126986691Y-83706309D01*
X127196735Y-83846657D01*
X127444500Y-83895940D01*
X129095500Y-83895940D01*
X129343265Y-83846657D01*
X129553309Y-83706309D01*
X129693657Y-83496265D01*
X129742940Y-83248500D01*
X129742940Y-81597500D01*
X130861060Y-81597500D01*
X130861060Y-83248500D01*
X130910343Y-83496265D01*
X131050691Y-83706309D01*
X131260735Y-83846657D01*
X131508500Y-83895940D01*
X133159500Y-83895940D01*
X133407265Y-83846657D01*
X133617309Y-83706309D01*
X133757657Y-83496265D01*
X133778273Y-83392623D01*
X134045613Y-83660430D01*
X134582214Y-83883246D01*
X135163237Y-83883753D01*
X135700226Y-83661874D01*
X136111430Y-83251387D01*
X136143804Y-83173421D01*
X136175126Y-83249226D01*
X136585613Y-83660430D01*
X137122214Y-83883246D01*
X137703237Y-83883753D01*
X138240226Y-83661874D01*
X138651430Y-83251387D01*
X138683804Y-83173421D01*
X138715126Y-83249226D01*
X139125613Y-83660430D01*
X139662214Y-83883246D01*
X140243237Y-83883753D01*
X140780226Y-83661874D01*
X141191430Y-83251387D01*
X141223804Y-83173421D01*
X141255126Y-83249226D01*
X141665613Y-83660430D01*
X142202214Y-83883246D01*
X142783237Y-83883753D01*
X143320226Y-83661874D01*
X143731430Y-83251387D01*
X143763804Y-83173421D01*
X143795126Y-83249226D01*
X144205613Y-83660430D01*
X144742214Y-83883246D01*
X145323237Y-83883753D01*
X145860226Y-83661874D01*
X146271430Y-83251387D01*
X146303804Y-83173421D01*
X146335126Y-83249226D01*
X146745613Y-83660430D01*
X147282214Y-83883246D01*
X147863237Y-83883753D01*
X148400226Y-83661874D01*
X148811430Y-83251387D01*
X148843804Y-83173421D01*
X148875126Y-83249226D01*
X149285613Y-83660430D01*
X149822214Y-83883246D01*
X150403237Y-83883753D01*
X150940226Y-83661874D01*
X151351430Y-83251387D01*
X151574246Y-82714786D01*
X151574753Y-82133763D01*
X151352874Y-81596774D01*
X150942387Y-81185570D01*
X150405786Y-80962754D01*
X149824763Y-80962247D01*
X149287774Y-81184126D01*
X148876570Y-81594613D01*
X148844196Y-81672579D01*
X148812874Y-81596774D01*
X148402387Y-81185570D01*
X147865786Y-80962754D01*
X147284763Y-80962247D01*
X146747774Y-81184126D01*
X146336570Y-81594613D01*
X146304196Y-81672579D01*
X146272874Y-81596774D01*
X145862387Y-81185570D01*
X145325786Y-80962754D01*
X144744763Y-80962247D01*
X144207774Y-81184126D01*
X143796570Y-81594613D01*
X143764196Y-81672579D01*
X143732874Y-81596774D01*
X143322387Y-81185570D01*
X142785786Y-80962754D01*
X142204763Y-80962247D01*
X141667774Y-81184126D01*
X141256570Y-81594613D01*
X141224196Y-81672579D01*
X141192874Y-81596774D01*
X140782387Y-81185570D01*
X140245786Y-80962754D01*
X139664763Y-80962247D01*
X139127774Y-81184126D01*
X138716570Y-81594613D01*
X138684196Y-81672579D01*
X138652874Y-81596774D01*
X138242387Y-81185570D01*
X137705786Y-80962754D01*
X137124763Y-80962247D01*
X136587774Y-81184126D01*
X136176570Y-81594613D01*
X136144196Y-81672579D01*
X136112874Y-81596774D01*
X135702387Y-81185570D01*
X135165786Y-80962754D01*
X134584763Y-80962247D01*
X134047774Y-81184126D01*
X133778236Y-81453194D01*
X133757657Y-81349735D01*
X133617309Y-81139691D01*
X133407265Y-80999343D01*
X133159500Y-80950060D01*
X131508500Y-80950060D01*
X131260735Y-80999343D01*
X131050691Y-81139691D01*
X130910343Y-81349735D01*
X130861060Y-81597500D01*
X129742940Y-81597500D01*
X129693657Y-81349735D01*
X129553309Y-81139691D01*
X129343265Y-80999343D01*
X129095500Y-80950060D01*
X127444500Y-80950060D01*
X127196735Y-80999343D01*
X126986691Y-81139691D01*
X126846343Y-81349735D01*
X126825727Y-81453377D01*
X126558387Y-81185570D01*
X126021786Y-80962754D01*
X125440763Y-80962247D01*
X124903774Y-81184126D01*
X124492570Y-81594613D01*
X124460196Y-81672579D01*
X124428874Y-81596774D01*
X124018387Y-81185570D01*
X123481786Y-80962754D01*
X122900763Y-80962247D01*
X122363774Y-81184126D01*
X121952570Y-81594613D01*
X121920196Y-81672579D01*
X121888874Y-81596774D01*
X121478387Y-81185570D01*
X120941786Y-80962754D01*
X120360763Y-80962247D01*
X119823774Y-81184126D01*
X119412570Y-81594613D01*
X119380196Y-81672579D01*
X119348874Y-81596774D01*
X118938387Y-81185570D01*
X118401786Y-80962754D01*
X117820763Y-80962247D01*
X117283774Y-81184126D01*
X116872570Y-81594613D01*
X116840196Y-81672579D01*
X116808874Y-81596774D01*
X116398387Y-81185570D01*
X115861786Y-80962754D01*
X115280763Y-80962247D01*
X114743774Y-81184126D01*
X114332570Y-81594613D01*
X114306513Y-81657366D01*
X114304976Y-81653656D01*
X114056215Y-81576390D01*
X113209605Y-82423000D01*
X112850395Y-82423000D01*
X112003785Y-81576390D01*
X111755024Y-81653656D01*
X111753789Y-81657074D01*
X111728874Y-81596774D01*
X111529234Y-81396785D01*
X112183390Y-81396785D01*
X113030000Y-82243395D01*
X113876610Y-81396785D01*
X113799344Y-81148024D01*
X113252869Y-80950660D01*
X112672465Y-80977447D01*
X112260656Y-81148024D01*
X112183390Y-81396785D01*
X111529234Y-81396785D01*
X111318387Y-81185570D01*
X110781786Y-80962754D01*
X110200763Y-80962247D01*
X109663774Y-81184126D01*
X109252570Y-81594613D01*
X109029754Y-82131214D01*
X109029247Y-82712237D01*
X108660000Y-82712237D01*
X108660000Y-80593000D01*
X152400000Y-80593000D01*
X152400000Y-87489087D01*
X152400000Y-87489087D01*
G37*
X152400000Y-87489087D02*
X152303864Y-87256995D01*
X152057745Y-87182861D01*
X151229605Y-88011000D01*
X152057745Y-88839139D01*
X152303864Y-88765005D01*
X152400000Y-88497544D01*
X152400000Y-132461000D01*
X108660000Y-132461000D01*
X108660000Y-129857500D01*
X113081060Y-129857500D01*
X113081060Y-131508500D01*
X113130343Y-131756265D01*
X113270691Y-131966309D01*
X113480735Y-132106657D01*
X113728500Y-132155940D01*
X115379500Y-132155940D01*
X115627265Y-132106657D01*
X115837309Y-131966309D01*
X115977657Y-131756265D01*
X115998273Y-131652623D01*
X116265613Y-131920430D01*
X116802214Y-132143246D01*
X117383237Y-132143753D01*
X117920226Y-131921874D01*
X118331430Y-131511387D01*
X118363804Y-131433421D01*
X118395126Y-131509226D01*
X118805613Y-131920430D01*
X119342214Y-132143246D01*
X119923237Y-132143753D01*
X120460226Y-131921874D01*
X120871430Y-131511387D01*
X120903804Y-131433421D01*
X120935126Y-131509226D01*
X121345613Y-131920430D01*
X121882214Y-132143246D01*
X122463237Y-132143753D01*
X123000226Y-131921874D01*
X123411430Y-131511387D01*
X123443804Y-131433421D01*
X123475126Y-131509226D01*
X123885613Y-131920430D01*
X124422214Y-132143246D01*
X125003237Y-132143753D01*
X125540226Y-131921874D01*
X125753256Y-131709215D01*
X126407390Y-131709215D01*
X126484656Y-131957976D01*
X127031131Y-132155340D01*
X127611535Y-132128553D01*
X128023344Y-131957976D01*
X128100610Y-131709215D01*
X128947390Y-131709215D01*
X129024656Y-131957976D01*
X129571131Y-132155340D01*
X130151535Y-132128553D01*
X130563344Y-131957976D01*
X130640610Y-131709215D01*
X129794000Y-130862605D01*
X128947390Y-131709215D01*
X128100610Y-131709215D01*
X127254000Y-130862605D01*
X126407390Y-131709215D01*
X125753256Y-131709215D01*
X125951430Y-131511387D01*
X125977487Y-131448634D01*
X125979024Y-131452344D01*
X126227785Y-131529610D01*
X127074395Y-130683000D01*
X127433605Y-130683000D01*
X128280215Y-131529610D01*
X128524000Y-131453890D01*
X128767785Y-131529610D01*
X129614395Y-130683000D01*
X129973605Y-130683000D01*
X130820215Y-131529610D01*
X131068976Y-131452344D01*
X131070211Y-131448926D01*
X131095126Y-131509226D01*
X131505613Y-131920430D01*
X132042214Y-132143246D01*
X132623237Y-132143753D01*
X133160226Y-131921874D01*
X133571430Y-131511387D01*
X133794246Y-130974786D01*
X133794753Y-130393763D01*
X133573174Y-129857500D01*
X135941060Y-129857500D01*
X135941060Y-131508500D01*
X135990343Y-131756265D01*
X136130691Y-131966309D01*
X136340735Y-132106657D01*
X136588500Y-132155940D01*
X138239500Y-132155940D01*
X138487265Y-132106657D01*
X138697309Y-131966309D01*
X138837657Y-131756265D01*
X138858273Y-131652623D01*
X139125613Y-131920430D01*
X139662214Y-132143246D01*
X140243237Y-132143753D01*
X140780226Y-131921874D01*
X141191430Y-131511387D01*
X141223804Y-131433421D01*
X141255126Y-131509226D01*
X141665613Y-131920430D01*
X142202214Y-132143246D01*
X142783237Y-132143753D01*
X143320226Y-131921874D01*
X143731430Y-131511387D01*
X143763804Y-131433421D01*
X143795126Y-131509226D01*
X144205613Y-131920430D01*
X144742214Y-132143246D01*
X145323237Y-132143753D01*
X145860226Y-131921874D01*
X146271430Y-131511387D01*
X146303804Y-131433421D01*
X146335126Y-131509226D01*
X146745613Y-131920430D01*
X147282214Y-132143246D01*
X147863237Y-132143753D01*
X148400226Y-131921874D01*
X148811430Y-131511387D01*
X148843804Y-131433421D01*
X148875126Y-131509226D01*
X149285613Y-131920430D01*
X149822214Y-132143246D01*
X150403237Y-132143753D01*
X150940226Y-131921874D01*
X151351430Y-131511387D01*
X151574246Y-130974786D01*
X151574753Y-130393763D01*
X151352874Y-129856774D01*
X150942387Y-129445570D01*
X150405786Y-129222754D01*
X149824763Y-129222247D01*
X149287774Y-129444126D01*
X148876570Y-129854613D01*
X148844196Y-129932579D01*
X148812874Y-129856774D01*
X148402387Y-129445570D01*
X147865786Y-129222754D01*
X147284763Y-129222247D01*
X146747774Y-129444126D01*
X146336570Y-129854613D01*
X146304196Y-129932579D01*
X146272874Y-129856774D01*
X145862387Y-129445570D01*
X145325786Y-129222754D01*
X144744763Y-129222247D01*
X144207774Y-129444126D01*
X143796570Y-129854613D01*
X143764196Y-129932579D01*
X143732874Y-129856774D01*
X143322387Y-129445570D01*
X142785786Y-129222754D01*
X142204763Y-129222247D01*
X141667774Y-129444126D01*
X141256570Y-129854613D01*
X141224196Y-129932579D01*
X141192874Y-129856774D01*
X140782387Y-129445570D01*
X140245786Y-129222754D01*
X139664763Y-129222247D01*
X139127774Y-129444126D01*
X138858236Y-129713194D01*
X138837657Y-129609735D01*
X138697309Y-129399691D01*
X138487265Y-129259343D01*
X138239500Y-129210060D01*
X136588500Y-129210060D01*
X136340735Y-129259343D01*
X136130691Y-129399691D01*
X135990343Y-129609735D01*
X135941060Y-129857500D01*
X133573174Y-129857500D01*
X133572874Y-129856774D01*
X133162387Y-129445570D01*
X132625786Y-129222754D01*
X132044763Y-129222247D01*
X131507774Y-129444126D01*
X131096570Y-129854613D01*
X131070513Y-129917366D01*
X131068976Y-129913656D01*
X130820215Y-129836390D01*
X129973605Y-130683000D01*
X129614395Y-130683000D01*
X128767785Y-129836390D01*
X128524000Y-129912110D01*
X128280215Y-129836390D01*
X127433605Y-130683000D01*
X127074395Y-130683000D01*
X126227785Y-129836390D01*
X125979024Y-129913656D01*
X125977789Y-129917074D01*
X125952874Y-129856774D01*
X125753234Y-129656785D01*
X126407390Y-129656785D01*
X127254000Y-130503395D01*
X128100610Y-129656785D01*
X128947390Y-129656785D01*
X129794000Y-130503395D01*
X130640610Y-129656785D01*
X130563344Y-129408024D01*
X130016869Y-129210660D01*
X129436465Y-129237447D01*
X129024656Y-129408024D01*
X128947390Y-129656785D01*
X128100610Y-129656785D01*
X128023344Y-129408024D01*
X127476869Y-129210660D01*
X126896465Y-129237447D01*
X126484656Y-129408024D01*
X126407390Y-129656785D01*
X125753234Y-129656785D01*
X125542387Y-129445570D01*
X125005786Y-129222754D01*
X124424763Y-129222247D01*
X123887774Y-129444126D01*
X123476570Y-129854613D01*
X123444196Y-129932579D01*
X123412874Y-129856774D01*
X123002387Y-129445570D01*
X122465786Y-129222754D01*
X121884763Y-129222247D01*
X121347774Y-129444126D01*
X120936570Y-129854613D01*
X120904196Y-129932579D01*
X120872874Y-129856774D01*
X120462387Y-129445570D01*
X119925786Y-129222754D01*
X119344763Y-129222247D01*
X118807774Y-129444126D01*
X118396570Y-129854613D01*
X118364196Y-129932579D01*
X118332874Y-129856774D01*
X117922387Y-129445570D01*
X117385786Y-129222754D01*
X116804763Y-129222247D01*
X116267774Y-129444126D01*
X115998236Y-129713194D01*
X115977657Y-129609735D01*
X115837309Y-129399691D01*
X115627265Y-129259343D01*
X115379500Y-129210060D01*
X113728500Y-129210060D01*
X113480735Y-129259343D01*
X113270691Y-129399691D01*
X113130343Y-129609735D01*
X113081060Y-129857500D01*
X108660000Y-129857500D01*
X108660000Y-103187500D01*
X109017060Y-103187500D01*
X109017060Y-104838500D01*
X109066343Y-105086265D01*
X109206691Y-105296309D01*
X109416735Y-105436657D01*
X109664500Y-105485940D01*
X111315500Y-105485940D01*
X111563265Y-105436657D01*
X111773309Y-105296309D01*
X111913657Y-105086265D01*
X111962940Y-104838500D01*
X111962940Y-103187500D01*
X111913657Y-102939735D01*
X111773309Y-102729691D01*
X111563265Y-102589343D01*
X111459623Y-102568727D01*
X111529256Y-102499215D01*
X118533390Y-102499215D01*
X118610656Y-102747976D01*
X119157131Y-102945340D01*
X119737535Y-102918553D01*
X120149344Y-102747976D01*
X120226610Y-102499215D01*
X127423390Y-102499215D01*
X127500656Y-102747976D01*
X128047131Y-102945340D01*
X128627535Y-102918553D01*
X129039344Y-102747976D01*
X129116610Y-102499215D01*
X137075390Y-102499215D01*
X137152656Y-102747976D01*
X137699131Y-102945340D01*
X138279535Y-102918553D01*
X138691344Y-102747976D01*
X138768610Y-102499215D01*
X147743390Y-102499215D01*
X147820656Y-102747976D01*
X148367131Y-102945340D01*
X148947535Y-102918553D01*
X149359344Y-102747976D01*
X149436610Y-102499215D01*
X148590000Y-101652605D01*
X147743390Y-102499215D01*
X138768610Y-102499215D01*
X137922000Y-101652605D01*
X137075390Y-102499215D01*
X129116610Y-102499215D01*
X128270000Y-101652605D01*
X127423390Y-102499215D01*
X120226610Y-102499215D01*
X119380000Y-101652605D01*
X118533390Y-102499215D01*
X111529256Y-102499215D01*
X111727430Y-102301387D01*
X111950246Y-101764786D01*
X111950695Y-101250131D01*
X117907660Y-101250131D01*
X117934447Y-101830535D01*
X118105024Y-102242344D01*
X118353785Y-102319610D01*
X119200395Y-101473000D01*
X119559605Y-101473000D01*
X120406215Y-102319610D01*
X120654976Y-102242344D01*
X120852340Y-101695869D01*
X120831769Y-101250131D01*
X126797660Y-101250131D01*
X126824447Y-101830535D01*
X126995024Y-102242344D01*
X127243785Y-102319610D01*
X128090395Y-101473000D01*
X128449605Y-101473000D01*
X129296215Y-102319610D01*
X129544976Y-102242344D01*
X129742340Y-101695869D01*
X129721769Y-101250131D01*
X136449660Y-101250131D01*
X136476447Y-101830535D01*
X136647024Y-102242344D01*
X136895785Y-102319610D01*
X137742395Y-101473000D01*
X138101605Y-101473000D01*
X138948215Y-102319610D01*
X139196976Y-102242344D01*
X139394340Y-101695869D01*
X139373769Y-101250131D01*
X147117660Y-101250131D01*
X147144447Y-101830535D01*
X147315024Y-102242344D01*
X147563785Y-102319610D01*
X148410395Y-101473000D01*
X148769605Y-101473000D01*
X149616215Y-102319610D01*
X149864976Y-102242344D01*
X150062340Y-101695869D01*
X150035553Y-101115465D01*
X149864976Y-100703656D01*
X149616215Y-100626390D01*
X148769605Y-101473000D01*
X148410395Y-101473000D01*
X147563785Y-100626390D01*
X147315024Y-100703656D01*
X147117660Y-101250131D01*
X139373769Y-101250131D01*
X139367553Y-101115465D01*
X139196976Y-100703656D01*
X138948215Y-100626390D01*
X138101605Y-101473000D01*
X137742395Y-101473000D01*
X136895785Y-100626390D01*
X136647024Y-100703656D01*
X136449660Y-101250131D01*
X129721769Y-101250131D01*
X129715553Y-101115465D01*
X129544976Y-100703656D01*
X129296215Y-100626390D01*
X128449605Y-101473000D01*
X128090395Y-101473000D01*
X127243785Y-100626390D01*
X126995024Y-100703656D01*
X126797660Y-101250131D01*
X120831769Y-101250131D01*
X120825553Y-101115465D01*
X120654976Y-100703656D01*
X120406215Y-100626390D01*
X119559605Y-101473000D01*
X119200395Y-101473000D01*
X118353785Y-100626390D01*
X118105024Y-100703656D01*
X117907660Y-101250131D01*
X111950695Y-101250131D01*
X111950753Y-101183763D01*
X111728874Y-100646774D01*
X111318387Y-100235570D01*
X111255634Y-100209513D01*
X111259344Y-100207976D01*
X111336610Y-99959215D01*
X110490000Y-99112605D01*
X109643390Y-99959215D01*
X109720656Y-100207976D01*
X109724074Y-100209211D01*
X109663774Y-100234126D01*
X109252570Y-100644613D01*
X109029754Y-101181214D01*
X109029247Y-101762237D01*
X109251126Y-102299226D01*
X109520194Y-102568764D01*
X109416735Y-102589343D01*
X109206691Y-102729691D01*
X109066343Y-102939735D01*
X109017060Y-103187500D01*
X108660000Y-103187500D01*
X108660000Y-98710131D01*
X109017660Y-98710131D01*
X109044447Y-99290535D01*
X109215024Y-99702344D01*
X109463785Y-99779610D01*
X110310395Y-98933000D01*
X110669605Y-98933000D01*
X111516215Y-99779610D01*
X111764976Y-99702344D01*
X111938370Y-99222237D01*
X117919247Y-99222237D01*
X118141126Y-99759226D01*
X118551613Y-100170430D01*
X118614366Y-100196487D01*
X118610656Y-100198024D01*
X118533390Y-100446785D01*
X119380000Y-101293395D01*
X120226610Y-100446785D01*
X120149344Y-100198024D01*
X120145926Y-100196789D01*
X120206226Y-100171874D01*
X120617430Y-99761387D01*
X120840246Y-99224786D01*
X120840753Y-98643763D01*
X120618874Y-98106774D01*
X120208387Y-97695570D01*
X120145634Y-97669513D01*
X120149344Y-97667976D01*
X120226610Y-97419215D01*
X119380000Y-96572605D01*
X118533390Y-97419215D01*
X118610656Y-97667976D01*
X118614074Y-97669211D01*
X118553774Y-97694126D01*
X118142570Y-98104613D01*
X117919754Y-98641214D01*
X117919247Y-99222237D01*
X111938370Y-99222237D01*
X111962340Y-99155869D01*
X111935553Y-98575465D01*
X111764976Y-98163656D01*
X111516215Y-98086390D01*
X110669605Y-98933000D01*
X110310395Y-98933000D01*
X109463785Y-98086390D01*
X109215024Y-98163656D01*
X109017660Y-98710131D01*
X108660000Y-98710131D01*
X108660000Y-91602237D01*
X109029247Y-91602237D01*
X109251126Y-92139226D01*
X109661613Y-92550430D01*
X109739579Y-92582804D01*
X109663774Y-92614126D01*
X109252570Y-93024613D01*
X109029754Y-93561214D01*
X109029247Y-94142237D01*
X109251126Y-94679226D01*
X109661613Y-95090430D01*
X109739579Y-95122804D01*
X109663774Y-95154126D01*
X109252570Y-95564613D01*
X109029754Y-96101214D01*
X109029247Y-96682237D01*
X109251126Y-97219226D01*
X109661613Y-97630430D01*
X109724366Y-97656487D01*
X109720656Y-97658024D01*
X109643390Y-97906785D01*
X110490000Y-98753395D01*
X111336610Y-97906785D01*
X111259344Y-97658024D01*
X111255926Y-97656789D01*
X111316226Y-97631874D01*
X111727430Y-97221387D01*
X111950246Y-96684786D01*
X111950695Y-96170131D01*
X117907660Y-96170131D01*
X117934447Y-96750535D01*
X118105024Y-97162344D01*
X118353785Y-97239610D01*
X119200395Y-96393000D01*
X119559605Y-96393000D01*
X120406215Y-97239610D01*
X120654976Y-97162344D01*
X120852340Y-96615869D01*
X120825553Y-96035465D01*
X120654976Y-95623656D01*
X120406215Y-95546390D01*
X119559605Y-96393000D01*
X119200395Y-96393000D01*
X118353785Y-95546390D01*
X118105024Y-95623656D01*
X117907660Y-96170131D01*
X111950695Y-96170131D01*
X111950753Y-96103763D01*
X111728874Y-95566774D01*
X111318387Y-95155570D01*
X111240421Y-95123196D01*
X111316226Y-95091874D01*
X111727430Y-94681387D01*
X111950246Y-94144786D01*
X111950753Y-93563763D01*
X111729174Y-93027500D01*
X117907060Y-93027500D01*
X117907060Y-94678500D01*
X117956343Y-94926265D01*
X118096691Y-95136309D01*
X118306735Y-95276657D01*
X118546567Y-95324362D01*
X118533390Y-95366785D01*
X119380000Y-96213395D01*
X120226610Y-95366785D01*
X120213433Y-95324362D01*
X120453265Y-95276657D01*
X120663309Y-95136309D01*
X120803657Y-94926265D01*
X120852940Y-94678500D01*
X120852940Y-93027500D01*
X120803657Y-92779735D01*
X120663309Y-92569691D01*
X120453265Y-92429343D01*
X120205500Y-92380060D01*
X118554500Y-92380060D01*
X118306735Y-92429343D01*
X118096691Y-92569691D01*
X117956343Y-92779735D01*
X117907060Y-93027500D01*
X111729174Y-93027500D01*
X111728874Y-93026774D01*
X111318387Y-92615570D01*
X111240421Y-92583196D01*
X111316226Y-92551874D01*
X111727430Y-92141387D01*
X111950246Y-91604786D01*
X111950753Y-91023763D01*
X111728874Y-90486774D01*
X111318387Y-90075570D01*
X110781786Y-89852754D01*
X110200763Y-89852247D01*
X109663774Y-90074126D01*
X109252570Y-90484613D01*
X109029754Y-91021214D01*
X109029247Y-91602237D01*
X108660000Y-91602237D01*
X108660000Y-82712237D01*
X109029247Y-82712237D01*
X109251126Y-83249226D01*
X109661613Y-83660430D01*
X110198214Y-83883246D01*
X110779237Y-83883753D01*
X111316226Y-83661874D01*
X111529256Y-83449215D01*
X112183390Y-83449215D01*
X112260656Y-83697976D01*
X112807131Y-83895340D01*
X113387535Y-83868553D01*
X113799344Y-83697976D01*
X113876610Y-83449215D01*
X113030000Y-82602605D01*
X112183390Y-83449215D01*
X111529256Y-83449215D01*
X111727430Y-83251387D01*
X111753487Y-83188634D01*
X111755024Y-83192344D01*
X112003785Y-83269610D01*
X112850395Y-82423000D01*
X113209605Y-82423000D01*
X114056215Y-83269610D01*
X114304976Y-83192344D01*
X114306211Y-83188926D01*
X114331126Y-83249226D01*
X114741613Y-83660430D01*
X115278214Y-83883246D01*
X115859237Y-83883753D01*
X116396226Y-83661874D01*
X116807430Y-83251387D01*
X116839804Y-83173421D01*
X116871126Y-83249226D01*
X117281613Y-83660430D01*
X117818214Y-83883246D01*
X118399237Y-83883753D01*
X118936226Y-83661874D01*
X119347430Y-83251387D01*
X119379804Y-83173421D01*
X119411126Y-83249226D01*
X119821613Y-83660430D01*
X120358214Y-83883246D01*
X120939237Y-83883753D01*
X121476226Y-83661874D01*
X121887430Y-83251387D01*
X121919804Y-83173421D01*
X121951126Y-83249226D01*
X122361613Y-83660430D01*
X122898214Y-83883246D01*
X123479237Y-83883753D01*
X124016226Y-83661874D01*
X124427430Y-83251387D01*
X124459804Y-83173421D01*
X124491126Y-83249226D01*
X124845000Y-83603718D01*
X124845000Y-86232995D01*
X124844999Y-86233000D01*
X124901190Y-86515484D01*
X124912367Y-86571675D01*
X125104210Y-86858790D01*
X127385000Y-89139579D01*
X127385000Y-92391895D01*
X127196735Y-92429343D01*
X126986691Y-92569691D01*
X126846343Y-92779735D01*
X126797060Y-93027500D01*
X126797060Y-94678500D01*
X126846343Y-94926265D01*
X126986691Y-95136309D01*
X127196735Y-95276657D01*
X127300377Y-95297273D01*
X127032570Y-95564613D01*
X126809754Y-96101214D01*
X126809247Y-96682237D01*
X127031126Y-97219226D01*
X127441613Y-97630430D01*
X127519579Y-97662804D01*
X127443774Y-97694126D01*
X127032570Y-98104613D01*
X126809754Y-98641214D01*
X126809247Y-99222237D01*
X127031126Y-99759226D01*
X127441613Y-100170430D01*
X127504366Y-100196487D01*
X127500656Y-100198024D01*
X127423390Y-100446785D01*
X128270000Y-101293395D01*
X129116610Y-100446785D01*
X129039344Y-100198024D01*
X129035926Y-100196789D01*
X129096226Y-100171874D01*
X129309256Y-99959215D01*
X137075390Y-99959215D01*
X137151110Y-100203000D01*
X137075390Y-100446785D01*
X137922000Y-101293395D01*
X138768610Y-100446785D01*
X138692890Y-100203000D01*
X138768610Y-99959215D01*
X137922000Y-99112605D01*
X137075390Y-99959215D01*
X129309256Y-99959215D01*
X129507430Y-99761387D01*
X129730246Y-99224786D01*
X129730695Y-98710131D01*
X136449660Y-98710131D01*
X136476447Y-99290535D01*
X136647024Y-99702344D01*
X136895785Y-99779610D01*
X137742395Y-98933000D01*
X138101605Y-98933000D01*
X138948215Y-99779610D01*
X139196976Y-99702344D01*
X139394340Y-99155869D01*
X139367553Y-98575465D01*
X139196976Y-98163656D01*
X138948215Y-98086390D01*
X138101605Y-98933000D01*
X137742395Y-98933000D01*
X136895785Y-98086390D01*
X136647024Y-98163656D01*
X136449660Y-98710131D01*
X129730695Y-98710131D01*
X129730753Y-98643763D01*
X129508874Y-98106774D01*
X129098387Y-97695570D01*
X129020421Y-97663196D01*
X129096226Y-97631874D01*
X129507430Y-97221387D01*
X129730246Y-96684786D01*
X129730753Y-96103763D01*
X129508874Y-95566774D01*
X129239806Y-95297236D01*
X129343265Y-95276657D01*
X129553309Y-95136309D01*
X129693657Y-94926265D01*
X129742940Y-94678500D01*
X129742940Y-93027500D01*
X136449060Y-93027500D01*
X136449060Y-94678500D01*
X136498343Y-94926265D01*
X136638691Y-95136309D01*
X136848735Y-95276657D01*
X136952377Y-95297273D01*
X136684570Y-95564613D01*
X136461754Y-96101214D01*
X136461247Y-96682237D01*
X136683126Y-97219226D01*
X137093613Y-97630430D01*
X137156366Y-97656487D01*
X137152656Y-97658024D01*
X137075390Y-97906785D01*
X137922000Y-98753395D01*
X138768610Y-97906785D01*
X138691344Y-97658024D01*
X138687926Y-97656789D01*
X138748226Y-97631874D01*
X139159430Y-97221387D01*
X139382246Y-96684786D01*
X139382753Y-96103763D01*
X139161174Y-95567500D01*
X147117060Y-95567500D01*
X147117060Y-97218500D01*
X147166343Y-97466265D01*
X147306691Y-97676309D01*
X147516735Y-97816657D01*
X147620377Y-97837273D01*
X147352570Y-98104613D01*
X147129754Y-98641214D01*
X147129247Y-99222237D01*
X147351126Y-99759226D01*
X147761613Y-100170430D01*
X147824366Y-100196487D01*
X147820656Y-100198024D01*
X147743390Y-100446785D01*
X148590000Y-101293395D01*
X149436610Y-100446785D01*
X149359344Y-100198024D01*
X149355926Y-100196789D01*
X149416226Y-100171874D01*
X149827430Y-99761387D01*
X150050246Y-99224786D01*
X150050753Y-98643763D01*
X149828874Y-98106774D01*
X149559806Y-97837236D01*
X149663265Y-97816657D01*
X149873309Y-97676309D01*
X150013657Y-97466265D01*
X150062940Y-97218500D01*
X150062940Y-95567500D01*
X150013657Y-95319735D01*
X149873309Y-95109691D01*
X149663265Y-94969343D01*
X149415500Y-94920060D01*
X147764500Y-94920060D01*
X147516735Y-94969343D01*
X147306691Y-95109691D01*
X147166343Y-95319735D01*
X147117060Y-95567500D01*
X139161174Y-95567500D01*
X139160874Y-95566774D01*
X138891806Y-95297236D01*
X138995265Y-95276657D01*
X139205309Y-95136309D01*
X139345657Y-94926265D01*
X139394940Y-94678500D01*
X139394940Y-93027500D01*
X139345657Y-92779735D01*
X139205309Y-92569691D01*
X138995265Y-92429343D01*
X138747500Y-92380060D01*
X137096500Y-92380060D01*
X136848735Y-92429343D01*
X136638691Y-92569691D01*
X136498343Y-92779735D01*
X136449060Y-93027500D01*
X129742940Y-93027500D01*
X129693657Y-92779735D01*
X129553309Y-92569691D01*
X129343265Y-92429343D01*
X129155000Y-92391895D01*
X129155000Y-88773000D01*
X129087633Y-88434325D01*
X128895790Y-88147210D01*
X128895787Y-88147208D01*
X127959580Y-87211000D01*
X144602560Y-87211000D01*
X144602560Y-88811000D01*
X144651843Y-89058765D01*
X144792191Y-89268809D01*
X145002235Y-89409157D01*
X145250000Y-89458440D01*
X146850000Y-89458440D01*
X147097765Y-89409157D01*
X147307809Y-89268809D01*
X147448157Y-89058765D01*
X147456117Y-89018745D01*
X150221861Y-89018745D01*
X150295995Y-89264864D01*
X150833223Y-89457965D01*
X151403454Y-89430778D01*
X151804005Y-89264864D01*
X151878139Y-89018745D01*
X151050000Y-88190605D01*
X150221861Y-89018745D01*
X147456117Y-89018745D01*
X147497440Y-88811000D01*
X147497440Y-87794223D01*
X149603035Y-87794223D01*
X149630222Y-88364454D01*
X149796136Y-88765005D01*
X150042255Y-88839139D01*
X150870395Y-88011000D01*
X150042255Y-87182861D01*
X149796136Y-87256995D01*
X149603035Y-87794223D01*
X147497440Y-87794223D01*
X147497440Y-87211000D01*
X147456118Y-87003255D01*
X150221861Y-87003255D01*
X151050000Y-87831395D01*
X151878139Y-87003255D01*
X151804005Y-86757136D01*
X151266777Y-86564035D01*
X150696546Y-86591222D01*
X150295995Y-86757136D01*
X150221861Y-87003255D01*
X147456118Y-87003255D01*
X147448157Y-86963235D01*
X147307809Y-86753191D01*
X147097765Y-86612843D01*
X146850000Y-86563560D01*
X145250000Y-86563560D01*
X145002235Y-86612843D01*
X144792191Y-86753191D01*
X144651843Y-86963235D01*
X144602560Y-87211000D01*
X127959580Y-87211000D01*
X126615000Y-85866420D01*
X126615000Y-83603202D01*
X126825764Y-83392806D01*
X126846343Y-83496265D01*
X126986691Y-83706309D01*
X127196735Y-83846657D01*
X127444500Y-83895940D01*
X129095500Y-83895940D01*
X129343265Y-83846657D01*
X129553309Y-83706309D01*
X129693657Y-83496265D01*
X129742940Y-83248500D01*
X129742940Y-81597500D01*
X130861060Y-81597500D01*
X130861060Y-83248500D01*
X130910343Y-83496265D01*
X131050691Y-83706309D01*
X131260735Y-83846657D01*
X131508500Y-83895940D01*
X133159500Y-83895940D01*
X133407265Y-83846657D01*
X133617309Y-83706309D01*
X133757657Y-83496265D01*
X133778273Y-83392623D01*
X134045613Y-83660430D01*
X134582214Y-83883246D01*
X135163237Y-83883753D01*
X135700226Y-83661874D01*
X136111430Y-83251387D01*
X136143804Y-83173421D01*
X136175126Y-83249226D01*
X136585613Y-83660430D01*
X137122214Y-83883246D01*
X137703237Y-83883753D01*
X138240226Y-83661874D01*
X138651430Y-83251387D01*
X138683804Y-83173421D01*
X138715126Y-83249226D01*
X139125613Y-83660430D01*
X139662214Y-83883246D01*
X140243237Y-83883753D01*
X140780226Y-83661874D01*
X141191430Y-83251387D01*
X141223804Y-83173421D01*
X141255126Y-83249226D01*
X141665613Y-83660430D01*
X142202214Y-83883246D01*
X142783237Y-83883753D01*
X143320226Y-83661874D01*
X143731430Y-83251387D01*
X143763804Y-83173421D01*
X143795126Y-83249226D01*
X144205613Y-83660430D01*
X144742214Y-83883246D01*
X145323237Y-83883753D01*
X145860226Y-83661874D01*
X146271430Y-83251387D01*
X146303804Y-83173421D01*
X146335126Y-83249226D01*
X146745613Y-83660430D01*
X147282214Y-83883246D01*
X147863237Y-83883753D01*
X148400226Y-83661874D01*
X148811430Y-83251387D01*
X148843804Y-83173421D01*
X148875126Y-83249226D01*
X149285613Y-83660430D01*
X149822214Y-83883246D01*
X150403237Y-83883753D01*
X150940226Y-83661874D01*
X151351430Y-83251387D01*
X151574246Y-82714786D01*
X151574753Y-82133763D01*
X151352874Y-81596774D01*
X150942387Y-81185570D01*
X150405786Y-80962754D01*
X149824763Y-80962247D01*
X149287774Y-81184126D01*
X148876570Y-81594613D01*
X148844196Y-81672579D01*
X148812874Y-81596774D01*
X148402387Y-81185570D01*
X147865786Y-80962754D01*
X147284763Y-80962247D01*
X146747774Y-81184126D01*
X146336570Y-81594613D01*
X146304196Y-81672579D01*
X146272874Y-81596774D01*
X145862387Y-81185570D01*
X145325786Y-80962754D01*
X144744763Y-80962247D01*
X144207774Y-81184126D01*
X143796570Y-81594613D01*
X143764196Y-81672579D01*
X143732874Y-81596774D01*
X143322387Y-81185570D01*
X142785786Y-80962754D01*
X142204763Y-80962247D01*
X141667774Y-81184126D01*
X141256570Y-81594613D01*
X141224196Y-81672579D01*
X141192874Y-81596774D01*
X140782387Y-81185570D01*
X140245786Y-80962754D01*
X139664763Y-80962247D01*
X139127774Y-81184126D01*
X138716570Y-81594613D01*
X138684196Y-81672579D01*
X138652874Y-81596774D01*
X138242387Y-81185570D01*
X137705786Y-80962754D01*
X137124763Y-80962247D01*
X136587774Y-81184126D01*
X136176570Y-81594613D01*
X136144196Y-81672579D01*
X136112874Y-81596774D01*
X135702387Y-81185570D01*
X135165786Y-80962754D01*
X134584763Y-80962247D01*
X134047774Y-81184126D01*
X133778236Y-81453194D01*
X133757657Y-81349735D01*
X133617309Y-81139691D01*
X133407265Y-80999343D01*
X133159500Y-80950060D01*
X131508500Y-80950060D01*
X131260735Y-80999343D01*
X131050691Y-81139691D01*
X130910343Y-81349735D01*
X130861060Y-81597500D01*
X129742940Y-81597500D01*
X129693657Y-81349735D01*
X129553309Y-81139691D01*
X129343265Y-80999343D01*
X129095500Y-80950060D01*
X127444500Y-80950060D01*
X127196735Y-80999343D01*
X126986691Y-81139691D01*
X126846343Y-81349735D01*
X126825727Y-81453377D01*
X126558387Y-81185570D01*
X126021786Y-80962754D01*
X125440763Y-80962247D01*
X124903774Y-81184126D01*
X124492570Y-81594613D01*
X124460196Y-81672579D01*
X124428874Y-81596774D01*
X124018387Y-81185570D01*
X123481786Y-80962754D01*
X122900763Y-80962247D01*
X122363774Y-81184126D01*
X121952570Y-81594613D01*
X121920196Y-81672579D01*
X121888874Y-81596774D01*
X121478387Y-81185570D01*
X120941786Y-80962754D01*
X120360763Y-80962247D01*
X119823774Y-81184126D01*
X119412570Y-81594613D01*
X119380196Y-81672579D01*
X119348874Y-81596774D01*
X118938387Y-81185570D01*
X118401786Y-80962754D01*
X117820763Y-80962247D01*
X117283774Y-81184126D01*
X116872570Y-81594613D01*
X116840196Y-81672579D01*
X116808874Y-81596774D01*
X116398387Y-81185570D01*
X115861786Y-80962754D01*
X115280763Y-80962247D01*
X114743774Y-81184126D01*
X114332570Y-81594613D01*
X114306513Y-81657366D01*
X114304976Y-81653656D01*
X114056215Y-81576390D01*
X113209605Y-82423000D01*
X112850395Y-82423000D01*
X112003785Y-81576390D01*
X111755024Y-81653656D01*
X111753789Y-81657074D01*
X111728874Y-81596774D01*
X111529234Y-81396785D01*
X112183390Y-81396785D01*
X113030000Y-82243395D01*
X113876610Y-81396785D01*
X113799344Y-81148024D01*
X113252869Y-80950660D01*
X112672465Y-80977447D01*
X112260656Y-81148024D01*
X112183390Y-81396785D01*
X111529234Y-81396785D01*
X111318387Y-81185570D01*
X110781786Y-80962754D01*
X110200763Y-80962247D01*
X109663774Y-81184126D01*
X109252570Y-81594613D01*
X109029754Y-82131214D01*
X109029247Y-82712237D01*
X108660000Y-82712237D01*
X108660000Y-80593000D01*
X152400000Y-80593000D01*
X152400000Y-87489087D01*
M02*
