G04 #@! TF.GenerationSoftware,KiCad,Pcbnew,(2017-02-16 revision ccbdb41)-makepkg*
G04 #@! TF.CreationDate,2017-02-23T14:10:58+01:00*
G04 #@! TF.ProjectId,Kicad,4B696361642E6B696361645F70636200,rev?*
G04 #@! TF.FileFunction,Copper,L1,Top,Signal*
G04 #@! TF.FilePolarity,Positive*
%FSLAX46Y46*%
G04 Gerber Fmt 4.6, Leading zero omitted, Abs format (unit mm)*
G04 Created by KiCad (PCBNEW (2017-02-16 revision ccbdb41)-makepkg) date 02/23/17 14:10:58*
%MOMM*%
%LPD*%
G01*
G04 APERTURE LIST*
%ADD10C,0.100000*%
%ADD11R,1.651000X1.651000*%
%ADD12C,1.651000*%
%ADD13R,1.600000X1.600000*%
%ADD14C,1.600000*%
%ADD15R,1.524000X1.270000*%
%ADD16C,0.500000*%
%ADD17C,0.254000*%
G04 APERTURE END LIST*
D10*
D11*
X137922000Y-93853000D03*
D12*
X137922000Y-96393000D03*
X137922000Y-98933000D03*
X137922000Y-101473000D03*
D11*
X119380000Y-93853000D03*
D12*
X119380000Y-96393000D03*
X119380000Y-98933000D03*
X119380000Y-101473000D03*
D11*
X128270000Y-93853000D03*
D12*
X128270000Y-96393000D03*
X128270000Y-98933000D03*
X128270000Y-101473000D03*
D11*
X110490000Y-104013000D03*
D12*
X110490000Y-101473000D03*
X110490000Y-98933000D03*
X110490000Y-96393000D03*
X110490000Y-93853000D03*
X110490000Y-91313000D03*
D11*
X148590000Y-96393000D03*
D12*
X148590000Y-98933000D03*
X148590000Y-101473000D03*
D11*
X114554000Y-130683000D03*
D12*
X117094000Y-130683000D03*
X119634000Y-130683000D03*
X122174000Y-130683000D03*
X124714000Y-130683000D03*
X127254000Y-130683000D03*
X129794000Y-130683000D03*
X132334000Y-130683000D03*
D11*
X137414000Y-130683000D03*
D12*
X139954000Y-130683000D03*
X142494000Y-130683000D03*
X145034000Y-130683000D03*
X147574000Y-130683000D03*
X150114000Y-130683000D03*
D11*
X132334000Y-82423000D03*
D12*
X134874000Y-82423000D03*
X137414000Y-82423000D03*
X139954000Y-82423000D03*
X142494000Y-82423000D03*
X145034000Y-82423000D03*
X147574000Y-82423000D03*
X150114000Y-82423000D03*
D11*
X128270000Y-82423000D03*
D12*
X125730000Y-82423000D03*
X123190000Y-82423000D03*
X120650000Y-82423000D03*
X118110000Y-82423000D03*
X115570000Y-82423000D03*
X113030000Y-82423000D03*
X110490000Y-82423000D03*
D13*
X146050000Y-88011000D03*
D14*
X151050000Y-88011000D03*
D15*
X143510000Y-96393000D03*
X143510000Y-93853000D03*
D16*
X132334000Y-86487000D02*
X132334000Y-82423000D01*
X130302000Y-88519000D02*
X132334000Y-86487000D01*
X125222000Y-88519000D02*
X130302000Y-88519000D01*
X123698000Y-90043000D02*
X125222000Y-88519000D01*
X123698000Y-97663000D02*
X123698000Y-90043000D01*
X122428000Y-98933000D02*
X123698000Y-97663000D01*
X119380000Y-98933000D02*
X122428000Y-98933000D01*
X132080000Y-82677000D02*
X132334000Y-82423000D01*
X128270000Y-96393000D02*
X130810000Y-96393000D01*
X134874000Y-88519000D02*
X134874000Y-82423000D01*
X132080000Y-91313000D02*
X134874000Y-88519000D01*
X132080000Y-95123000D02*
X132080000Y-91313000D01*
X130810000Y-96393000D02*
X132080000Y-95123000D01*
X137414000Y-88011000D02*
X137414000Y-82423000D01*
X133350000Y-92075000D02*
X137414000Y-88011000D01*
X133350000Y-96139000D02*
X133350000Y-92075000D01*
X130556000Y-98933000D02*
X133350000Y-96139000D01*
X128270000Y-98933000D02*
X130556000Y-98933000D01*
X128270000Y-84963000D02*
X128270000Y-82423000D01*
X127000000Y-86233000D02*
X128270000Y-84963000D01*
X123190000Y-86233000D02*
X127000000Y-86233000D01*
X119380000Y-90043000D02*
X123190000Y-86233000D01*
X119380000Y-93853000D02*
X119380000Y-90043000D01*
X143510000Y-93853000D02*
X143510000Y-90043000D01*
X139954000Y-86487000D02*
X139954000Y-82423000D01*
X143510000Y-90043000D02*
X139954000Y-86487000D01*
X110490000Y-96393000D02*
X113030000Y-96393000D01*
X123190000Y-83693000D02*
X123190000Y-82423000D01*
X120650000Y-86233000D02*
X123190000Y-83693000D01*
X115570000Y-86233000D02*
X120650000Y-86233000D01*
X114300000Y-87503000D02*
X115570000Y-86233000D01*
X114300000Y-95123000D02*
X114300000Y-87503000D01*
X113030000Y-96393000D02*
X114300000Y-95123000D01*
X110490000Y-93853000D02*
X111760000Y-93853000D01*
X120650000Y-83693000D02*
X120650000Y-82423000D01*
X119380000Y-84963000D02*
X120650000Y-83693000D01*
X114300000Y-84963000D02*
X119380000Y-84963000D01*
X113030000Y-86233000D02*
X114300000Y-84963000D01*
X113030000Y-92583000D02*
X113030000Y-86233000D01*
X111760000Y-93853000D02*
X113030000Y-92583000D01*
X122174000Y-130683000D02*
X122174000Y-129159000D01*
X112268000Y-101473000D02*
X110490000Y-101473000D01*
X113284000Y-102489000D02*
X112268000Y-101473000D01*
X113284000Y-106045000D02*
X113284000Y-102489000D01*
X112268000Y-107061000D02*
X113284000Y-106045000D01*
X111252000Y-107061000D02*
X112268000Y-107061000D01*
X109982000Y-108331000D02*
X111252000Y-107061000D01*
X109982000Y-127127000D02*
X109982000Y-108331000D01*
X110998000Y-128143000D02*
X109982000Y-127127000D01*
X121158000Y-128143000D02*
X110998000Y-128143000D01*
X122174000Y-129159000D02*
X121158000Y-128143000D01*
X148590000Y-98933000D02*
X146812000Y-98933000D01*
X146050000Y-98171000D02*
X146050000Y-88011000D01*
X146812000Y-98933000D02*
X146050000Y-98171000D01*
X124714000Y-130683000D02*
X124714000Y-129159000D01*
X150368000Y-98933000D02*
X148590000Y-98933000D01*
X151130000Y-99695000D02*
X150368000Y-98933000D01*
X151130000Y-127127000D02*
X151130000Y-99695000D01*
X150114000Y-128143000D02*
X151130000Y-127127000D01*
X125730000Y-128143000D02*
X150114000Y-128143000D01*
X124714000Y-129159000D02*
X125730000Y-128143000D01*
X149225000Y-98933000D02*
X148590000Y-98933000D01*
X148590000Y-96393000D02*
X148590000Y-86487000D01*
X142494000Y-83947000D02*
X142494000Y-82423000D01*
X143510000Y-84963000D02*
X142494000Y-83947000D01*
X147066000Y-84963000D02*
X143510000Y-84963000D01*
X148590000Y-86487000D02*
X147066000Y-84963000D01*
X137922000Y-93853000D02*
X139700000Y-93853000D01*
X141605000Y-96393000D02*
X143510000Y-96393000D01*
X140335000Y-95123000D02*
X141605000Y-96393000D01*
X140335000Y-94488000D02*
X140335000Y-95123000D01*
X139700000Y-93853000D02*
X140335000Y-94488000D01*
D17*
G36*
X152400000Y-87489087D02*
X152303864Y-87256995D01*
X152057745Y-87182861D01*
X151229605Y-88011000D01*
X152057745Y-88839139D01*
X152303864Y-88765005D01*
X152400000Y-88497544D01*
X152400000Y-132460634D01*
X108660000Y-132334582D01*
X108660000Y-103187500D01*
X109017060Y-103187500D01*
X109017060Y-104838500D01*
X109066343Y-105086265D01*
X109206691Y-105296309D01*
X109416735Y-105436657D01*
X109664500Y-105485940D01*
X111315500Y-105485940D01*
X111563265Y-105436657D01*
X111773309Y-105296309D01*
X111913657Y-105086265D01*
X111962940Y-104838500D01*
X111962940Y-103187500D01*
X111913657Y-102939735D01*
X111773309Y-102729691D01*
X111563265Y-102589343D01*
X111459623Y-102568727D01*
X111670718Y-102358000D01*
X111901420Y-102358000D01*
X112399000Y-102855579D01*
X112399000Y-105678421D01*
X111901420Y-106176000D01*
X111252005Y-106176000D01*
X111252000Y-106175999D01*
X110913325Y-106243367D01*
X110626210Y-106435210D01*
X110626208Y-106435213D01*
X109356210Y-107705210D01*
X109164367Y-107992325D01*
X109164367Y-107992326D01*
X109096999Y-108331000D01*
X109097000Y-108331005D01*
X109097000Y-127126995D01*
X109096999Y-127127000D01*
X109136458Y-127325367D01*
X109164367Y-127465675D01*
X109356209Y-127752789D01*
X109356210Y-127752790D01*
X110372208Y-128768787D01*
X110372210Y-128768790D01*
X110659325Y-128960633D01*
X110715516Y-128971810D01*
X110998000Y-129028001D01*
X110998005Y-129028000D01*
X120791420Y-129028000D01*
X121277599Y-129514178D01*
X120936570Y-129854613D01*
X120904196Y-129932579D01*
X120872874Y-129856774D01*
X120462387Y-129445570D01*
X119925786Y-129222754D01*
X119344763Y-129222247D01*
X118807774Y-129444126D01*
X118396570Y-129854613D01*
X118364196Y-129932579D01*
X118332874Y-129856774D01*
X117922387Y-129445570D01*
X117385786Y-129222754D01*
X116804763Y-129222247D01*
X116267774Y-129444126D01*
X115998236Y-129713194D01*
X115977657Y-129609735D01*
X115837309Y-129399691D01*
X115627265Y-129259343D01*
X115379500Y-129210060D01*
X113728500Y-129210060D01*
X113480735Y-129259343D01*
X113270691Y-129399691D01*
X113130343Y-129609735D01*
X113081060Y-129857500D01*
X113081060Y-131508500D01*
X113130343Y-131756265D01*
X113270691Y-131966309D01*
X113480735Y-132106657D01*
X113728500Y-132155940D01*
X115379500Y-132155940D01*
X115627265Y-132106657D01*
X115837309Y-131966309D01*
X115977657Y-131756265D01*
X115998273Y-131652623D01*
X116265613Y-131920430D01*
X116802214Y-132143246D01*
X117383237Y-132143753D01*
X117920226Y-131921874D01*
X118331430Y-131511387D01*
X118363804Y-131433421D01*
X118395126Y-131509226D01*
X118805613Y-131920430D01*
X119342214Y-132143246D01*
X119923237Y-132143753D01*
X120460226Y-131921874D01*
X120871430Y-131511387D01*
X120903804Y-131433421D01*
X120935126Y-131509226D01*
X121345613Y-131920430D01*
X121882214Y-132143246D01*
X122463237Y-132143753D01*
X123000226Y-131921874D01*
X123411430Y-131511387D01*
X123443804Y-131433421D01*
X123475126Y-131509226D01*
X123885613Y-131920430D01*
X124422214Y-132143246D01*
X125003237Y-132143753D01*
X125540226Y-131921874D01*
X125753256Y-131709215D01*
X126407390Y-131709215D01*
X126484656Y-131957976D01*
X127031131Y-132155340D01*
X127611535Y-132128553D01*
X128023344Y-131957976D01*
X128100610Y-131709215D01*
X128947390Y-131709215D01*
X129024656Y-131957976D01*
X129571131Y-132155340D01*
X130151535Y-132128553D01*
X130563344Y-131957976D01*
X130640610Y-131709215D01*
X129794000Y-130862605D01*
X128947390Y-131709215D01*
X128100610Y-131709215D01*
X127254000Y-130862605D01*
X126407390Y-131709215D01*
X125753256Y-131709215D01*
X125951430Y-131511387D01*
X125977487Y-131448634D01*
X125979024Y-131452344D01*
X126227785Y-131529610D01*
X127074395Y-130683000D01*
X127433605Y-130683000D01*
X128280215Y-131529610D01*
X128524000Y-131453890D01*
X128767785Y-131529610D01*
X129614395Y-130683000D01*
X129973605Y-130683000D01*
X130820215Y-131529610D01*
X131068976Y-131452344D01*
X131070211Y-131448926D01*
X131095126Y-131509226D01*
X131505613Y-131920430D01*
X132042214Y-132143246D01*
X132623237Y-132143753D01*
X133160226Y-131921874D01*
X133571430Y-131511387D01*
X133794246Y-130974786D01*
X133794753Y-130393763D01*
X133573174Y-129857500D01*
X135941060Y-129857500D01*
X135941060Y-131508500D01*
X135990343Y-131756265D01*
X136130691Y-131966309D01*
X136340735Y-132106657D01*
X136588500Y-132155940D01*
X138239500Y-132155940D01*
X138487265Y-132106657D01*
X138697309Y-131966309D01*
X138837657Y-131756265D01*
X138858273Y-131652623D01*
X139125613Y-131920430D01*
X139662214Y-132143246D01*
X140243237Y-132143753D01*
X140780226Y-131921874D01*
X141191430Y-131511387D01*
X141223804Y-131433421D01*
X141255126Y-131509226D01*
X141665613Y-131920430D01*
X142202214Y-132143246D01*
X142783237Y-132143753D01*
X143320226Y-131921874D01*
X143731430Y-131511387D01*
X143763804Y-131433421D01*
X143795126Y-131509226D01*
X144205613Y-131920430D01*
X144742214Y-132143246D01*
X145323237Y-132143753D01*
X145860226Y-131921874D01*
X146271430Y-131511387D01*
X146303804Y-131433421D01*
X146335126Y-131509226D01*
X146745613Y-131920430D01*
X147282214Y-132143246D01*
X147863237Y-132143753D01*
X148400226Y-131921874D01*
X148811430Y-131511387D01*
X148843804Y-131433421D01*
X148875126Y-131509226D01*
X149285613Y-131920430D01*
X149822214Y-132143246D01*
X150403237Y-132143753D01*
X150940226Y-131921874D01*
X151351430Y-131511387D01*
X151574246Y-130974786D01*
X151574753Y-130393763D01*
X151352874Y-129856774D01*
X150942387Y-129445570D01*
X150405786Y-129222754D01*
X149824763Y-129222247D01*
X149287774Y-129444126D01*
X148876570Y-129854613D01*
X148844196Y-129932579D01*
X148812874Y-129856774D01*
X148402387Y-129445570D01*
X147865786Y-129222754D01*
X147284763Y-129222247D01*
X146747774Y-129444126D01*
X146336570Y-129854613D01*
X146304196Y-129932579D01*
X146272874Y-129856774D01*
X145862387Y-129445570D01*
X145325786Y-129222754D01*
X144744763Y-129222247D01*
X144207774Y-129444126D01*
X143796570Y-129854613D01*
X143764196Y-129932579D01*
X143732874Y-129856774D01*
X143322387Y-129445570D01*
X142785786Y-129222754D01*
X142204763Y-129222247D01*
X141667774Y-129444126D01*
X141256570Y-129854613D01*
X141224196Y-129932579D01*
X141192874Y-129856774D01*
X140782387Y-129445570D01*
X140245786Y-129222754D01*
X139664763Y-129222247D01*
X139127774Y-129444126D01*
X138858236Y-129713194D01*
X138837657Y-129609735D01*
X138697309Y-129399691D01*
X138487265Y-129259343D01*
X138239500Y-129210060D01*
X136588500Y-129210060D01*
X136340735Y-129259343D01*
X136130691Y-129399691D01*
X135990343Y-129609735D01*
X135941060Y-129857500D01*
X133573174Y-129857500D01*
X133572874Y-129856774D01*
X133162387Y-129445570D01*
X132625786Y-129222754D01*
X132044763Y-129222247D01*
X131507774Y-129444126D01*
X131096570Y-129854613D01*
X131070513Y-129917366D01*
X131068976Y-129913656D01*
X130820215Y-129836390D01*
X129973605Y-130683000D01*
X129614395Y-130683000D01*
X128767785Y-129836390D01*
X128524000Y-129912110D01*
X128280215Y-129836390D01*
X127433605Y-130683000D01*
X127074395Y-130683000D01*
X126227785Y-129836390D01*
X125979024Y-129913656D01*
X125977789Y-129917074D01*
X125952874Y-129856774D01*
X125753234Y-129656785D01*
X126407390Y-129656785D01*
X127254000Y-130503395D01*
X128100610Y-129656785D01*
X128947390Y-129656785D01*
X129794000Y-130503395D01*
X130640610Y-129656785D01*
X130563344Y-129408024D01*
X130016869Y-129210660D01*
X129436465Y-129237447D01*
X129024656Y-129408024D01*
X128947390Y-129656785D01*
X128100610Y-129656785D01*
X128023344Y-129408024D01*
X127476869Y-129210660D01*
X126896465Y-129237447D01*
X126484656Y-129408024D01*
X126407390Y-129656785D01*
X125753234Y-129656785D01*
X125610639Y-129513941D01*
X126096579Y-129028000D01*
X150113995Y-129028000D01*
X150114000Y-129028001D01*
X150396484Y-128971810D01*
X150452675Y-128960633D01*
X150739790Y-128768790D01*
X150739791Y-128768789D01*
X151755787Y-127752792D01*
X151755790Y-127752790D01*
X151947633Y-127465675D01*
X151975542Y-127325367D01*
X152015001Y-127127000D01*
X152015000Y-127126995D01*
X152015000Y-99695005D01*
X152015001Y-99695000D01*
X151947633Y-99356326D01*
X151947633Y-99356325D01*
X151755790Y-99069210D01*
X151755787Y-99069208D01*
X150993790Y-98307210D01*
X150966222Y-98288790D01*
X150706675Y-98115367D01*
X150650484Y-98104190D01*
X150368000Y-98047999D01*
X150367995Y-98048000D01*
X149770202Y-98048000D01*
X149559806Y-97837236D01*
X149663265Y-97816657D01*
X149873309Y-97676309D01*
X150013657Y-97466265D01*
X150062940Y-97218500D01*
X150062940Y-95567500D01*
X150013657Y-95319735D01*
X149873309Y-95109691D01*
X149663265Y-94969343D01*
X149475000Y-94931895D01*
X149475000Y-89018745D01*
X150221861Y-89018745D01*
X150295995Y-89264864D01*
X150833223Y-89457965D01*
X151403454Y-89430778D01*
X151804005Y-89264864D01*
X151878139Y-89018745D01*
X151050000Y-88190605D01*
X150221861Y-89018745D01*
X149475000Y-89018745D01*
X149475000Y-87794223D01*
X149603035Y-87794223D01*
X149630222Y-88364454D01*
X149796136Y-88765005D01*
X150042255Y-88839139D01*
X150870395Y-88011000D01*
X150042255Y-87182861D01*
X149796136Y-87256995D01*
X149603035Y-87794223D01*
X149475000Y-87794223D01*
X149475000Y-87003255D01*
X150221861Y-87003255D01*
X151050000Y-87831395D01*
X151878139Y-87003255D01*
X151804005Y-86757136D01*
X151266777Y-86564035D01*
X150696546Y-86591222D01*
X150295995Y-86757136D01*
X150221861Y-87003255D01*
X149475000Y-87003255D01*
X149475000Y-86487000D01*
X149407633Y-86148325D01*
X149215790Y-85861210D01*
X149215787Y-85861208D01*
X147691790Y-84337210D01*
X147614660Y-84285674D01*
X147404675Y-84145367D01*
X147348484Y-84134190D01*
X147066000Y-84077999D01*
X147065995Y-84078000D01*
X143876579Y-84078000D01*
X143390401Y-83591821D01*
X143731430Y-83251387D01*
X143763804Y-83173421D01*
X143795126Y-83249226D01*
X144205613Y-83660430D01*
X144742214Y-83883246D01*
X145323237Y-83883753D01*
X145860226Y-83661874D01*
X146271430Y-83251387D01*
X146303804Y-83173421D01*
X146335126Y-83249226D01*
X146745613Y-83660430D01*
X147282214Y-83883246D01*
X147863237Y-83883753D01*
X148400226Y-83661874D01*
X148811430Y-83251387D01*
X148843804Y-83173421D01*
X148875126Y-83249226D01*
X149285613Y-83660430D01*
X149822214Y-83883246D01*
X150403237Y-83883753D01*
X150940226Y-83661874D01*
X151351430Y-83251387D01*
X151574246Y-82714786D01*
X151574753Y-82133763D01*
X151352874Y-81596774D01*
X150942387Y-81185570D01*
X150405786Y-80962754D01*
X149824763Y-80962247D01*
X149287774Y-81184126D01*
X148876570Y-81594613D01*
X148844196Y-81672579D01*
X148812874Y-81596774D01*
X148402387Y-81185570D01*
X147865786Y-80962754D01*
X147284763Y-80962247D01*
X146747774Y-81184126D01*
X146336570Y-81594613D01*
X146304196Y-81672579D01*
X146272874Y-81596774D01*
X145862387Y-81185570D01*
X145325786Y-80962754D01*
X144744763Y-80962247D01*
X144207774Y-81184126D01*
X143796570Y-81594613D01*
X143764196Y-81672579D01*
X143732874Y-81596774D01*
X143322387Y-81185570D01*
X142785786Y-80962754D01*
X142204763Y-80962247D01*
X141667774Y-81184126D01*
X141256570Y-81594613D01*
X141224196Y-81672579D01*
X141192874Y-81596774D01*
X140782387Y-81185570D01*
X140245786Y-80962754D01*
X139664763Y-80962247D01*
X139127774Y-81184126D01*
X138716570Y-81594613D01*
X138684196Y-81672579D01*
X138652874Y-81596774D01*
X138242387Y-81185570D01*
X137705786Y-80962754D01*
X137124763Y-80962247D01*
X136587774Y-81184126D01*
X136176570Y-81594613D01*
X136144196Y-81672579D01*
X136112874Y-81596774D01*
X135702387Y-81185570D01*
X135165786Y-80962754D01*
X134584763Y-80962247D01*
X134047774Y-81184126D01*
X133778236Y-81453194D01*
X133757657Y-81349735D01*
X133617309Y-81139691D01*
X133407265Y-80999343D01*
X133159500Y-80950060D01*
X131508500Y-80950060D01*
X131260735Y-80999343D01*
X131050691Y-81139691D01*
X130910343Y-81349735D01*
X130861060Y-81597500D01*
X130861060Y-83248500D01*
X130910343Y-83496265D01*
X131050691Y-83706309D01*
X131260735Y-83846657D01*
X131449000Y-83884105D01*
X131449000Y-86120421D01*
X129935420Y-87634000D01*
X125222000Y-87634000D01*
X124883325Y-87701367D01*
X124596210Y-87893210D01*
X124596208Y-87893213D01*
X123072210Y-89417210D01*
X122880367Y-89704325D01*
X122880367Y-89704326D01*
X122812999Y-90043000D01*
X122813000Y-90043005D01*
X122813000Y-97296421D01*
X122061420Y-98048000D01*
X120560202Y-98048000D01*
X120208387Y-97695570D01*
X120145634Y-97669513D01*
X120149344Y-97667976D01*
X120226610Y-97419215D01*
X119380000Y-96572605D01*
X118533390Y-97419215D01*
X118610656Y-97667976D01*
X118614074Y-97669211D01*
X118553774Y-97694126D01*
X118142570Y-98104613D01*
X117919754Y-98641214D01*
X117919247Y-99222237D01*
X118141126Y-99759226D01*
X118551613Y-100170430D01*
X118614366Y-100196487D01*
X118610656Y-100198024D01*
X118533390Y-100446785D01*
X119380000Y-101293395D01*
X120226610Y-100446785D01*
X120149344Y-100198024D01*
X120145926Y-100196789D01*
X120206226Y-100171874D01*
X120560718Y-99818000D01*
X122427995Y-99818000D01*
X122428000Y-99818001D01*
X122723475Y-99759226D01*
X122766675Y-99750633D01*
X123053790Y-99558790D01*
X124323787Y-98288792D01*
X124323790Y-98288790D01*
X124515633Y-98001675D01*
X124545158Y-97853246D01*
X124583001Y-97663000D01*
X124583000Y-97662995D01*
X124583000Y-90409580D01*
X125588579Y-89404000D01*
X130301995Y-89404000D01*
X130302000Y-89404001D01*
X130584484Y-89347810D01*
X130640675Y-89336633D01*
X130927790Y-89144790D01*
X130927791Y-89144789D01*
X132959787Y-87112792D01*
X132959790Y-87112790D01*
X133151633Y-86825675D01*
X133179542Y-86685367D01*
X133219001Y-86487000D01*
X133219000Y-86486995D01*
X133219000Y-83884105D01*
X133407265Y-83846657D01*
X133617309Y-83706309D01*
X133757657Y-83496265D01*
X133778273Y-83392623D01*
X133989000Y-83603718D01*
X133989000Y-88152421D01*
X131454210Y-90687210D01*
X131262367Y-90974325D01*
X131262367Y-90974326D01*
X131194999Y-91313000D01*
X131195000Y-91313005D01*
X131195000Y-94756421D01*
X130443420Y-95508000D01*
X129450202Y-95508000D01*
X129239806Y-95297236D01*
X129343265Y-95276657D01*
X129553309Y-95136309D01*
X129693657Y-94926265D01*
X129742940Y-94678500D01*
X129742940Y-93027500D01*
X129693657Y-92779735D01*
X129553309Y-92569691D01*
X129343265Y-92429343D01*
X129095500Y-92380060D01*
X127444500Y-92380060D01*
X127196735Y-92429343D01*
X126986691Y-92569691D01*
X126846343Y-92779735D01*
X126797060Y-93027500D01*
X126797060Y-94678500D01*
X126846343Y-94926265D01*
X126986691Y-95136309D01*
X127196735Y-95276657D01*
X127300377Y-95297273D01*
X127032570Y-95564613D01*
X126809754Y-96101214D01*
X126809247Y-96682237D01*
X127031126Y-97219226D01*
X127441613Y-97630430D01*
X127519579Y-97662804D01*
X127443774Y-97694126D01*
X127032570Y-98104613D01*
X126809754Y-98641214D01*
X126809247Y-99222237D01*
X127031126Y-99759226D01*
X127441613Y-100170430D01*
X127504366Y-100196487D01*
X127500656Y-100198024D01*
X127423390Y-100446785D01*
X128270000Y-101293395D01*
X129116610Y-100446785D01*
X129039344Y-100198024D01*
X129035926Y-100196789D01*
X129096226Y-100171874D01*
X129309256Y-99959215D01*
X137075390Y-99959215D01*
X137151110Y-100203000D01*
X137075390Y-100446785D01*
X137922000Y-101293395D01*
X138768610Y-100446785D01*
X138692890Y-100203000D01*
X138768610Y-99959215D01*
X137922000Y-99112605D01*
X137075390Y-99959215D01*
X129309256Y-99959215D01*
X129450718Y-99818000D01*
X130555995Y-99818000D01*
X130556000Y-99818001D01*
X130851475Y-99759226D01*
X130894675Y-99750633D01*
X131181790Y-99558790D01*
X132030448Y-98710131D01*
X136449660Y-98710131D01*
X136476447Y-99290535D01*
X136647024Y-99702344D01*
X136895785Y-99779610D01*
X137742395Y-98933000D01*
X138101605Y-98933000D01*
X138948215Y-99779610D01*
X139196976Y-99702344D01*
X139394340Y-99155869D01*
X139367553Y-98575465D01*
X139196976Y-98163656D01*
X138948215Y-98086390D01*
X138101605Y-98933000D01*
X137742395Y-98933000D01*
X136895785Y-98086390D01*
X136647024Y-98163656D01*
X136449660Y-98710131D01*
X132030448Y-98710131D01*
X133975787Y-96764792D01*
X133975790Y-96764790D01*
X134167633Y-96477675D01*
X134184476Y-96393000D01*
X134235001Y-96139000D01*
X134235000Y-96138995D01*
X134235000Y-92441580D01*
X138039787Y-88636792D01*
X138039790Y-88636790D01*
X138231633Y-88349675D01*
X138255880Y-88227777D01*
X138299001Y-88011000D01*
X138299000Y-88010995D01*
X138299000Y-83603202D01*
X138651430Y-83251387D01*
X138683804Y-83173421D01*
X138715126Y-83249226D01*
X139069000Y-83603718D01*
X139069000Y-86486995D01*
X139068999Y-86487000D01*
X139108458Y-86685367D01*
X139136367Y-86825675D01*
X139286678Y-87050633D01*
X139328210Y-87112790D01*
X142625000Y-90409579D01*
X142625000Y-92595026D01*
X142500235Y-92619843D01*
X142290191Y-92760191D01*
X142149843Y-92970235D01*
X142100560Y-93218000D01*
X142100560Y-94488000D01*
X142149843Y-94735765D01*
X142290191Y-94945809D01*
X142500235Y-95086157D01*
X142685459Y-95123000D01*
X142500235Y-95159843D01*
X142290191Y-95300191D01*
X142151336Y-95508000D01*
X141971579Y-95508000D01*
X141220000Y-94756420D01*
X141220000Y-94488005D01*
X141220001Y-94488000D01*
X141152634Y-94149326D01*
X141088975Y-94054054D01*
X140960790Y-93862210D01*
X140960787Y-93862208D01*
X140325790Y-93227210D01*
X140298222Y-93208790D01*
X140038675Y-93035367D01*
X139982484Y-93024190D01*
X139700000Y-92967999D01*
X139699995Y-92968000D01*
X139383105Y-92968000D01*
X139345657Y-92779735D01*
X139205309Y-92569691D01*
X138995265Y-92429343D01*
X138747500Y-92380060D01*
X137096500Y-92380060D01*
X136848735Y-92429343D01*
X136638691Y-92569691D01*
X136498343Y-92779735D01*
X136449060Y-93027500D01*
X136449060Y-94678500D01*
X136498343Y-94926265D01*
X136638691Y-95136309D01*
X136848735Y-95276657D01*
X136952377Y-95297273D01*
X136684570Y-95564613D01*
X136461754Y-96101214D01*
X136461247Y-96682237D01*
X136683126Y-97219226D01*
X137093613Y-97630430D01*
X137156366Y-97656487D01*
X137152656Y-97658024D01*
X137075390Y-97906785D01*
X137922000Y-98753395D01*
X138768610Y-97906785D01*
X138691344Y-97658024D01*
X138687926Y-97656789D01*
X138748226Y-97631874D01*
X139159430Y-97221387D01*
X139382246Y-96684786D01*
X139382753Y-96103763D01*
X139160874Y-95566774D01*
X138891806Y-95297236D01*
X138995265Y-95276657D01*
X139205309Y-95136309D01*
X139345657Y-94926265D01*
X139374862Y-94779441D01*
X139450000Y-94854579D01*
X139450000Y-95122995D01*
X139449999Y-95123000D01*
X139506190Y-95405484D01*
X139517367Y-95461675D01*
X139625599Y-95623656D01*
X139709210Y-95748790D01*
X140979208Y-97018787D01*
X140979210Y-97018790D01*
X141194055Y-97162344D01*
X141266325Y-97210633D01*
X141605000Y-97278001D01*
X141605005Y-97278000D01*
X142151336Y-97278000D01*
X142290191Y-97485809D01*
X142500235Y-97626157D01*
X142748000Y-97675440D01*
X144272000Y-97675440D01*
X144519765Y-97626157D01*
X144729809Y-97485809D01*
X144870157Y-97275765D01*
X144919440Y-97028000D01*
X144919440Y-95758000D01*
X144870157Y-95510235D01*
X144729809Y-95300191D01*
X144519765Y-95159843D01*
X144334541Y-95123000D01*
X144519765Y-95086157D01*
X144729809Y-94945809D01*
X144870157Y-94735765D01*
X144919440Y-94488000D01*
X144919440Y-93218000D01*
X144870157Y-92970235D01*
X144729809Y-92760191D01*
X144519765Y-92619843D01*
X144395000Y-92595026D01*
X144395000Y-90043000D01*
X144327633Y-89704325D01*
X144135790Y-89417210D01*
X144135787Y-89417208D01*
X140839000Y-86120420D01*
X140839000Y-83603202D01*
X141191430Y-83251387D01*
X141223804Y-83173421D01*
X141255126Y-83249226D01*
X141609000Y-83603718D01*
X141609000Y-83946995D01*
X141608999Y-83947000D01*
X141648458Y-84145367D01*
X141676367Y-84285675D01*
X141826678Y-84510633D01*
X141868210Y-84572790D01*
X142884208Y-85588787D01*
X142884210Y-85588790D01*
X143171325Y-85780633D01*
X143227516Y-85791810D01*
X143510000Y-85848001D01*
X143510005Y-85848000D01*
X146699420Y-85848000D01*
X147705000Y-86853579D01*
X147705000Y-94931895D01*
X147516735Y-94969343D01*
X147306691Y-95109691D01*
X147166343Y-95319735D01*
X147117060Y-95567500D01*
X147117060Y-97218500D01*
X147166343Y-97466265D01*
X147306691Y-97676309D01*
X147516735Y-97816657D01*
X147620377Y-97837273D01*
X147409282Y-98048000D01*
X147178579Y-98048000D01*
X146935000Y-97804420D01*
X146935000Y-89441533D01*
X147097765Y-89409157D01*
X147307809Y-89268809D01*
X147448157Y-89058765D01*
X147497440Y-88811000D01*
X147497440Y-87211000D01*
X147448157Y-86963235D01*
X147307809Y-86753191D01*
X147097765Y-86612843D01*
X146850000Y-86563560D01*
X145250000Y-86563560D01*
X145002235Y-86612843D01*
X144792191Y-86753191D01*
X144651843Y-86963235D01*
X144602560Y-87211000D01*
X144602560Y-88811000D01*
X144651843Y-89058765D01*
X144792191Y-89268809D01*
X145002235Y-89409157D01*
X145165000Y-89441533D01*
X145165000Y-98170995D01*
X145164999Y-98171000D01*
X145192094Y-98307211D01*
X145232367Y-98509675D01*
X145366307Y-98710131D01*
X145424210Y-98796790D01*
X146186208Y-99558787D01*
X146186210Y-99558790D01*
X146473325Y-99750633D01*
X146516525Y-99759226D01*
X146812000Y-99818001D01*
X146812005Y-99818000D01*
X147409798Y-99818000D01*
X147761613Y-100170430D01*
X147824366Y-100196487D01*
X147820656Y-100198024D01*
X147743390Y-100446785D01*
X148590000Y-101293395D01*
X149436610Y-100446785D01*
X149359344Y-100198024D01*
X149355926Y-100196789D01*
X149416226Y-100171874D01*
X149770718Y-99818000D01*
X150001420Y-99818000D01*
X150245000Y-100061579D01*
X150245000Y-126760421D01*
X149747420Y-127258000D01*
X125730005Y-127258000D01*
X125730000Y-127257999D01*
X125447516Y-127314190D01*
X125391325Y-127325367D01*
X125104210Y-127517210D01*
X125104208Y-127517213D01*
X124088210Y-128533210D01*
X123896367Y-128820325D01*
X123896367Y-128820326D01*
X123828999Y-129159000D01*
X123829000Y-129159005D01*
X123829000Y-129502798D01*
X123476570Y-129854613D01*
X123444196Y-129932579D01*
X123412874Y-129856774D01*
X123059000Y-129502282D01*
X123059000Y-129159005D01*
X123059001Y-129159000D01*
X122991633Y-128820326D01*
X122991633Y-128820325D01*
X122799790Y-128533210D01*
X122799787Y-128533208D01*
X121783790Y-127517210D01*
X121706660Y-127465674D01*
X121496675Y-127325367D01*
X121440484Y-127314190D01*
X121158000Y-127257999D01*
X121157995Y-127258000D01*
X111364579Y-127258000D01*
X110867000Y-126760420D01*
X110867000Y-108697580D01*
X111618579Y-107946000D01*
X112267995Y-107946000D01*
X112268000Y-107946001D01*
X112550484Y-107889810D01*
X112606675Y-107878633D01*
X112893790Y-107686790D01*
X113909787Y-106670792D01*
X113909790Y-106670790D01*
X114101633Y-106383675D01*
X114129542Y-106243367D01*
X114169001Y-106045000D01*
X114169000Y-106044995D01*
X114169000Y-102499215D01*
X118533390Y-102499215D01*
X118610656Y-102747976D01*
X119157131Y-102945340D01*
X119737535Y-102918553D01*
X120149344Y-102747976D01*
X120226610Y-102499215D01*
X127423390Y-102499215D01*
X127500656Y-102747976D01*
X128047131Y-102945340D01*
X128627535Y-102918553D01*
X129039344Y-102747976D01*
X129116610Y-102499215D01*
X137075390Y-102499215D01*
X137152656Y-102747976D01*
X137699131Y-102945340D01*
X138279535Y-102918553D01*
X138691344Y-102747976D01*
X138768610Y-102499215D01*
X147743390Y-102499215D01*
X147820656Y-102747976D01*
X148367131Y-102945340D01*
X148947535Y-102918553D01*
X149359344Y-102747976D01*
X149436610Y-102499215D01*
X148590000Y-101652605D01*
X147743390Y-102499215D01*
X138768610Y-102499215D01*
X137922000Y-101652605D01*
X137075390Y-102499215D01*
X129116610Y-102499215D01*
X128270000Y-101652605D01*
X127423390Y-102499215D01*
X120226610Y-102499215D01*
X119380000Y-101652605D01*
X118533390Y-102499215D01*
X114169000Y-102499215D01*
X114169000Y-102489005D01*
X114169001Y-102489000D01*
X114101633Y-102150326D01*
X114101633Y-102150325D01*
X113909790Y-101863210D01*
X113909787Y-101863208D01*
X113296711Y-101250131D01*
X117907660Y-101250131D01*
X117934447Y-101830535D01*
X118105024Y-102242344D01*
X118353785Y-102319610D01*
X119200395Y-101473000D01*
X119559605Y-101473000D01*
X120406215Y-102319610D01*
X120654976Y-102242344D01*
X120852340Y-101695869D01*
X120831769Y-101250131D01*
X126797660Y-101250131D01*
X126824447Y-101830535D01*
X126995024Y-102242344D01*
X127243785Y-102319610D01*
X128090395Y-101473000D01*
X128449605Y-101473000D01*
X129296215Y-102319610D01*
X129544976Y-102242344D01*
X129742340Y-101695869D01*
X129721769Y-101250131D01*
X136449660Y-101250131D01*
X136476447Y-101830535D01*
X136647024Y-102242344D01*
X136895785Y-102319610D01*
X137742395Y-101473000D01*
X138101605Y-101473000D01*
X138948215Y-102319610D01*
X139196976Y-102242344D01*
X139394340Y-101695869D01*
X139373769Y-101250131D01*
X147117660Y-101250131D01*
X147144447Y-101830535D01*
X147315024Y-102242344D01*
X147563785Y-102319610D01*
X148410395Y-101473000D01*
X148769605Y-101473000D01*
X149616215Y-102319610D01*
X149864976Y-102242344D01*
X150062340Y-101695869D01*
X150035553Y-101115465D01*
X149864976Y-100703656D01*
X149616215Y-100626390D01*
X148769605Y-101473000D01*
X148410395Y-101473000D01*
X147563785Y-100626390D01*
X147315024Y-100703656D01*
X147117660Y-101250131D01*
X139373769Y-101250131D01*
X139367553Y-101115465D01*
X139196976Y-100703656D01*
X138948215Y-100626390D01*
X138101605Y-101473000D01*
X137742395Y-101473000D01*
X136895785Y-100626390D01*
X136647024Y-100703656D01*
X136449660Y-101250131D01*
X129721769Y-101250131D01*
X129715553Y-101115465D01*
X129544976Y-100703656D01*
X129296215Y-100626390D01*
X128449605Y-101473000D01*
X128090395Y-101473000D01*
X127243785Y-100626390D01*
X126995024Y-100703656D01*
X126797660Y-101250131D01*
X120831769Y-101250131D01*
X120825553Y-101115465D01*
X120654976Y-100703656D01*
X120406215Y-100626390D01*
X119559605Y-101473000D01*
X119200395Y-101473000D01*
X118353785Y-100626390D01*
X118105024Y-100703656D01*
X117907660Y-101250131D01*
X113296711Y-101250131D01*
X112893790Y-100847210D01*
X112606675Y-100655367D01*
X112550484Y-100644190D01*
X112268000Y-100587999D01*
X112267995Y-100588000D01*
X111670202Y-100588000D01*
X111318387Y-100235570D01*
X111255634Y-100209513D01*
X111259344Y-100207976D01*
X111336610Y-99959215D01*
X110490000Y-99112605D01*
X109643390Y-99959215D01*
X109720656Y-100207976D01*
X109724074Y-100209211D01*
X109663774Y-100234126D01*
X109252570Y-100644613D01*
X109029754Y-101181214D01*
X109029247Y-101762237D01*
X109251126Y-102299226D01*
X109520194Y-102568764D01*
X109416735Y-102589343D01*
X109206691Y-102729691D01*
X109066343Y-102939735D01*
X109017060Y-103187500D01*
X108660000Y-103187500D01*
X108660000Y-98710131D01*
X109017660Y-98710131D01*
X109044447Y-99290535D01*
X109215024Y-99702344D01*
X109463785Y-99779610D01*
X110310395Y-98933000D01*
X110669605Y-98933000D01*
X111516215Y-99779610D01*
X111764976Y-99702344D01*
X111962340Y-99155869D01*
X111935553Y-98575465D01*
X111764976Y-98163656D01*
X111516215Y-98086390D01*
X110669605Y-98933000D01*
X110310395Y-98933000D01*
X109463785Y-98086390D01*
X109215024Y-98163656D01*
X109017660Y-98710131D01*
X108660000Y-98710131D01*
X108660000Y-91602237D01*
X109029247Y-91602237D01*
X109251126Y-92139226D01*
X109661613Y-92550430D01*
X109739579Y-92582804D01*
X109663774Y-92614126D01*
X109252570Y-93024613D01*
X109029754Y-93561214D01*
X109029247Y-94142237D01*
X109251126Y-94679226D01*
X109661613Y-95090430D01*
X109739579Y-95122804D01*
X109663774Y-95154126D01*
X109252570Y-95564613D01*
X109029754Y-96101214D01*
X109029247Y-96682237D01*
X109251126Y-97219226D01*
X109661613Y-97630430D01*
X109724366Y-97656487D01*
X109720656Y-97658024D01*
X109643390Y-97906785D01*
X110490000Y-98753395D01*
X111336610Y-97906785D01*
X111259344Y-97658024D01*
X111255926Y-97656789D01*
X111316226Y-97631874D01*
X111670718Y-97278000D01*
X113029995Y-97278000D01*
X113030000Y-97278001D01*
X113329125Y-97218500D01*
X113368675Y-97210633D01*
X113655790Y-97018790D01*
X113655791Y-97018789D01*
X114504448Y-96170131D01*
X117907660Y-96170131D01*
X117934447Y-96750535D01*
X118105024Y-97162344D01*
X118353785Y-97239610D01*
X119200395Y-96393000D01*
X119559605Y-96393000D01*
X120406215Y-97239610D01*
X120654976Y-97162344D01*
X120852340Y-96615869D01*
X120825553Y-96035465D01*
X120654976Y-95623656D01*
X120406215Y-95546390D01*
X119559605Y-96393000D01*
X119200395Y-96393000D01*
X118353785Y-95546390D01*
X118105024Y-95623656D01*
X117907660Y-96170131D01*
X114504448Y-96170131D01*
X114925787Y-95748792D01*
X114925790Y-95748790D01*
X115117633Y-95461675D01*
X115117633Y-95461674D01*
X115185001Y-95123000D01*
X115185000Y-95122995D01*
X115185000Y-87869580D01*
X115936579Y-87118000D01*
X120649995Y-87118000D01*
X120650000Y-87118001D01*
X120932484Y-87061810D01*
X120988675Y-87050633D01*
X121275790Y-86858790D01*
X121275791Y-86858789D01*
X123815787Y-84318792D01*
X123815790Y-84318790D01*
X124007633Y-84031675D01*
X124075000Y-83693000D01*
X124075000Y-83603202D01*
X124427430Y-83251387D01*
X124459804Y-83173421D01*
X124491126Y-83249226D01*
X124901613Y-83660430D01*
X125438214Y-83883246D01*
X126019237Y-83883753D01*
X126556226Y-83661874D01*
X126825764Y-83392806D01*
X126846343Y-83496265D01*
X126986691Y-83706309D01*
X127196735Y-83846657D01*
X127385000Y-83884105D01*
X127385000Y-84596421D01*
X126633420Y-85348000D01*
X123190005Y-85348000D01*
X123190000Y-85347999D01*
X122907516Y-85404190D01*
X122851325Y-85415367D01*
X122564210Y-85607210D01*
X122564208Y-85607213D01*
X118754210Y-89417210D01*
X118562367Y-89704325D01*
X118562367Y-89704326D01*
X118494999Y-90043000D01*
X118495000Y-90043005D01*
X118495000Y-92391895D01*
X118306735Y-92429343D01*
X118096691Y-92569691D01*
X117956343Y-92779735D01*
X117907060Y-93027500D01*
X117907060Y-94678500D01*
X117956343Y-94926265D01*
X118096691Y-95136309D01*
X118306735Y-95276657D01*
X118546567Y-95324362D01*
X118533390Y-95366785D01*
X119380000Y-96213395D01*
X120226610Y-95366785D01*
X120213433Y-95324362D01*
X120453265Y-95276657D01*
X120663309Y-95136309D01*
X120803657Y-94926265D01*
X120852940Y-94678500D01*
X120852940Y-93027500D01*
X120803657Y-92779735D01*
X120663309Y-92569691D01*
X120453265Y-92429343D01*
X120265000Y-92391895D01*
X120265000Y-90409580D01*
X123556579Y-87118000D01*
X126999995Y-87118000D01*
X127000000Y-87118001D01*
X127282484Y-87061810D01*
X127338675Y-87050633D01*
X127625790Y-86858790D01*
X127625791Y-86858789D01*
X128895787Y-85588792D01*
X128895790Y-85588790D01*
X129087633Y-85301675D01*
X129087633Y-85301674D01*
X129155001Y-84963000D01*
X129155000Y-84962995D01*
X129155000Y-83884105D01*
X129343265Y-83846657D01*
X129553309Y-83706309D01*
X129693657Y-83496265D01*
X129742940Y-83248500D01*
X129742940Y-81597500D01*
X129693657Y-81349735D01*
X129553309Y-81139691D01*
X129343265Y-80999343D01*
X129095500Y-80950060D01*
X127444500Y-80950060D01*
X127196735Y-80999343D01*
X126986691Y-81139691D01*
X126846343Y-81349735D01*
X126825727Y-81453377D01*
X126558387Y-81185570D01*
X126021786Y-80962754D01*
X125440763Y-80962247D01*
X124903774Y-81184126D01*
X124492570Y-81594613D01*
X124460196Y-81672579D01*
X124428874Y-81596774D01*
X124018387Y-81185570D01*
X123481786Y-80962754D01*
X122900763Y-80962247D01*
X122363774Y-81184126D01*
X121952570Y-81594613D01*
X121920196Y-81672579D01*
X121888874Y-81596774D01*
X121478387Y-81185570D01*
X120941786Y-80962754D01*
X120360763Y-80962247D01*
X119823774Y-81184126D01*
X119412570Y-81594613D01*
X119380196Y-81672579D01*
X119348874Y-81596774D01*
X118938387Y-81185570D01*
X118401786Y-80962754D01*
X117820763Y-80962247D01*
X117283774Y-81184126D01*
X116872570Y-81594613D01*
X116840196Y-81672579D01*
X116808874Y-81596774D01*
X116398387Y-81185570D01*
X115861786Y-80962754D01*
X115280763Y-80962247D01*
X114743774Y-81184126D01*
X114332570Y-81594613D01*
X114306513Y-81657366D01*
X114304976Y-81653656D01*
X114056215Y-81576390D01*
X113209605Y-82423000D01*
X114056215Y-83269610D01*
X114304976Y-83192344D01*
X114306211Y-83188926D01*
X114331126Y-83249226D01*
X114741613Y-83660430D01*
X115278214Y-83883246D01*
X115859237Y-83883753D01*
X116396226Y-83661874D01*
X116807430Y-83251387D01*
X116839804Y-83173421D01*
X116871126Y-83249226D01*
X117281613Y-83660430D01*
X117818214Y-83883246D01*
X118399237Y-83883753D01*
X118936226Y-83661874D01*
X119347430Y-83251387D01*
X119379804Y-83173421D01*
X119411126Y-83249226D01*
X119626472Y-83464948D01*
X119013420Y-84078000D01*
X114300005Y-84078000D01*
X114300000Y-84077999D01*
X113961325Y-84145367D01*
X113674210Y-84337210D01*
X113674208Y-84337213D01*
X112404210Y-85607210D01*
X112212367Y-85894325D01*
X112212367Y-85894326D01*
X112144999Y-86233000D01*
X112145000Y-86233005D01*
X112145000Y-92216421D01*
X111531932Y-92829488D01*
X111318387Y-92615570D01*
X111240421Y-92583196D01*
X111316226Y-92551874D01*
X111727430Y-92141387D01*
X111950246Y-91604786D01*
X111950753Y-91023763D01*
X111728874Y-90486774D01*
X111318387Y-90075570D01*
X110781786Y-89852754D01*
X110200763Y-89852247D01*
X109663774Y-90074126D01*
X109252570Y-90484613D01*
X109029754Y-91021214D01*
X109029247Y-91602237D01*
X108660000Y-91602237D01*
X108660000Y-82712237D01*
X109029247Y-82712237D01*
X109251126Y-83249226D01*
X109661613Y-83660430D01*
X110198214Y-83883246D01*
X110779237Y-83883753D01*
X111316226Y-83661874D01*
X111529256Y-83449215D01*
X112183390Y-83449215D01*
X112260656Y-83697976D01*
X112807131Y-83895340D01*
X113387535Y-83868553D01*
X113799344Y-83697976D01*
X113876610Y-83449215D01*
X113030000Y-82602605D01*
X112183390Y-83449215D01*
X111529256Y-83449215D01*
X111727430Y-83251387D01*
X111753487Y-83188634D01*
X111755024Y-83192344D01*
X112003785Y-83269610D01*
X112850395Y-82423000D01*
X112003785Y-81576390D01*
X111755024Y-81653656D01*
X111753789Y-81657074D01*
X111728874Y-81596774D01*
X111529234Y-81396785D01*
X112183390Y-81396785D01*
X113030000Y-82243395D01*
X113876610Y-81396785D01*
X113799344Y-81148024D01*
X113252869Y-80950660D01*
X112672465Y-80977447D01*
X112260656Y-81148024D01*
X112183390Y-81396785D01*
X111529234Y-81396785D01*
X111318387Y-81185570D01*
X110781786Y-80962754D01*
X110200763Y-80962247D01*
X109663774Y-81184126D01*
X109252570Y-81594613D01*
X109029754Y-82131214D01*
X109029247Y-82712237D01*
X108660000Y-82712237D01*
X108660000Y-80593000D01*
X152400000Y-80593000D01*
X152400000Y-87489087D01*
X152400000Y-87489087D01*
G37*
X152400000Y-87489087D02*
X152303864Y-87256995D01*
X152057745Y-87182861D01*
X151229605Y-88011000D01*
X152057745Y-88839139D01*
X152303864Y-88765005D01*
X152400000Y-88497544D01*
X152400000Y-132460634D01*
X108660000Y-132334582D01*
X108660000Y-103187500D01*
X109017060Y-103187500D01*
X109017060Y-104838500D01*
X109066343Y-105086265D01*
X109206691Y-105296309D01*
X109416735Y-105436657D01*
X109664500Y-105485940D01*
X111315500Y-105485940D01*
X111563265Y-105436657D01*
X111773309Y-105296309D01*
X111913657Y-105086265D01*
X111962940Y-104838500D01*
X111962940Y-103187500D01*
X111913657Y-102939735D01*
X111773309Y-102729691D01*
X111563265Y-102589343D01*
X111459623Y-102568727D01*
X111670718Y-102358000D01*
X111901420Y-102358000D01*
X112399000Y-102855579D01*
X112399000Y-105678421D01*
X111901420Y-106176000D01*
X111252005Y-106176000D01*
X111252000Y-106175999D01*
X110913325Y-106243367D01*
X110626210Y-106435210D01*
X110626208Y-106435213D01*
X109356210Y-107705210D01*
X109164367Y-107992325D01*
X109164367Y-107992326D01*
X109096999Y-108331000D01*
X109097000Y-108331005D01*
X109097000Y-127126995D01*
X109096999Y-127127000D01*
X109136458Y-127325367D01*
X109164367Y-127465675D01*
X109356209Y-127752789D01*
X109356210Y-127752790D01*
X110372208Y-128768787D01*
X110372210Y-128768790D01*
X110659325Y-128960633D01*
X110715516Y-128971810D01*
X110998000Y-129028001D01*
X110998005Y-129028000D01*
X120791420Y-129028000D01*
X121277599Y-129514178D01*
X120936570Y-129854613D01*
X120904196Y-129932579D01*
X120872874Y-129856774D01*
X120462387Y-129445570D01*
X119925786Y-129222754D01*
X119344763Y-129222247D01*
X118807774Y-129444126D01*
X118396570Y-129854613D01*
X118364196Y-129932579D01*
X118332874Y-129856774D01*
X117922387Y-129445570D01*
X117385786Y-129222754D01*
X116804763Y-129222247D01*
X116267774Y-129444126D01*
X115998236Y-129713194D01*
X115977657Y-129609735D01*
X115837309Y-129399691D01*
X115627265Y-129259343D01*
X115379500Y-129210060D01*
X113728500Y-129210060D01*
X113480735Y-129259343D01*
X113270691Y-129399691D01*
X113130343Y-129609735D01*
X113081060Y-129857500D01*
X113081060Y-131508500D01*
X113130343Y-131756265D01*
X113270691Y-131966309D01*
X113480735Y-132106657D01*
X113728500Y-132155940D01*
X115379500Y-132155940D01*
X115627265Y-132106657D01*
X115837309Y-131966309D01*
X115977657Y-131756265D01*
X115998273Y-131652623D01*
X116265613Y-131920430D01*
X116802214Y-132143246D01*
X117383237Y-132143753D01*
X117920226Y-131921874D01*
X118331430Y-131511387D01*
X118363804Y-131433421D01*
X118395126Y-131509226D01*
X118805613Y-131920430D01*
X119342214Y-132143246D01*
X119923237Y-132143753D01*
X120460226Y-131921874D01*
X120871430Y-131511387D01*
X120903804Y-131433421D01*
X120935126Y-131509226D01*
X121345613Y-131920430D01*
X121882214Y-132143246D01*
X122463237Y-132143753D01*
X123000226Y-131921874D01*
X123411430Y-131511387D01*
X123443804Y-131433421D01*
X123475126Y-131509226D01*
X123885613Y-131920430D01*
X124422214Y-132143246D01*
X125003237Y-132143753D01*
X125540226Y-131921874D01*
X125753256Y-131709215D01*
X126407390Y-131709215D01*
X126484656Y-131957976D01*
X127031131Y-132155340D01*
X127611535Y-132128553D01*
X128023344Y-131957976D01*
X128100610Y-131709215D01*
X128947390Y-131709215D01*
X129024656Y-131957976D01*
X129571131Y-132155340D01*
X130151535Y-132128553D01*
X130563344Y-131957976D01*
X130640610Y-131709215D01*
X129794000Y-130862605D01*
X128947390Y-131709215D01*
X128100610Y-131709215D01*
X127254000Y-130862605D01*
X126407390Y-131709215D01*
X125753256Y-131709215D01*
X125951430Y-131511387D01*
X125977487Y-131448634D01*
X125979024Y-131452344D01*
X126227785Y-131529610D01*
X127074395Y-130683000D01*
X127433605Y-130683000D01*
X128280215Y-131529610D01*
X128524000Y-131453890D01*
X128767785Y-131529610D01*
X129614395Y-130683000D01*
X129973605Y-130683000D01*
X130820215Y-131529610D01*
X131068976Y-131452344D01*
X131070211Y-131448926D01*
X131095126Y-131509226D01*
X131505613Y-131920430D01*
X132042214Y-132143246D01*
X132623237Y-132143753D01*
X133160226Y-131921874D01*
X133571430Y-131511387D01*
X133794246Y-130974786D01*
X133794753Y-130393763D01*
X133573174Y-129857500D01*
X135941060Y-129857500D01*
X135941060Y-131508500D01*
X135990343Y-131756265D01*
X136130691Y-131966309D01*
X136340735Y-132106657D01*
X136588500Y-132155940D01*
X138239500Y-132155940D01*
X138487265Y-132106657D01*
X138697309Y-131966309D01*
X138837657Y-131756265D01*
X138858273Y-131652623D01*
X139125613Y-131920430D01*
X139662214Y-132143246D01*
X140243237Y-132143753D01*
X140780226Y-131921874D01*
X141191430Y-131511387D01*
X141223804Y-131433421D01*
X141255126Y-131509226D01*
X141665613Y-131920430D01*
X142202214Y-132143246D01*
X142783237Y-132143753D01*
X143320226Y-131921874D01*
X143731430Y-131511387D01*
X143763804Y-131433421D01*
X143795126Y-131509226D01*
X144205613Y-131920430D01*
X144742214Y-132143246D01*
X145323237Y-132143753D01*
X145860226Y-131921874D01*
X146271430Y-131511387D01*
X146303804Y-131433421D01*
X146335126Y-131509226D01*
X146745613Y-131920430D01*
X147282214Y-132143246D01*
X147863237Y-132143753D01*
X148400226Y-131921874D01*
X148811430Y-131511387D01*
X148843804Y-131433421D01*
X148875126Y-131509226D01*
X149285613Y-131920430D01*
X149822214Y-132143246D01*
X150403237Y-132143753D01*
X150940226Y-131921874D01*
X151351430Y-131511387D01*
X151574246Y-130974786D01*
X151574753Y-130393763D01*
X151352874Y-129856774D01*
X150942387Y-129445570D01*
X150405786Y-129222754D01*
X149824763Y-129222247D01*
X149287774Y-129444126D01*
X148876570Y-129854613D01*
X148844196Y-129932579D01*
X148812874Y-129856774D01*
X148402387Y-129445570D01*
X147865786Y-129222754D01*
X147284763Y-129222247D01*
X146747774Y-129444126D01*
X146336570Y-129854613D01*
X146304196Y-129932579D01*
X146272874Y-129856774D01*
X145862387Y-129445570D01*
X145325786Y-129222754D01*
X144744763Y-129222247D01*
X144207774Y-129444126D01*
X143796570Y-129854613D01*
X143764196Y-129932579D01*
X143732874Y-129856774D01*
X143322387Y-129445570D01*
X142785786Y-129222754D01*
X142204763Y-129222247D01*
X141667774Y-129444126D01*
X141256570Y-129854613D01*
X141224196Y-129932579D01*
X141192874Y-129856774D01*
X140782387Y-129445570D01*
X140245786Y-129222754D01*
X139664763Y-129222247D01*
X139127774Y-129444126D01*
X138858236Y-129713194D01*
X138837657Y-129609735D01*
X138697309Y-129399691D01*
X138487265Y-129259343D01*
X138239500Y-129210060D01*
X136588500Y-129210060D01*
X136340735Y-129259343D01*
X136130691Y-129399691D01*
X135990343Y-129609735D01*
X135941060Y-129857500D01*
X133573174Y-129857500D01*
X133572874Y-129856774D01*
X133162387Y-129445570D01*
X132625786Y-129222754D01*
X132044763Y-129222247D01*
X131507774Y-129444126D01*
X131096570Y-129854613D01*
X131070513Y-129917366D01*
X131068976Y-129913656D01*
X130820215Y-129836390D01*
X129973605Y-130683000D01*
X129614395Y-130683000D01*
X128767785Y-129836390D01*
X128524000Y-129912110D01*
X128280215Y-129836390D01*
X127433605Y-130683000D01*
X127074395Y-130683000D01*
X126227785Y-129836390D01*
X125979024Y-129913656D01*
X125977789Y-129917074D01*
X125952874Y-129856774D01*
X125753234Y-129656785D01*
X126407390Y-129656785D01*
X127254000Y-130503395D01*
X128100610Y-129656785D01*
X128947390Y-129656785D01*
X129794000Y-130503395D01*
X130640610Y-129656785D01*
X130563344Y-129408024D01*
X130016869Y-129210660D01*
X129436465Y-129237447D01*
X129024656Y-129408024D01*
X128947390Y-129656785D01*
X128100610Y-129656785D01*
X128023344Y-129408024D01*
X127476869Y-129210660D01*
X126896465Y-129237447D01*
X126484656Y-129408024D01*
X126407390Y-129656785D01*
X125753234Y-129656785D01*
X125610639Y-129513941D01*
X126096579Y-129028000D01*
X150113995Y-129028000D01*
X150114000Y-129028001D01*
X150396484Y-128971810D01*
X150452675Y-128960633D01*
X150739790Y-128768790D01*
X150739791Y-128768789D01*
X151755787Y-127752792D01*
X151755790Y-127752790D01*
X151947633Y-127465675D01*
X151975542Y-127325367D01*
X152015001Y-127127000D01*
X152015000Y-127126995D01*
X152015000Y-99695005D01*
X152015001Y-99695000D01*
X151947633Y-99356326D01*
X151947633Y-99356325D01*
X151755790Y-99069210D01*
X151755787Y-99069208D01*
X150993790Y-98307210D01*
X150966222Y-98288790D01*
X150706675Y-98115367D01*
X150650484Y-98104190D01*
X150368000Y-98047999D01*
X150367995Y-98048000D01*
X149770202Y-98048000D01*
X149559806Y-97837236D01*
X149663265Y-97816657D01*
X149873309Y-97676309D01*
X150013657Y-97466265D01*
X150062940Y-97218500D01*
X150062940Y-95567500D01*
X150013657Y-95319735D01*
X149873309Y-95109691D01*
X149663265Y-94969343D01*
X149475000Y-94931895D01*
X149475000Y-89018745D01*
X150221861Y-89018745D01*
X150295995Y-89264864D01*
X150833223Y-89457965D01*
X151403454Y-89430778D01*
X151804005Y-89264864D01*
X151878139Y-89018745D01*
X151050000Y-88190605D01*
X150221861Y-89018745D01*
X149475000Y-89018745D01*
X149475000Y-87794223D01*
X149603035Y-87794223D01*
X149630222Y-88364454D01*
X149796136Y-88765005D01*
X150042255Y-88839139D01*
X150870395Y-88011000D01*
X150042255Y-87182861D01*
X149796136Y-87256995D01*
X149603035Y-87794223D01*
X149475000Y-87794223D01*
X149475000Y-87003255D01*
X150221861Y-87003255D01*
X151050000Y-87831395D01*
X151878139Y-87003255D01*
X151804005Y-86757136D01*
X151266777Y-86564035D01*
X150696546Y-86591222D01*
X150295995Y-86757136D01*
X150221861Y-87003255D01*
X149475000Y-87003255D01*
X149475000Y-86487000D01*
X149407633Y-86148325D01*
X149215790Y-85861210D01*
X149215787Y-85861208D01*
X147691790Y-84337210D01*
X147614660Y-84285674D01*
X147404675Y-84145367D01*
X147348484Y-84134190D01*
X147066000Y-84077999D01*
X147065995Y-84078000D01*
X143876579Y-84078000D01*
X143390401Y-83591821D01*
X143731430Y-83251387D01*
X143763804Y-83173421D01*
X143795126Y-83249226D01*
X144205613Y-83660430D01*
X144742214Y-83883246D01*
X145323237Y-83883753D01*
X145860226Y-83661874D01*
X146271430Y-83251387D01*
X146303804Y-83173421D01*
X146335126Y-83249226D01*
X146745613Y-83660430D01*
X147282214Y-83883246D01*
X147863237Y-83883753D01*
X148400226Y-83661874D01*
X148811430Y-83251387D01*
X148843804Y-83173421D01*
X148875126Y-83249226D01*
X149285613Y-83660430D01*
X149822214Y-83883246D01*
X150403237Y-83883753D01*
X150940226Y-83661874D01*
X151351430Y-83251387D01*
X151574246Y-82714786D01*
X151574753Y-82133763D01*
X151352874Y-81596774D01*
X150942387Y-81185570D01*
X150405786Y-80962754D01*
X149824763Y-80962247D01*
X149287774Y-81184126D01*
X148876570Y-81594613D01*
X148844196Y-81672579D01*
X148812874Y-81596774D01*
X148402387Y-81185570D01*
X147865786Y-80962754D01*
X147284763Y-80962247D01*
X146747774Y-81184126D01*
X146336570Y-81594613D01*
X146304196Y-81672579D01*
X146272874Y-81596774D01*
X145862387Y-81185570D01*
X145325786Y-80962754D01*
X144744763Y-80962247D01*
X144207774Y-81184126D01*
X143796570Y-81594613D01*
X143764196Y-81672579D01*
X143732874Y-81596774D01*
X143322387Y-81185570D01*
X142785786Y-80962754D01*
X142204763Y-80962247D01*
X141667774Y-81184126D01*
X141256570Y-81594613D01*
X141224196Y-81672579D01*
X141192874Y-81596774D01*
X140782387Y-81185570D01*
X140245786Y-80962754D01*
X139664763Y-80962247D01*
X139127774Y-81184126D01*
X138716570Y-81594613D01*
X138684196Y-81672579D01*
X138652874Y-81596774D01*
X138242387Y-81185570D01*
X137705786Y-80962754D01*
X137124763Y-80962247D01*
X136587774Y-81184126D01*
X136176570Y-81594613D01*
X136144196Y-81672579D01*
X136112874Y-81596774D01*
X135702387Y-81185570D01*
X135165786Y-80962754D01*
X134584763Y-80962247D01*
X134047774Y-81184126D01*
X133778236Y-81453194D01*
X133757657Y-81349735D01*
X133617309Y-81139691D01*
X133407265Y-80999343D01*
X133159500Y-80950060D01*
X131508500Y-80950060D01*
X131260735Y-80999343D01*
X131050691Y-81139691D01*
X130910343Y-81349735D01*
X130861060Y-81597500D01*
X130861060Y-83248500D01*
X130910343Y-83496265D01*
X131050691Y-83706309D01*
X131260735Y-83846657D01*
X131449000Y-83884105D01*
X131449000Y-86120421D01*
X129935420Y-87634000D01*
X125222000Y-87634000D01*
X124883325Y-87701367D01*
X124596210Y-87893210D01*
X124596208Y-87893213D01*
X123072210Y-89417210D01*
X122880367Y-89704325D01*
X122880367Y-89704326D01*
X122812999Y-90043000D01*
X122813000Y-90043005D01*
X122813000Y-97296421D01*
X122061420Y-98048000D01*
X120560202Y-98048000D01*
X120208387Y-97695570D01*
X120145634Y-97669513D01*
X120149344Y-97667976D01*
X120226610Y-97419215D01*
X119380000Y-96572605D01*
X118533390Y-97419215D01*
X118610656Y-97667976D01*
X118614074Y-97669211D01*
X118553774Y-97694126D01*
X118142570Y-98104613D01*
X117919754Y-98641214D01*
X117919247Y-99222237D01*
X118141126Y-99759226D01*
X118551613Y-100170430D01*
X118614366Y-100196487D01*
X118610656Y-100198024D01*
X118533390Y-100446785D01*
X119380000Y-101293395D01*
X120226610Y-100446785D01*
X120149344Y-100198024D01*
X120145926Y-100196789D01*
X120206226Y-100171874D01*
X120560718Y-99818000D01*
X122427995Y-99818000D01*
X122428000Y-99818001D01*
X122723475Y-99759226D01*
X122766675Y-99750633D01*
X123053790Y-99558790D01*
X124323787Y-98288792D01*
X124323790Y-98288790D01*
X124515633Y-98001675D01*
X124545158Y-97853246D01*
X124583001Y-97663000D01*
X124583000Y-97662995D01*
X124583000Y-90409580D01*
X125588579Y-89404000D01*
X130301995Y-89404000D01*
X130302000Y-89404001D01*
X130584484Y-89347810D01*
X130640675Y-89336633D01*
X130927790Y-89144790D01*
X130927791Y-89144789D01*
X132959787Y-87112792D01*
X132959790Y-87112790D01*
X133151633Y-86825675D01*
X133179542Y-86685367D01*
X133219001Y-86487000D01*
X133219000Y-86486995D01*
X133219000Y-83884105D01*
X133407265Y-83846657D01*
X133617309Y-83706309D01*
X133757657Y-83496265D01*
X133778273Y-83392623D01*
X133989000Y-83603718D01*
X133989000Y-88152421D01*
X131454210Y-90687210D01*
X131262367Y-90974325D01*
X131262367Y-90974326D01*
X131194999Y-91313000D01*
X131195000Y-91313005D01*
X131195000Y-94756421D01*
X130443420Y-95508000D01*
X129450202Y-95508000D01*
X129239806Y-95297236D01*
X129343265Y-95276657D01*
X129553309Y-95136309D01*
X129693657Y-94926265D01*
X129742940Y-94678500D01*
X129742940Y-93027500D01*
X129693657Y-92779735D01*
X129553309Y-92569691D01*
X129343265Y-92429343D01*
X129095500Y-92380060D01*
X127444500Y-92380060D01*
X127196735Y-92429343D01*
X126986691Y-92569691D01*
X126846343Y-92779735D01*
X126797060Y-93027500D01*
X126797060Y-94678500D01*
X126846343Y-94926265D01*
X126986691Y-95136309D01*
X127196735Y-95276657D01*
X127300377Y-95297273D01*
X127032570Y-95564613D01*
X126809754Y-96101214D01*
X126809247Y-96682237D01*
X127031126Y-97219226D01*
X127441613Y-97630430D01*
X127519579Y-97662804D01*
X127443774Y-97694126D01*
X127032570Y-98104613D01*
X126809754Y-98641214D01*
X126809247Y-99222237D01*
X127031126Y-99759226D01*
X127441613Y-100170430D01*
X127504366Y-100196487D01*
X127500656Y-100198024D01*
X127423390Y-100446785D01*
X128270000Y-101293395D01*
X129116610Y-100446785D01*
X129039344Y-100198024D01*
X129035926Y-100196789D01*
X129096226Y-100171874D01*
X129309256Y-99959215D01*
X137075390Y-99959215D01*
X137151110Y-100203000D01*
X137075390Y-100446785D01*
X137922000Y-101293395D01*
X138768610Y-100446785D01*
X138692890Y-100203000D01*
X138768610Y-99959215D01*
X137922000Y-99112605D01*
X137075390Y-99959215D01*
X129309256Y-99959215D01*
X129450718Y-99818000D01*
X130555995Y-99818000D01*
X130556000Y-99818001D01*
X130851475Y-99759226D01*
X130894675Y-99750633D01*
X131181790Y-99558790D01*
X132030448Y-98710131D01*
X136449660Y-98710131D01*
X136476447Y-99290535D01*
X136647024Y-99702344D01*
X136895785Y-99779610D01*
X137742395Y-98933000D01*
X138101605Y-98933000D01*
X138948215Y-99779610D01*
X139196976Y-99702344D01*
X139394340Y-99155869D01*
X139367553Y-98575465D01*
X139196976Y-98163656D01*
X138948215Y-98086390D01*
X138101605Y-98933000D01*
X137742395Y-98933000D01*
X136895785Y-98086390D01*
X136647024Y-98163656D01*
X136449660Y-98710131D01*
X132030448Y-98710131D01*
X133975787Y-96764792D01*
X133975790Y-96764790D01*
X134167633Y-96477675D01*
X134184476Y-96393000D01*
X134235001Y-96139000D01*
X134235000Y-96138995D01*
X134235000Y-92441580D01*
X138039787Y-88636792D01*
X138039790Y-88636790D01*
X138231633Y-88349675D01*
X138255880Y-88227777D01*
X138299001Y-88011000D01*
X138299000Y-88010995D01*
X138299000Y-83603202D01*
X138651430Y-83251387D01*
X138683804Y-83173421D01*
X138715126Y-83249226D01*
X139069000Y-83603718D01*
X139069000Y-86486995D01*
X139068999Y-86487000D01*
X139108458Y-86685367D01*
X139136367Y-86825675D01*
X139286678Y-87050633D01*
X139328210Y-87112790D01*
X142625000Y-90409579D01*
X142625000Y-92595026D01*
X142500235Y-92619843D01*
X142290191Y-92760191D01*
X142149843Y-92970235D01*
X142100560Y-93218000D01*
X142100560Y-94488000D01*
X142149843Y-94735765D01*
X142290191Y-94945809D01*
X142500235Y-95086157D01*
X142685459Y-95123000D01*
X142500235Y-95159843D01*
X142290191Y-95300191D01*
X142151336Y-95508000D01*
X141971579Y-95508000D01*
X141220000Y-94756420D01*
X141220000Y-94488005D01*
X141220001Y-94488000D01*
X141152634Y-94149326D01*
X141088975Y-94054054D01*
X140960790Y-93862210D01*
X140960787Y-93862208D01*
X140325790Y-93227210D01*
X140298222Y-93208790D01*
X140038675Y-93035367D01*
X139982484Y-93024190D01*
X139700000Y-92967999D01*
X139699995Y-92968000D01*
X139383105Y-92968000D01*
X139345657Y-92779735D01*
X139205309Y-92569691D01*
X138995265Y-92429343D01*
X138747500Y-92380060D01*
X137096500Y-92380060D01*
X136848735Y-92429343D01*
X136638691Y-92569691D01*
X136498343Y-92779735D01*
X136449060Y-93027500D01*
X136449060Y-94678500D01*
X136498343Y-94926265D01*
X136638691Y-95136309D01*
X136848735Y-95276657D01*
X136952377Y-95297273D01*
X136684570Y-95564613D01*
X136461754Y-96101214D01*
X136461247Y-96682237D01*
X136683126Y-97219226D01*
X137093613Y-97630430D01*
X137156366Y-97656487D01*
X137152656Y-97658024D01*
X137075390Y-97906785D01*
X137922000Y-98753395D01*
X138768610Y-97906785D01*
X138691344Y-97658024D01*
X138687926Y-97656789D01*
X138748226Y-97631874D01*
X139159430Y-97221387D01*
X139382246Y-96684786D01*
X139382753Y-96103763D01*
X139160874Y-95566774D01*
X138891806Y-95297236D01*
X138995265Y-95276657D01*
X139205309Y-95136309D01*
X139345657Y-94926265D01*
X139374862Y-94779441D01*
X139450000Y-94854579D01*
X139450000Y-95122995D01*
X139449999Y-95123000D01*
X139506190Y-95405484D01*
X139517367Y-95461675D01*
X139625599Y-95623656D01*
X139709210Y-95748790D01*
X140979208Y-97018787D01*
X140979210Y-97018790D01*
X141194055Y-97162344D01*
X141266325Y-97210633D01*
X141605000Y-97278001D01*
X141605005Y-97278000D01*
X142151336Y-97278000D01*
X142290191Y-97485809D01*
X142500235Y-97626157D01*
X142748000Y-97675440D01*
X144272000Y-97675440D01*
X144519765Y-97626157D01*
X144729809Y-97485809D01*
X144870157Y-97275765D01*
X144919440Y-97028000D01*
X144919440Y-95758000D01*
X144870157Y-95510235D01*
X144729809Y-95300191D01*
X144519765Y-95159843D01*
X144334541Y-95123000D01*
X144519765Y-95086157D01*
X144729809Y-94945809D01*
X144870157Y-94735765D01*
X144919440Y-94488000D01*
X144919440Y-93218000D01*
X144870157Y-92970235D01*
X144729809Y-92760191D01*
X144519765Y-92619843D01*
X144395000Y-92595026D01*
X144395000Y-90043000D01*
X144327633Y-89704325D01*
X144135790Y-89417210D01*
X144135787Y-89417208D01*
X140839000Y-86120420D01*
X140839000Y-83603202D01*
X141191430Y-83251387D01*
X141223804Y-83173421D01*
X141255126Y-83249226D01*
X141609000Y-83603718D01*
X141609000Y-83946995D01*
X141608999Y-83947000D01*
X141648458Y-84145367D01*
X141676367Y-84285675D01*
X141826678Y-84510633D01*
X141868210Y-84572790D01*
X142884208Y-85588787D01*
X142884210Y-85588790D01*
X143171325Y-85780633D01*
X143227516Y-85791810D01*
X143510000Y-85848001D01*
X143510005Y-85848000D01*
X146699420Y-85848000D01*
X147705000Y-86853579D01*
X147705000Y-94931895D01*
X147516735Y-94969343D01*
X147306691Y-95109691D01*
X147166343Y-95319735D01*
X147117060Y-95567500D01*
X147117060Y-97218500D01*
X147166343Y-97466265D01*
X147306691Y-97676309D01*
X147516735Y-97816657D01*
X147620377Y-97837273D01*
X147409282Y-98048000D01*
X147178579Y-98048000D01*
X146935000Y-97804420D01*
X146935000Y-89441533D01*
X147097765Y-89409157D01*
X147307809Y-89268809D01*
X147448157Y-89058765D01*
X147497440Y-88811000D01*
X147497440Y-87211000D01*
X147448157Y-86963235D01*
X147307809Y-86753191D01*
X147097765Y-86612843D01*
X146850000Y-86563560D01*
X145250000Y-86563560D01*
X145002235Y-86612843D01*
X144792191Y-86753191D01*
X144651843Y-86963235D01*
X144602560Y-87211000D01*
X144602560Y-88811000D01*
X144651843Y-89058765D01*
X144792191Y-89268809D01*
X145002235Y-89409157D01*
X145165000Y-89441533D01*
X145165000Y-98170995D01*
X145164999Y-98171000D01*
X145192094Y-98307211D01*
X145232367Y-98509675D01*
X145366307Y-98710131D01*
X145424210Y-98796790D01*
X146186208Y-99558787D01*
X146186210Y-99558790D01*
X146473325Y-99750633D01*
X146516525Y-99759226D01*
X146812000Y-99818001D01*
X146812005Y-99818000D01*
X147409798Y-99818000D01*
X147761613Y-100170430D01*
X147824366Y-100196487D01*
X147820656Y-100198024D01*
X147743390Y-100446785D01*
X148590000Y-101293395D01*
X149436610Y-100446785D01*
X149359344Y-100198024D01*
X149355926Y-100196789D01*
X149416226Y-100171874D01*
X149770718Y-99818000D01*
X150001420Y-99818000D01*
X150245000Y-100061579D01*
X150245000Y-126760421D01*
X149747420Y-127258000D01*
X125730005Y-127258000D01*
X125730000Y-127257999D01*
X125447516Y-127314190D01*
X125391325Y-127325367D01*
X125104210Y-127517210D01*
X125104208Y-127517213D01*
X124088210Y-128533210D01*
X123896367Y-128820325D01*
X123896367Y-128820326D01*
X123828999Y-129159000D01*
X123829000Y-129159005D01*
X123829000Y-129502798D01*
X123476570Y-129854613D01*
X123444196Y-129932579D01*
X123412874Y-129856774D01*
X123059000Y-129502282D01*
X123059000Y-129159005D01*
X123059001Y-129159000D01*
X122991633Y-128820326D01*
X122991633Y-128820325D01*
X122799790Y-128533210D01*
X122799787Y-128533208D01*
X121783790Y-127517210D01*
X121706660Y-127465674D01*
X121496675Y-127325367D01*
X121440484Y-127314190D01*
X121158000Y-127257999D01*
X121157995Y-127258000D01*
X111364579Y-127258000D01*
X110867000Y-126760420D01*
X110867000Y-108697580D01*
X111618579Y-107946000D01*
X112267995Y-107946000D01*
X112268000Y-107946001D01*
X112550484Y-107889810D01*
X112606675Y-107878633D01*
X112893790Y-107686790D01*
X113909787Y-106670792D01*
X113909790Y-106670790D01*
X114101633Y-106383675D01*
X114129542Y-106243367D01*
X114169001Y-106045000D01*
X114169000Y-106044995D01*
X114169000Y-102499215D01*
X118533390Y-102499215D01*
X118610656Y-102747976D01*
X119157131Y-102945340D01*
X119737535Y-102918553D01*
X120149344Y-102747976D01*
X120226610Y-102499215D01*
X127423390Y-102499215D01*
X127500656Y-102747976D01*
X128047131Y-102945340D01*
X128627535Y-102918553D01*
X129039344Y-102747976D01*
X129116610Y-102499215D01*
X137075390Y-102499215D01*
X137152656Y-102747976D01*
X137699131Y-102945340D01*
X138279535Y-102918553D01*
X138691344Y-102747976D01*
X138768610Y-102499215D01*
X147743390Y-102499215D01*
X147820656Y-102747976D01*
X148367131Y-102945340D01*
X148947535Y-102918553D01*
X149359344Y-102747976D01*
X149436610Y-102499215D01*
X148590000Y-101652605D01*
X147743390Y-102499215D01*
X138768610Y-102499215D01*
X137922000Y-101652605D01*
X137075390Y-102499215D01*
X129116610Y-102499215D01*
X128270000Y-101652605D01*
X127423390Y-102499215D01*
X120226610Y-102499215D01*
X119380000Y-101652605D01*
X118533390Y-102499215D01*
X114169000Y-102499215D01*
X114169000Y-102489005D01*
X114169001Y-102489000D01*
X114101633Y-102150326D01*
X114101633Y-102150325D01*
X113909790Y-101863210D01*
X113909787Y-101863208D01*
X113296711Y-101250131D01*
X117907660Y-101250131D01*
X117934447Y-101830535D01*
X118105024Y-102242344D01*
X118353785Y-102319610D01*
X119200395Y-101473000D01*
X119559605Y-101473000D01*
X120406215Y-102319610D01*
X120654976Y-102242344D01*
X120852340Y-101695869D01*
X120831769Y-101250131D01*
X126797660Y-101250131D01*
X126824447Y-101830535D01*
X126995024Y-102242344D01*
X127243785Y-102319610D01*
X128090395Y-101473000D01*
X128449605Y-101473000D01*
X129296215Y-102319610D01*
X129544976Y-102242344D01*
X129742340Y-101695869D01*
X129721769Y-101250131D01*
X136449660Y-101250131D01*
X136476447Y-101830535D01*
X136647024Y-102242344D01*
X136895785Y-102319610D01*
X137742395Y-101473000D01*
X138101605Y-101473000D01*
X138948215Y-102319610D01*
X139196976Y-102242344D01*
X139394340Y-101695869D01*
X139373769Y-101250131D01*
X147117660Y-101250131D01*
X147144447Y-101830535D01*
X147315024Y-102242344D01*
X147563785Y-102319610D01*
X148410395Y-101473000D01*
X148769605Y-101473000D01*
X149616215Y-102319610D01*
X149864976Y-102242344D01*
X150062340Y-101695869D01*
X150035553Y-101115465D01*
X149864976Y-100703656D01*
X149616215Y-100626390D01*
X148769605Y-101473000D01*
X148410395Y-101473000D01*
X147563785Y-100626390D01*
X147315024Y-100703656D01*
X147117660Y-101250131D01*
X139373769Y-101250131D01*
X139367553Y-101115465D01*
X139196976Y-100703656D01*
X138948215Y-100626390D01*
X138101605Y-101473000D01*
X137742395Y-101473000D01*
X136895785Y-100626390D01*
X136647024Y-100703656D01*
X136449660Y-101250131D01*
X129721769Y-101250131D01*
X129715553Y-101115465D01*
X129544976Y-100703656D01*
X129296215Y-100626390D01*
X128449605Y-101473000D01*
X128090395Y-101473000D01*
X127243785Y-100626390D01*
X126995024Y-100703656D01*
X126797660Y-101250131D01*
X120831769Y-101250131D01*
X120825553Y-101115465D01*
X120654976Y-100703656D01*
X120406215Y-100626390D01*
X119559605Y-101473000D01*
X119200395Y-101473000D01*
X118353785Y-100626390D01*
X118105024Y-100703656D01*
X117907660Y-101250131D01*
X113296711Y-101250131D01*
X112893790Y-100847210D01*
X112606675Y-100655367D01*
X112550484Y-100644190D01*
X112268000Y-100587999D01*
X112267995Y-100588000D01*
X111670202Y-100588000D01*
X111318387Y-100235570D01*
X111255634Y-100209513D01*
X111259344Y-100207976D01*
X111336610Y-99959215D01*
X110490000Y-99112605D01*
X109643390Y-99959215D01*
X109720656Y-100207976D01*
X109724074Y-100209211D01*
X109663774Y-100234126D01*
X109252570Y-100644613D01*
X109029754Y-101181214D01*
X109029247Y-101762237D01*
X109251126Y-102299226D01*
X109520194Y-102568764D01*
X109416735Y-102589343D01*
X109206691Y-102729691D01*
X109066343Y-102939735D01*
X109017060Y-103187500D01*
X108660000Y-103187500D01*
X108660000Y-98710131D01*
X109017660Y-98710131D01*
X109044447Y-99290535D01*
X109215024Y-99702344D01*
X109463785Y-99779610D01*
X110310395Y-98933000D01*
X110669605Y-98933000D01*
X111516215Y-99779610D01*
X111764976Y-99702344D01*
X111962340Y-99155869D01*
X111935553Y-98575465D01*
X111764976Y-98163656D01*
X111516215Y-98086390D01*
X110669605Y-98933000D01*
X110310395Y-98933000D01*
X109463785Y-98086390D01*
X109215024Y-98163656D01*
X109017660Y-98710131D01*
X108660000Y-98710131D01*
X108660000Y-91602237D01*
X109029247Y-91602237D01*
X109251126Y-92139226D01*
X109661613Y-92550430D01*
X109739579Y-92582804D01*
X109663774Y-92614126D01*
X109252570Y-93024613D01*
X109029754Y-93561214D01*
X109029247Y-94142237D01*
X109251126Y-94679226D01*
X109661613Y-95090430D01*
X109739579Y-95122804D01*
X109663774Y-95154126D01*
X109252570Y-95564613D01*
X109029754Y-96101214D01*
X109029247Y-96682237D01*
X109251126Y-97219226D01*
X109661613Y-97630430D01*
X109724366Y-97656487D01*
X109720656Y-97658024D01*
X109643390Y-97906785D01*
X110490000Y-98753395D01*
X111336610Y-97906785D01*
X111259344Y-97658024D01*
X111255926Y-97656789D01*
X111316226Y-97631874D01*
X111670718Y-97278000D01*
X113029995Y-97278000D01*
X113030000Y-97278001D01*
X113329125Y-97218500D01*
X113368675Y-97210633D01*
X113655790Y-97018790D01*
X113655791Y-97018789D01*
X114504448Y-96170131D01*
X117907660Y-96170131D01*
X117934447Y-96750535D01*
X118105024Y-97162344D01*
X118353785Y-97239610D01*
X119200395Y-96393000D01*
X119559605Y-96393000D01*
X120406215Y-97239610D01*
X120654976Y-97162344D01*
X120852340Y-96615869D01*
X120825553Y-96035465D01*
X120654976Y-95623656D01*
X120406215Y-95546390D01*
X119559605Y-96393000D01*
X119200395Y-96393000D01*
X118353785Y-95546390D01*
X118105024Y-95623656D01*
X117907660Y-96170131D01*
X114504448Y-96170131D01*
X114925787Y-95748792D01*
X114925790Y-95748790D01*
X115117633Y-95461675D01*
X115117633Y-95461674D01*
X115185001Y-95123000D01*
X115185000Y-95122995D01*
X115185000Y-87869580D01*
X115936579Y-87118000D01*
X120649995Y-87118000D01*
X120650000Y-87118001D01*
X120932484Y-87061810D01*
X120988675Y-87050633D01*
X121275790Y-86858790D01*
X121275791Y-86858789D01*
X123815787Y-84318792D01*
X123815790Y-84318790D01*
X124007633Y-84031675D01*
X124075000Y-83693000D01*
X124075000Y-83603202D01*
X124427430Y-83251387D01*
X124459804Y-83173421D01*
X124491126Y-83249226D01*
X124901613Y-83660430D01*
X125438214Y-83883246D01*
X126019237Y-83883753D01*
X126556226Y-83661874D01*
X126825764Y-83392806D01*
X126846343Y-83496265D01*
X126986691Y-83706309D01*
X127196735Y-83846657D01*
X127385000Y-83884105D01*
X127385000Y-84596421D01*
X126633420Y-85348000D01*
X123190005Y-85348000D01*
X123190000Y-85347999D01*
X122907516Y-85404190D01*
X122851325Y-85415367D01*
X122564210Y-85607210D01*
X122564208Y-85607213D01*
X118754210Y-89417210D01*
X118562367Y-89704325D01*
X118562367Y-89704326D01*
X118494999Y-90043000D01*
X118495000Y-90043005D01*
X118495000Y-92391895D01*
X118306735Y-92429343D01*
X118096691Y-92569691D01*
X117956343Y-92779735D01*
X117907060Y-93027500D01*
X117907060Y-94678500D01*
X117956343Y-94926265D01*
X118096691Y-95136309D01*
X118306735Y-95276657D01*
X118546567Y-95324362D01*
X118533390Y-95366785D01*
X119380000Y-96213395D01*
X120226610Y-95366785D01*
X120213433Y-95324362D01*
X120453265Y-95276657D01*
X120663309Y-95136309D01*
X120803657Y-94926265D01*
X120852940Y-94678500D01*
X120852940Y-93027500D01*
X120803657Y-92779735D01*
X120663309Y-92569691D01*
X120453265Y-92429343D01*
X120265000Y-92391895D01*
X120265000Y-90409580D01*
X123556579Y-87118000D01*
X126999995Y-87118000D01*
X127000000Y-87118001D01*
X127282484Y-87061810D01*
X127338675Y-87050633D01*
X127625790Y-86858790D01*
X127625791Y-86858789D01*
X128895787Y-85588792D01*
X128895790Y-85588790D01*
X129087633Y-85301675D01*
X129087633Y-85301674D01*
X129155001Y-84963000D01*
X129155000Y-84962995D01*
X129155000Y-83884105D01*
X129343265Y-83846657D01*
X129553309Y-83706309D01*
X129693657Y-83496265D01*
X129742940Y-83248500D01*
X129742940Y-81597500D01*
X129693657Y-81349735D01*
X129553309Y-81139691D01*
X129343265Y-80999343D01*
X129095500Y-80950060D01*
X127444500Y-80950060D01*
X127196735Y-80999343D01*
X126986691Y-81139691D01*
X126846343Y-81349735D01*
X126825727Y-81453377D01*
X126558387Y-81185570D01*
X126021786Y-80962754D01*
X125440763Y-80962247D01*
X124903774Y-81184126D01*
X124492570Y-81594613D01*
X124460196Y-81672579D01*
X124428874Y-81596774D01*
X124018387Y-81185570D01*
X123481786Y-80962754D01*
X122900763Y-80962247D01*
X122363774Y-81184126D01*
X121952570Y-81594613D01*
X121920196Y-81672579D01*
X121888874Y-81596774D01*
X121478387Y-81185570D01*
X120941786Y-80962754D01*
X120360763Y-80962247D01*
X119823774Y-81184126D01*
X119412570Y-81594613D01*
X119380196Y-81672579D01*
X119348874Y-81596774D01*
X118938387Y-81185570D01*
X118401786Y-80962754D01*
X117820763Y-80962247D01*
X117283774Y-81184126D01*
X116872570Y-81594613D01*
X116840196Y-81672579D01*
X116808874Y-81596774D01*
X116398387Y-81185570D01*
X115861786Y-80962754D01*
X115280763Y-80962247D01*
X114743774Y-81184126D01*
X114332570Y-81594613D01*
X114306513Y-81657366D01*
X114304976Y-81653656D01*
X114056215Y-81576390D01*
X113209605Y-82423000D01*
X114056215Y-83269610D01*
X114304976Y-83192344D01*
X114306211Y-83188926D01*
X114331126Y-83249226D01*
X114741613Y-83660430D01*
X115278214Y-83883246D01*
X115859237Y-83883753D01*
X116396226Y-83661874D01*
X116807430Y-83251387D01*
X116839804Y-83173421D01*
X116871126Y-83249226D01*
X117281613Y-83660430D01*
X117818214Y-83883246D01*
X118399237Y-83883753D01*
X118936226Y-83661874D01*
X119347430Y-83251387D01*
X119379804Y-83173421D01*
X119411126Y-83249226D01*
X119626472Y-83464948D01*
X119013420Y-84078000D01*
X114300005Y-84078000D01*
X114300000Y-84077999D01*
X113961325Y-84145367D01*
X113674210Y-84337210D01*
X113674208Y-84337213D01*
X112404210Y-85607210D01*
X112212367Y-85894325D01*
X112212367Y-85894326D01*
X112144999Y-86233000D01*
X112145000Y-86233005D01*
X112145000Y-92216421D01*
X111531932Y-92829488D01*
X111318387Y-92615570D01*
X111240421Y-92583196D01*
X111316226Y-92551874D01*
X111727430Y-92141387D01*
X111950246Y-91604786D01*
X111950753Y-91023763D01*
X111728874Y-90486774D01*
X111318387Y-90075570D01*
X110781786Y-89852754D01*
X110200763Y-89852247D01*
X109663774Y-90074126D01*
X109252570Y-90484613D01*
X109029754Y-91021214D01*
X109029247Y-91602237D01*
X108660000Y-91602237D01*
X108660000Y-82712237D01*
X109029247Y-82712237D01*
X109251126Y-83249226D01*
X109661613Y-83660430D01*
X110198214Y-83883246D01*
X110779237Y-83883753D01*
X111316226Y-83661874D01*
X111529256Y-83449215D01*
X112183390Y-83449215D01*
X112260656Y-83697976D01*
X112807131Y-83895340D01*
X113387535Y-83868553D01*
X113799344Y-83697976D01*
X113876610Y-83449215D01*
X113030000Y-82602605D01*
X112183390Y-83449215D01*
X111529256Y-83449215D01*
X111727430Y-83251387D01*
X111753487Y-83188634D01*
X111755024Y-83192344D01*
X112003785Y-83269610D01*
X112850395Y-82423000D01*
X112003785Y-81576390D01*
X111755024Y-81653656D01*
X111753789Y-81657074D01*
X111728874Y-81596774D01*
X111529234Y-81396785D01*
X112183390Y-81396785D01*
X113030000Y-82243395D01*
X113876610Y-81396785D01*
X113799344Y-81148024D01*
X113252869Y-80950660D01*
X112672465Y-80977447D01*
X112260656Y-81148024D01*
X112183390Y-81396785D01*
X111529234Y-81396785D01*
X111318387Y-81185570D01*
X110781786Y-80962754D01*
X110200763Y-80962247D01*
X109663774Y-81184126D01*
X109252570Y-81594613D01*
X109029754Y-82131214D01*
X109029247Y-82712237D01*
X108660000Y-82712237D01*
X108660000Y-80593000D01*
X152400000Y-80593000D01*
X152400000Y-87489087D01*
M02*
